<?xml version="1.0" encoding="UTF-8"?>
<!-- Created with CreateLogo.app :) -->
<svg version="1.1" xmlns="http://www.w3.org/2000/svg" width="1024" height="1024">
<path d="M0 0 C11.8218 9.67238 14.43134 23.56267 16.39062 37.9375 C16.56728 39.18694 16.74393 40.43638 16.92593 41.72368 C17.49961 45.79396 18.06236 49.86568 18.625 53.9375 C19.02159 56.76548 19.4189 59.59336 19.81689 62.42114 C20.82056 69.56468 21.81545 76.7094 22.8075 83.85455 C23.83012 91.21186 24.86145 98.56794 25.89221 105.9241 C26.62395 111.14759 27.35422 116.37126 28.0791 121.5957 C28.34169 123.48439 28.60439 125.37306 28.86719 127.26172 C28.99138 128.1564 29.11557 129.05108 29.24353 129.97287 C29.87719 134.50466 30.53649 139.031 31.23535 143.55322 C31.37522 144.46159 31.5151 145.36996 31.65921 146.30586 C32.04466 148.79158 32.43641 151.27632 32.82861 153.76099 C33.28227 157.22872 33.49159 160.45064 33.375 163.9375 C34.03202 163.61153 34.68904 163.28556 35.36597 162.94971 C39.20546 161.65814 42.46961 161.71273 46.51953 161.74219 C48.08252 161.74863 49.64551 161.75508 51.25586 161.76172 C53.69702 161.78686 53.69702 161.78686 56.1875 161.8125 C58.65767 161.82604 58.65767 161.82604 61.17773 161.83984 C65.24364 161.86341 69.30924 161.89632 73.375 161.9375 C73.47949 160.80772 73.58399 159.67793 73.69165 158.51392 C74.97794 145.10202 76.59315 131.74666 78.35181 118.38892 C78.81585 114.84943 79.26835 111.30858 79.7207 107.76758 C80.02013 105.47907 80.32024 103.19066 80.62109 100.90234 C80.81813 99.34265 80.81813 99.34265 81.01915 97.75145 C82.72058 85.05775 85.44285 73.98373 94.625 64.625 C105.32174 56.959 114.26659 55.09817 127.375 55.9375 C136.95275 57.69619 144.36755 63.35397 150.00391 71.20703 C155.85155 81.17421 157.29902 91.70383 158.85547 102.95312 C159.07318 104.48226 159.2909 106.01139 159.51521 107.58685 C159.97203 110.80702 160.42481 114.02776 160.87378 117.24902 C161.56224 122.18562 162.26345 127.12019 162.9668 132.05469 C163.4096 135.18739 163.85168 138.3202 164.29297 141.45312 C164.60696 143.66881 164.60696 143.66881 164.92729 145.92926 C165.11782 147.30129 165.30834 148.67331 165.50464 150.08691 C165.67324 151.29221 165.84184 152.4975 166.01555 153.73932 C166.375 156.9375 166.375 156.9375 166.375 161.9375 C167.49134 161.91205 167.49134 161.91205 168.63023 161.88608 C176.40079 161.71105 184.17156 161.55134 191.94263 161.40039 C194.83984 161.34212 197.73699 161.27999 200.63403 161.21387 C204.80666 161.11931 208.97937 161.0388 213.15234 160.96094 C215.08412 160.91264 215.08412 160.91264 217.05492 160.86337 C233.45931 160.59227 233.45931 160.59227 239.25 165.25 C243.54961 170.68775 245.14682 173.77056 244.375 180.9375 C241.62769 186.22862 238.09374 190.03125 232.375 191.9375 C230.36595 192.0265 228.35403 192.0551 226.34302 192.05103 C225.10196 192.05095 223.8609 192.05087 222.58223 192.0508 C221.24154 192.04564 219.90085 192.04047 218.51953 192.03516 C217.14762 192.03374 215.77571 192.03233 214.36223 192.03087 C209.97063 192.02526 205.57908 192.01271 201.1875 192 C198.21419 191.99499 195.24089 191.99042 192.26758 191.98633 C184.97003 191.97529 177.67252 191.95854 170.375 191.9375 C170.50524 192.6315 170.63547 193.3255 170.76965 194.04053 C171.84864 199.86782 172.8062 205.68719 173.59375 211.5625 C173.80387 213.09262 174.01398 214.62273 174.23047 216.19922 C174.66433 219.38876 175.09394 222.57888 175.51953 225.76953 C175.72965 227.28934 175.93977 228.80914 176.15625 230.375 C176.43565 232.44588 176.43565 232.44588 176.7207 234.55859 C177.17106 238.05019 177.17106 238.05019 179.375 240.9375 C183.36016 240.39034 183.36016 240.39034 184.83203 237.97656 C185.27934 237.17992 185.72664 236.38328 186.1875 235.5625 C188.99876 231.13776 191.11614 229.20688 196.375 227.9375 C202.21608 228.02736 205.94022 229.10747 210.375 232.9375 C213.93322 237.61937 215.0317 241.47632 214.75391 247.39062 C213.46161 256.07697 208.24732 263.28789 201.32031 268.47656 C192.46658 274.18973 184.03366 275.75652 173.625 274.25 C162.36905 270.7739 154.64332 264.67722 149 254.3125 C143.37822 241.72625 142.46872 227.28404 140.6875 213.75 C140.46067 212.06961 140.23345 210.38927 140.00586 208.70898 C138.375 196.48993 138.375 196.48993 138.375 191.9375 C126.165 191.9375 113.955 191.9375 101.375 191.9375 C101.045 195.8975 100.715 199.8575 100.375 203.9375 C100.12887 206.28812 99.86989 208.63747 99.59058 210.98438 C99.4434 212.22606 99.29622 213.46775 99.14458 214.74707 C98.46797 220.34105 97.78884 225.93469 97.10132 231.52734 C96.74218 234.46681 96.38834 237.40692 96.03979 240.34766 C95.53211 244.62917 95.00804 248.9084 94.48047 253.1875 C94.25366 255.13801 94.25366 255.13801 94.02226 257.12793 C92.54168 268.86481 90.21248 278.87062 82.375 287.9375 C81.34375 289.15438 80.3125 290.37125 79.25 291.625 C72.22066 298.2876 64.19035 300.24971 54.6875 300.5 C43.86532 300.1338 36.16783 296.48178 28.375 288.9375 C26.165 286.02789 24.29383 283.0556 22.375 279.9375 C22.045 279.9375 21.715 279.9375 21.375 279.9375 C21.27478 280.63907 21.17455 281.34064 21.07129 282.06348 C20.92917 283.05831 20.78705 284.05314 20.64062 285.07812 C20.48078 286.19848 20.32094 287.31884 20.15625 288.47314 C19.79851 290.97436 19.4391 293.47533 19.07812 295.97607 C18.13312 302.5394 17.21466 309.10403 16.35938 315.67969 C16.19405 316.91815 16.02873 318.15662 15.8584 319.43262 C15.54394 321.79388 15.23937 324.15649 14.94629 326.52051 C13.34712 338.34457 9.67066 348.92776 0.20312 356.72656 C-9.63922 363.6162 -18.7386 364.95973 -30.625 363.9375 C-39.85545 362.07652 -46.86275 355.84822 -52.48047 348.51562 C-58.2048 339.63937 -59.91786 329.53838 -61.19531 319.19531 C-61.32187 318.22391 -61.44843 317.25251 -61.57883 316.25168 C-61.97645 313.1895 -62.36366 310.12612 -62.75 307.0625 C-63.14559 303.97776 -63.54335 300.89332 -63.9426 297.80905 C-64.18893 295.90063 -64.43281 293.99189 -64.67386 292.08279 C-65.19449 288.00211 -65.73001 283.95501 -66.625 279.9375 C-67.18187 280.82437 -67.73875 281.71125 -68.3125 282.625 C-70.54771 285.82679 -72.77186 288.28342 -75.625 290.9375 C-76.6975 291.96875 -77.77 293 -78.875 294.0625 C-86.58373 299.97252 -96.06983 301.66776 -105.60547 300.60547 C-115.20383 298.68083 -123.00496 293.63467 -129.0625 285.9375 C-136.50482 274.32022 -138.11829 263.18624 -139.78906 249.73047 C-139.986 248.17298 -140.18293 246.6155 -140.38583 245.01082 C-140.79987 241.72891 -141.2121 238.44684 -141.62109 235.16431 C-142.1455 230.95599 -142.67583 226.74845 -143.20826 222.54115 C-143.71662 218.52121 -144.2216 214.50084 -144.72656 210.48047 C-144.91715 208.96801 -145.10774 207.45555 -145.30411 205.89726 C-145.47784 204.50184 -145.65157 203.10641 -145.83057 201.6687 C-145.98442 200.43819 -146.13827 199.20767 -146.29678 197.93987 C-146.625 194.9375 -146.625 194.9375 -146.625 191.9375 C-158.835 191.9375 -171.045 191.9375 -183.625 191.9375 C-183.625 194.9075 -183.625 197.8775 -183.625 200.9375 C-183.96136 204.17249 -184.33942 207.3654 -184.79688 210.58203 C-184.98241 211.91859 -184.98241 211.91859 -185.17169 213.28215 C-185.43413 215.15576 -185.69986 217.02891 -185.96875 218.90161 C-186.37219 221.73031 -186.7569 224.56115 -187.14062 227.39258 C-189.4597 244.00825 -192.14102 257.20885 -205.47656 268.39844 C-213.25212 273.96856 -221.22803 275.42565 -230.625 274.9375 C-241.14147 273.11219 -248.88174 267.6851 -255.1875 259.1875 C-259.6272 252.79147 -260.38904 247.63167 -259.625 239.9375 C-257.36584 234.46339 -254.78276 231.79073 -249.625 228.9375 C-244.88033 227.35594 -241.18925 227.18797 -236.625 229.375 C-232.64392 232.77551 -229.68039 236.70696 -226.625 240.9375 C-225.305 240.6075 -223.985 240.2775 -222.625 239.9375 C-220.52734 229.09961 -218.94962 218.2316 -217.51562 207.28906 C-217.33274 205.90501 -217.14985 204.52096 -216.96143 203.09497 C-216.5143 199.70936 -216.06886 196.32354 -215.625 192.9375 C-216.40095 192.93163 -217.17689 192.92577 -217.97635 192.91972 C-226.05511 192.85577 -234.13347 192.77135 -242.21191 192.67505 C-245.22651 192.6418 -248.24117 192.61377 -251.25586 192.59106 C-255.59011 192.55752 -259.9238 192.5052 -264.25781 192.44922 C-265.60489 192.44283 -266.95197 192.43644 -268.33987 192.42986 C-270.23116 192.40016 -270.23116 192.40016 -272.16064 192.36987 C-273.26651 192.35877 -274.37237 192.34767 -275.51175 192.33623 C-280.29048 191.7242 -283.57331 190.04762 -286.875 186.5625 C-289.64732 182.40402 -290.64325 180.08733 -290.5625 175 C-289.47428 170.28437 -288.10406 168.26194 -284.625 164.9375 C-280.18144 162.27557 -276.94743 161.56775 -271.79346 161.59692 C-269.78205 161.59726 -269.78205 161.59726 -267.73001 161.59761 C-266.29544 161.61309 -264.86086 161.62858 -263.38281 161.64453 C-261.16484 161.6509 -261.16484 161.6509 -258.90207 161.65739 C-254.18453 161.67417 -249.46741 161.71182 -244.75 161.75 C-241.54949 161.76505 -238.34896 161.77874 -235.14844 161.79102 C-227.30715 161.82407 -219.4661 161.87426 -211.625 161.9375 C-209.63412 148.19712 -207.67305 134.45509 -205.87891 120.6875 C-205.45637 117.49884 -205.03214 114.31041 -204.60718 111.12207 C-204.32371 108.97109 -204.04586 106.81937 -203.77319 104.66699 C-199.75842 73.10515 -199.75842 73.10515 -185.625 61.9375 C-175.01971 55.35282 -163.91331 54.34902 -151.75 57 C-141.61086 61.76233 -133.4551 69.38362 -129.53931 80.03198 C-127.5631 85.69423 -126.56304 91.24189 -125.80859 97.17578 C-125.5947 98.73887 -125.5947 98.73887 -125.37648 100.33354 C-124.927 103.6376 -124.49438 106.9436 -124.0625 110.25 C-123.77001 112.42268 -123.4764 114.59521 -123.18164 116.76758 C-122.60181 121.05325 -122.02985 125.33986 -121.46436 129.62744 C-120.90532 133.85584 -120.3311 138.08174 -119.74268 142.30615 C-119.53253 143.81957 -119.53253 143.81957 -119.31813 145.36357 C-119.05315 147.26623 -118.78613 149.1686 -118.51671 151.07063 C-118.00787 154.73629 -117.625 158.23034 -117.625 161.9375 C-116.51463 161.93226 -115.40427 161.92703 -114.26025 161.92163 C-110.14908 161.90461 -106.03795 161.89206 -101.92676 161.88257 C-100.14583 161.87753 -98.3649 161.8707 -96.58398 161.86206 C-94.02733 161.84996 -91.47074 161.84426 -88.91406 161.83984 C-87.37444 161.83461 -85.83481 161.82937 -84.24854 161.82397 C-80.625 161.9375 -80.625 161.9375 -78.625 162.9375 C-74.59059 136.58187 -70.61001 110.2213 -66.9375 83.8125 C-66.79364 82.78022 -66.64978 81.74795 -66.50156 80.68439 C-65.16594 71.09862 -63.83829 61.51181 -62.53093 51.92215 C-61.9844 47.92651 -61.42869 43.93215 -60.875 39.9375 C-60.68849 38.54386 -60.50198 37.15022 -60.30981 35.71436 C-58.32321 21.4703 -54.63954 8.92544 -43.625 -1.0625 C-29.19879 -10.5125 -13.95485 -9.82969 0 0 Z M-24.625 24.9375 C-26.95258 32.11738 -28.4225 39.03893 -29.44141 46.50781 C-29.78395 48.9144 -30.12656 51.32097 -30.46924 53.72754 C-30.65303 55.03775 -30.83682 56.34796 -31.02618 57.69788 C-31.78383 63.062 -32.56584 68.42245 -33.34875 73.78293 C-34.36693 80.75479 -35.3785 87.72759 -36.38784 94.70074 C-37.03768 99.18997 -37.68815 103.67911 -38.34058 108.16797 C-39.74579 117.83852 -41.14129 127.51033 -42.51642 137.18521 C-43.25529 142.37613 -44.00983 147.56448 -44.77569 152.75149 C-45.14777 155.28678 -45.51299 157.82295 -45.87538 160.35965 C-46.32028 163.47298 -46.77555 166.58486 -47.24364 169.69479 C-49.3324 184.57405 -47.45123 198.17638 -45.14844 212.93359 C-44.77136 215.39695 -44.39427 217.86031 -44.01722 220.32368 C-43.48528 223.78931 -42.94812 227.25413 -42.41111 230.71898 C-41.30848 237.84262 -40.21691 244.96797 -39.12301 252.09296 C-38.71586 254.74336 -38.30794 257.39365 -37.89998 260.04393 C-36.34973 270.1273 -34.83658 280.21528 -33.37891 290.3125 C-33.21802 291.42142 -33.05712 292.53034 -32.89136 293.67287 C-31.71649 301.77726 -31.71649 301.77726 -31.15814 305.75754 C-30.78878 308.39029 -30.40905 311.02136 -30.02734 313.65234 C-29.82617 315.07668 -29.625 316.50101 -29.41772 317.96851 C-28.56388 322.24354 -27.45071 325.97585 -25.625 329.9375 C-24.305 330.5975 -22.985 331.2575 -21.625 331.9375 C-17.26877 328.67033 -17.11399 328.48565 -16.38672 323.51562 C-16.21036 322.37045 -16.034 321.22528 -15.85229 320.04541 C-15.67416 318.7723 -15.49603 317.49919 -15.3125 316.1875 C-15.10794 314.8306 -14.90338 313.4737 -14.69263 312.07568 C-14.11316 308.21043 -13.54945 304.34324 -12.99219 300.47473 C-11.93234 293.15127 -10.83674 285.83297 -9.75 278.51346 C-9.3097 275.54362 -8.87165 272.57345 -8.43359 269.60327 C-5.7379 251.39054 -2.79845 233.21994 0.2011 215.05505 C0.51342 213.1606 0.82387 211.26583 1.13228 209.37073 C1.72974 205.71801 2.34643 202.07809 3.0835 198.45068 C6.53994 181.25508 1.9704 162.8079 -0.5 145.6875 C-0.89567 142.91681 -1.29093 140.14605 -1.68579 137.37524 C-2.53505 131.42617 -3.38882 125.47777 -4.24561 119.52979 C-5.32682 112.02086 -6.39959 104.51077 -7.46862 97.0001 C-8.58491 89.15887 -9.70696 81.31847 -10.83136 73.47839 C-11.31798 70.08469 -11.80268 66.69071 -12.28583 63.29651 C-12.9648 58.52888 -13.65193 53.76244 -14.33984 48.99609 C-14.54159 47.57286 -14.74333 46.14963 -14.95119 44.68327 C-15.2382 42.70815 -15.2382 42.70815 -15.53101 40.69312 C-15.69483 39.55156 -15.85866 38.41001 -16.02745 37.23387 C-17.07023 30.48418 -17.07023 30.48418 -20.625 24.9375 C-21.945 24.9375 -23.265 24.9375 -24.625 24.9375 Z M-166.625 87.9375 C-169.44413 92.8416 -170.35133 97.21424 -171.125 102.79688 C-171.3065 104.07871 -171.3065 104.07871 -171.49167 105.38644 C-171.8801 108.1521 -172.25298 110.91959 -172.625 113.6875 C-172.8876 115.5852 -173.15078 117.48283 -173.41455 119.38037 C-175.36762 133.54319 -177.08374 147.72362 -178.625 161.9375 C-169.385 161.9375 -160.145 161.9375 -150.625 161.9375 C-151.18339 149.47362 -152.46172 137.27543 -154.15405 124.92334 C-154.56561 121.91474 -154.96609 118.9048 -155.36523 115.89453 C-155.62696 113.95043 -155.88931 112.00642 -156.15234 110.0625 C-156.27013 109.17796 -156.38791 108.29342 -156.50926 107.38208 C-157.65011 97.17345 -157.65011 97.17345 -161.625 87.9375 C-163.275 87.9375 -164.925 87.9375 -166.625 87.9375 Z M117.375 87.9375 C113.49125 91.82125 113.61548 94.14794 112.88672 99.55859 C112.76552 100.43648 112.64432 101.31437 112.51945 102.21886 C112.12343 105.12333 111.74775 108.02995 111.375 110.9375 C111.10889 112.96761 110.84277 114.99772 110.57666 117.02783 C109.89527 122.27952 109.23565 127.5337 108.58521 132.78931 C108.18057 136.05592 107.77118 139.32192 107.36133 142.58789 C107.10129 144.67444 106.84151 146.76103 106.58203 148.84766 C106.4602 149.81937 106.33837 150.79109 106.21284 151.79225 C105.58461 156.85011 105.58461 156.85011 105.375 161.9375 C114.615 161.9375 123.855 161.9375 133.375 161.9375 C134.79716 159.09318 134.14227 157.1788 133.69409 154.03833 C133.52028 152.79977 133.34648 151.56121 133.1674 150.28511 C132.97165 148.93934 132.7759 147.59358 132.57422 146.20703 C132.37778 144.82811 132.18135 143.44919 131.97896 142.02849 C131.56072 139.10343 131.13933 136.17883 130.71509 133.25464 C130.06793 128.78746 129.43262 124.31871 128.79883 119.84961 C128.39134 117.01031 127.98316 114.17112 127.57422 111.33203 C127.38454 109.99639 127.19486 108.66074 126.99944 107.28462 C126.81617 106.0303 126.63291 104.77598 126.44409 103.48364 C126.2064 101.83723 126.2064 101.83723 125.96391 100.15755 C124.91494 93.44925 124.91494 93.44925 121.375 87.9375 C120.055 87.9375 118.735 87.9375 117.375 87.9375 Z M-114.625 191.9375 C-112.74437 210.10736 -110.72904 228.23926 -108.0625 246.3125 C-107.86503 247.69429 -107.66756 249.07609 -107.46411 250.49976 C-107.26842 251.78632 -107.07272 253.07289 -106.87109 254.39844 C-106.70279 255.52041 -106.53449 256.64237 -106.36108 257.79834 C-105.55023 261.25635 -104.51991 263.9301 -102.625 266.9375 C-101.305 267.2675 -99.985 267.5975 -98.625 267.9375 C-94.79795 265.22769 -93.72918 263.336 -92.53833 258.78076 C-92.32588 257.15928 -92.11342 255.5378 -91.89453 253.86719 C-91.77317 252.99031 -91.65181 252.11344 -91.52678 251.20999 C-91.14384 248.41308 -90.78991 245.61341 -90.4375 242.8125 C-90.19014 240.95286 -89.94081 239.09348 -89.68945 237.23438 C-89.32525 234.53998 -88.9624 231.84553 -88.60834 229.14978 C-87.80058 223.03358 -86.77634 216.99662 -85.625 210.9375 C-85.0654 204.59537 -85.93776 201.16109 -89.625 195.9375 C-95.36418 191.63312 -98.73681 191.82482 -105.8125 191.875 C-107.45605 191.88402 -109.09961 191.89305 -110.79297 191.90234 C-112.68982 191.91975 -112.68982 191.91975 -114.625 191.9375 Z M44.0625 197.5 C38.88335 204.98099 41.65419 215.37291 42.94922 223.89453 C43.11493 225.00052 43.28064 226.10651 43.45137 227.24602 C43.80284 229.56691 44.15855 231.88716 44.51831 234.20679 C45.06316 237.75427 45.57771 241.30537 46.0918 244.85742 C46.43825 247.12008 46.78649 249.38246 47.13672 251.64453 C47.2859 252.70292 47.43509 253.7613 47.58879 254.85176 C48.53755 260.72052 49.40476 264.15905 54.375 267.9375 C56.90486 267.61363 56.90486 267.61363 59.375 265.9375 C61.42808 258.55361 62.30109 250.94722 63.32031 243.36328 C63.49505 242.08068 63.66979 240.79808 63.84982 239.47661 C64.21639 236.7782 64.58103 234.07953 64.94385 231.38062 C65.49969 227.25228 66.0639 223.12514 66.62891 218.99805 C66.98488 216.36986 67.34036 213.74161 67.69531 211.11328 C67.86403 209.88193 68.03274 208.65058 68.20657 207.38191 C68.36028 206.23019 68.51399 205.07847 68.67236 203.89185 C68.80845 202.88419 68.94454 201.87653 69.08475 200.83833 C69.38359 197.85167 69.42513 194.937 69.375 191.9375 C66.66717 191.85608 63.95863 191.79812 61.25 191.75 C58.9877 191.69779 58.9877 191.69779 56.67969 191.64453 C51.05357 192.02743 47.83485 193.31983 44.0625 197.5 Z " fill="#000000" transform="translate(533.625,336.0625)"/>
</svg>
