<?xml version="1.0" encoding="UTF-8" standalone="no"?>
<!-- Created with CreateLogo.app :) -->

<svg
   version="1.1"
   width="1024"
   height="1024"
   id="svg20"
   sodipodi:docname="logo.svg"
   inkscape:version="1.3.1 (9b9bdc1480, 2023-11-25, custom)"
   xmlns:inkscape="http://www.inkscape.org/namespaces/inkscape"
   xmlns:sodipodi="http://sodipodi.sourceforge.net/DTD/sodipodi-0.dtd"
   xmlns="http://www.w3.org/2000/svg"
   xmlns:svg="http://www.w3.org/2000/svg">
  <defs
     id="defs20" />
  <sodipodi:namedview
     id="namedview20"
     pagecolor="#ffffff"
     bordercolor="#000000"
     borderopacity="0.25"
     inkscape:showpageshadow="2"
     inkscape:pageopacity="0.0"
     inkscape:pagecheckerboard="0"
     inkscape:deskcolor="#d1d1d1"
     showgrid="false"
     inkscape:zoom="0.41471947"
     inkscape:cx="1018.761"
     inkscape:cy="223.04234"
     inkscape:window-width="1920"
     inkscape:window-height="1131"
     inkscape:window-x="0"
     inkscape:window-y="1112"
     inkscape:window-maximized="1"
     inkscape:current-layer="svg20" />
  <path
     d="m 510.88589,103.27488 c 2.40836,-0.0386 4.81675,-0.0772 7.29811,-0.117 48.92178,-0.19687 95.0134,20.85235 130.1813,54.52375 40.86324,42.67938 57.38168,93.84724 56.80533,151.73193 -0.41721,15.89759 -3.02389,30.03215 -8.01476,45.1854 -0.6564,2.09225 -1.31278,4.18448 -1.98906,6.34014 -7.91717,22.78937 -20.52222,43.41498 -37.24376,60.77613 -3.92369,3.98109 -3.92369,3.98109 -7.31274,8.59248 -28.58313,34.22659 -75.06425,51.00581 -117.96173,56.50549 -53.04789,4.53048 -104.37091,-10.19629 -145.47223,-44.51993 -36.53402,-31.9878 -63.8076,-78.03126 -68.17663,-127.00758 -2.78119,-60.69837 14.58133,-108.65368 54.68464,-154.49614 36.09755,-38.17752 85.51187,-57.31236 137.20153,-57.51467 z m -92.66698,92.19896 c -1.22832,1.07629 -2.45665,2.15257 -3.72218,3.26149 -23.42348,21.70957 -36.69783,55.55608 -38.09204,87.08736 -0.64427,38.83304 7.99369,71.1711 34.32598,100.60129 1.31278,1.46722 2.62556,2.93445 3.97813,4.44614 23.64692,24.99818 55.97585,39.09652 90.21721,40.79043 41.97182,0.96286 76.02354,-12.54387 106.58311,-41.14144 27.41177,-28.89042 38.09344,-64.46965 37.54358,-103.54101 -2.24821,-36.00011 -18.20574,-68.05639 -43.62778,-93.37632 -29.31395,-25.78074 -63.12469,-37.32493 -102.18084,-36.27848 -33.08733,2.83774 -60.63835,15.95179 -85.02517,38.15054 z"
     fill="#000000"
     id="path1"
     style="stroke-width:1.87206" />
  <path
     d="m 570.96,212.33701 c 20.3267,17.54515 31.66457,35.58547 38.20905,61.76336 1.81399,31.40308 -2.12449,57.09578 -22.88156,81.68325 -20.07331,21.31396 -44.00088,31.13925 -72.99572,32.62211 -28.7742,-0.44542 -51.31083,-9.49425 -72.067,-29.16318 -17.4174,-18.87381 -25.65871,-41.20011 -27.21799,-66.53858 1.46872,-29.00748 10.77071,-54.74735 32.29304,-74.7654 34.17208,-29.46896 88.35734,-33.74583 124.66018,-5.60156 z m -90.8461,52.05205 c -7.05804,10.90786 -10.87492,21.0036 -9.4773,34.0481 3.38341,14.21034 10.96398,21.65018 22.46472,29.95296 12.03394,6.01697 24.17273,5.01163 36.73918,0.93603 11.4747,-5.68711 18.94297,-14.36531 24.10278,-25.97484 2.11643,-15.34426 0.34814,-26.23671 -8.76799,-38.6478 -8.99876,-9.81158 -19.43962,-14.27521 -32.65135,-15.64194 -13.14588,1.12679 -22.91684,6.23825 -32.41004,15.32749 z"
     fill="#000000"
     id="path4"
     style="stroke-width:1.87206" />
  <path
     d="m 154.25843,356.47102 c 8.55874,4.27937 12.10611,7.2669 16.22366,15.90109 2.98113,10.07149 3.24599,18.78107 3.13453,29.21117 10e-4,3.04345 10e-4,3.04345 0.002,6.14837 -0.004,6.66525 -0.0475,13.32958 -0.0916,19.99465 -0.0105,4.63749 -0.0185,9.275 -0.0241,13.91248 -0.0214,12.17515 -0.0765,24.34994 -0.13875,36.52494 -0.0576,12.43599 -0.0831,24.87203 -0.11141,37.30808 -0.0601,24.3784 -0.15592,48.7565 -0.27422,73.13467 1.4351,0.25685 2.8702,0.51371 4.3488,0.77835 22.62021,4.93664 40.118,24.29382 52.55159,42.67393 14.13042,24.54774 17.979,51.56614 13.02398,79.44555 -8.07418,28.50114 -24.43314,50.44047 -49.33171,66.18025 -3.23014,1.66853 -6.47656,3.30585 -9.73554,4.91736 -1.68333,0.8345 -3.36665,1.66901 -5.101,2.52879 -1.28175,0.63167 -2.56347,1.26334 -3.88406,1.91415 -0.0165,2.67145 -0.0165,2.67145 -0.0333,5.39685 -0.10848,16.80204 -0.24346,33.60355 -0.40797,50.40512 -0.0837,8.63741 -0.15716,17.27466 -0.2073,25.91235 -0.0488,8.33931 -0.12441,16.67799 -0.21856,25.01692 -0.0312,3.17793 -0.0527,6.35598 -0.0644,9.53404 -0.0181,4.45878 -0.0738,8.91736 -0.13108,13.3758 -0.0208,2.53584 -0.0416,5.07167 -0.063,7.68438 -1.3263,12.12355 -6.67875,19.50216 -15.72293,27.41583 -7.81342,2.60447 -14.2619,2.41891 -22.46472,1.87206 -8.18853,-4.17151 -13.67033,-9.17959 -18.7206,-16.84854 -2.12105,-7.77835 -2.0981,-15.28054 -2.0846,-23.31162 1.5e-4,-2.8103 3e-4,-5.6206 4.3e-4,-8.51606 0.01,-3.02287 0.0193,-6.04573 0.0293,-9.1602 0.004,-3.13452 0.006,-6.26906 0.008,-9.40358 0.007,-8.23261 0.0255,-16.46516 0.0463,-24.69775 0.0192,-8.40774 0.0277,-16.81548 0.0371,-25.22322 0.02,-16.48417 0.052,-32.96828 0.0914,-49.45238 -2.0565,-0.26666 -4.11301,-0.53331 -6.23183,-0.80806 C 86.047053,782.72763 67.644159,764.38236 54.337218,746.79555 37.845492,722.8892 33.085311,696.92516 37.25467,668.29335 c 5.573104,-26.88387 19.14773,-49.25411 41.448572,-65.59524 11.405376,-7.38328 23.786768,-12.50849 36.241928,-17.83576 -0.0125,-2.49555 -0.0249,-4.99108 -0.0378,-7.56226 -0.11397,-23.54952 -0.1981,-47.09901 -0.2532,-70.64874 -0.0293,-12.10637 -0.069,-24.21253 -0.13269,-36.31877 -0.0611,-11.68915 -0.0946,-23.37808 -0.10916,-35.0674 -0.0103,-4.45355 -0.0306,-8.90709 -0.0609,-13.36055 -0.0409,-6.25104 -0.0464,-12.50117 -0.0438,-18.75232 -0.0202,-1.82997 -0.0404,-3.65995 -0.0612,-5.54539 0.064,-14.2955 1.51807,-26.8788 11.93113,-37.50879 9.75936,-4.72719 17.42927,-5.53813 28.0809,-3.62711 z M 103.7128,654.12858 c -10.707562,14.0728 -13.318262,27.5176 -11.232356,44.92944 5.076746,16.64701 15.841446,26.85605 30.537976,35.45214 13.09244,3.77241 24.7694,3.9013 37.3242,-1.75506 13.34147,-7.50855 23.40609,-18.84958 27.61289,-33.69708 1.68939,-15.07774 0.1507,-26.18995 -7.48824,-39.31326 -11.16686,-13.90158 -23.69281,-19.36137 -41.30233,-21.52869 -13.21871,1.67856 -25.89695,6.35733 -35.45214,15.91251 z"
     fill="#000000"
     id="path8"
     style="stroke-width:1.87206" />
  <path
     d="m 889.97806,356.47102 c 8.25431,4.12714 11.23669,7.49402 16.84854,14.97648 2.6205,7.86147 2.10062,15.57499 2.05489,23.7737 -0.003,1.77879 -0.005,3.55761 -0.008,5.39032 -0.0105,5.68421 -0.034,11.36829 -0.0578,17.05246 -0.009,3.85259 -0.0179,7.70518 -0.0256,11.55778 -0.0206,9.44689 -0.053,18.89368 -0.0914,28.3405 1.28955,0.37267 2.5791,0.74534 3.90772,1.1293 1.68941,0.49578 3.37881,0.99156 5.1194,1.50237 1.67566,0.48851 3.35132,0.97701 5.07775,1.48031 21.80935,7.10734 39.8755,28.40623 50.46659,47.88887 12.64457,27.02531 14.67006,56.38947 4.69477,84.65954 -5.77224,15.12101 -14.85034,26.06352 -26.20884,37.44121 -1.19694,1.21867 -2.3939,2.43732 -3.62712,3.69293 -10.15108,9.62237 -25.04053,20.64385 -39.43027,20.64385 0.007,1.41584 0.0138,2.83168 0.0209,4.29042 0.16545,34.46822 0.28932,68.93641 0.36707,103.40495 0.0386,16.66882 0.0912,33.33738 0.17693,50.00604 0.0827,16.08317 0.12612,32.16603 0.14555,48.24939 0.0139,6.13914 0.0409,12.27826 0.0813,18.41727 0.0543,8.59216 0.0618,17.18315 0.0584,25.77544 0.0269,2.54366 0.0538,5.08731 0.0816,7.70804 -0.0558,12.74278 -0.24368,21.86748 -8.41993,32.31777 -7.20621,5.95296 -13.06168,9.17592 -22.46472,9.3603 -10.2148,-2.23885 -15.46187,-4.05617 -22.46472,-11.93438 -5.18911,-9.40525 -5.85051,-16.94643 -5.84129,-27.57738 -0.003,-2.29688 -0.005,-4.59375 -0.008,-6.96024 0.0101,-3.75689 0.0101,-3.75689 0.0204,-7.58967 -2.7e-4,-2.64897 -5.5e-4,-5.29793 -8.3e-4,-8.02717 10e-4,-8.76188 0.0159,-17.52368 0.0305,-26.28556 0.004,-6.07257 0.006,-12.14514 0.008,-18.21771 0.006,-14.35383 0.0212,-28.70763 0.04,-43.06144 0.0209,-16.34365 0.0312,-32.6873 0.0406,-49.03094 0.0196,-33.61507 0.0525,-67.2301 0.0942,-100.84513 -1.75983,-0.26666 -3.51966,-0.53331 -5.33281,-0.80806 -21.68875,-3.91163 -40.14378,-24.07681 -52.46705,-41.07929 -15.49788,-23.41112 -20.3842,-48.29681 -15.86863,-76.01588 6.45401,-28.82233 20.33335,-52.84869 45.60953,-69.20772 4.92153,-2.71374 9.86027,-5.21369 14.95454,-7.58331 2.47112,-1.23556 4.94224,-2.47112 7.48824,-3.74412 1.85334,0 3.70668,0 5.61618,0 -0.0294,-3.38474 -0.0294,-3.38474 -0.0594,-6.83787 -0.068,-8.4117 -0.11084,-16.82341 -0.14624,-25.23533 -0.0188,-3.63326 -0.0443,-7.26647 -0.0768,-10.89962 -0.0457,-5.23737 -0.0667,-10.47434 -0.0832,-15.71188 -0.0193,-1.61127 -0.0387,-3.22255 -0.0586,-4.88265 -0.002,-9.40093 0.8033,-17.48336 4.16831,-26.29153 11.63446,-11.14969 19.79385,-12.8589 35.56914,-11.23236 z m -44.81244,164.85829 c -9.96574,12.81309 -15.07053,26.56259 -13.22142,42.94038 3.24754,14.41099 9.43239,24.23923 20.59266,33.69708 14.3907,8.60667 27.99301,9.33108 44.22742,5.38218 14.381,-6.16329 22.53187,-14.46639 28.88531,-28.51968 5.26258,-14.70046 4.30615,-28.19785 -1.97444,-42.3846 -7.27661,-11.46616 -19.69153,-20.38616 -32.98044,-23.67864 -17.4667,-2.57706 -31.68603,1.79646 -45.52909,12.56328 z"
     fill="#000000"
     id="path9"
     style="stroke-width:1.87206" />
  <path
     d="m 304.02324,444.45784 c 10.49926,6.29956 13.33188,12.84673 16.84854,24.33678 0.5156,6.51288 0.76786,12.67995 0.72576,19.18358 0.0101,1.88283 0.0202,3.76563 0.0306,5.70552 0.0267,6.28303 0.0134,12.5653 1e-4,18.84837 0.0107,4.51507 0.0237,9.03012 0.0389,13.54518 0.0336,12.24555 0.0314,24.49085 0.0207,36.73644 -0.006,10.22595 0.006,20.45187 0.0169,30.67781 0.0263,24.12288 0.0234,48.24563 0.002,72.36851 -0.0215,24.88372 0.005,49.76705 0.055,74.65072 0.0415,21.37129 0.0539,42.74245 0.0429,64.11377 -0.006,12.76126 -0.002,25.52228 0.0304,38.2835 0.0289,11.99777 0.0216,23.99496 -0.0137,35.9927 -0.007,4.40117 -0.001,8.80239 0.0185,13.20352 0.0247,6.01185 0.003,12.02183 -0.0299,18.0336 0.018,1.73804 0.036,3.47608 0.0545,5.2668 -0.12909,11.4172 -2.56908,19.15834 -8.48101,28.89326 -8.97969,8.33829 -14.64885,10.06178 -27.07175,9.86488 -7.20545,-0.76489 -10.76524,-3.02102 -15.98563,-7.99282 -6.99614,-11.51611 -8.56193,-21.10748 -8.42654,-34.31481 -0.0155,-2.84914 -0.0155,-2.84914 -0.0314,-5.75583 -0.0254,-6.33938 0.003,-12.67737 0.0305,-19.01671 -0.007,-4.555 -0.0174,-9.10999 -0.0306,-13.66497 -0.0261,-12.35382 -0.005,-24.70715 0.0257,-37.06095 0.0259,-12.93105 0.0138,-25.86206 0.007,-38.79313 -0.005,-21.71273 0.0202,-43.4253 0.0636,-65.138 0.0498,-25.10275 0.0531,-50.2052 0.0311,-75.308 -0.0202,-24.15141 -0.009,-48.30268 0.0179,-72.45408 0.0108,-10.27738 0.0106,-20.55467 0.002,-30.83206 -0.009,-12.10066 0.01,-24.20094 0.0505,-36.30153 0.0104,-4.44118 0.0113,-8.88242 0.002,-13.32362 -0.0111,-6.06141 0.0123,-12.12178 0.0445,-18.1831 -0.0113,-1.75807 -0.0225,-3.51614 -0.0341,-5.32749 0.0989,-10.23268 1.45195,-17.87175 6.37603,-26.87754 11.41874,-10.94298 20.13048,-12.79912 35.56914,-9.3603 z"
     fill="#000000"
     id="path13"
     style="stroke-width:1.87206" />
  <path
     d="m 748.28651,447.73395 c 7.56614,6.33443 10.14039,11.54458 12.5194,21.06067 0.18217,6.0883 0.26039,12.13627 0.25032,18.22462 0.004,1.8701 0.008,3.74019 0.0129,5.66695 0.0119,6.28458 0.0103,12.56907 0.009,18.85365 0.006,4.49856 0.012,8.9971 0.0191,13.49566 0.0166,12.2342 0.0209,24.46837 0.0221,36.70257 0.002,10.20712 0.009,20.41425 0.0153,30.6214 0.0153,24.07956 0.0198,48.1591 0.0185,72.23866 -10e-4,24.85158 0.0186,49.70308 0.0482,74.55465 0.0245,21.32497 0.0345,42.64992 0.0333,63.97492 -4.8e-4,12.74137 0.005,25.48267 0.0247,38.22402 0.0181,11.98368 0.0183,23.96722 0.005,35.95089 -0.002,4.39893 0.002,8.79788 0.0138,13.19681 0.0144,6.0042 0.006,12.00796 -0.009,18.01216 0.01,1.74131 0.0193,3.48265 0.0292,5.27674 -0.0507,9.54194 -0.74862,17.84253 -4.23614,26.76546 -10.66787,10.28688 -15.9276,13.78856 -30.80855,13.63826 -6.92329,-0.77635 -10.81976,-3.47977 -15.99295,-8.02208 -8.23263,-10.97684 -7.7663,-20.29851 -7.76375,-33.47279 -0.007,-1.89936 -0.0138,-3.79869 -0.0209,-5.75561 -0.0207,-6.38367 -0.0279,-12.76728 -0.035,-19.15099 -0.0117,-4.56929 -0.0242,-9.13857 -0.0373,-13.70786 -0.0326,-12.42771 -0.0524,-24.8554 -0.0678,-37.28313 -0.01,-7.76208 -0.021,-15.52419 -0.0328,-23.28627 -0.0357,-24.27933 -0.0623,-48.55864 -0.0779,-72.83797 -0.0183,-28.03904 -0.0676,-56.07782 -0.14321,-84.11677 -0.0564,-21.66522 -0.0842,-43.33037 -0.0904,-64.99568 -0.004,-12.94347 -0.0212,-25.88665 -0.0683,-38.83003 -0.0435,-12.17584 -0.0515,-24.3512 -0.0323,-36.5271 9.2e-4,-4.46759 -0.011,-8.93523 -0.0366,-13.40275 -0.0331,-6.10235 -0.0199,-12.20295 0.005,-18.30532 -0.0205,-1.765 -0.0411,-3.53001 -0.0622,-5.3485 0.11188,-11.48312 2.47655,-19.29708 8.46357,-29.07517 11.81068,-9.15327 24.96544,-9.24011 38.02622,-2.34007 z"
     fill="#000000"
     id="path14"
     style="stroke-width:1.87206" />
  <path
     d="m 450.04393,506.23583 c 9.14462,4.40295 13.77952,9.93646 18.7206,18.7206 2.00597,8.02385 2.08398,14.6955 2.05489,22.96198 -0.009,4.52477 -0.009,4.52477 -0.0183,9.14093 -0.0156,3.18347 -0.0315,6.36695 -0.0475,9.55043 -0.009,3.21271 -0.0179,6.42545 -0.0256,9.63819 -0.0221,7.86368 -0.0529,15.72725 -0.0914,23.59087 1.75139,0.57179 3.50276,1.14355 5.30722,1.73267 28.27251,9.5979 47.42379,29.08654 60.67558,55.29935 11.41979,25.80957 10.76294,52.90911 1.93788,79.32124 -10.56109,26.08074 -31.02234,46.87545 -56.68832,58.341 -3.73414,0.68115 -7.478,1.31293 -11.23236,1.87206 0.0187,2.45412 0.0187,2.45412 0.0378,4.95783 0.11273,15.45112 0.19814,30.90214 0.2532,46.3536 0.0292,7.94294 0.0689,15.88555 0.13269,23.82829 0.0729,9.14043 0.1,18.2807 0.12477,27.42139 0.029,2.83975 0.058,5.67948 0.0878,8.60528 4.3e-4,2.66011 8.4e-4,5.32019 0.001,8.06089 0.0187,3.49822 0.0187,3.49822 0.0378,7.0671 -1.09437,10.73022 -4.16961,17.73429 -12.02473,25.10848 -9.11312,6.59246 -16.87601,7.09354 -27.9639,5.85019 -8.16166,-4.15504 -11.2774,-7.5483 -16.84854,-14.97648 -1.81493,-7.25966 -2.16395,-13.0875 -2.25643,-20.53965 -0.056,-3.99078 -0.056,-3.99078 -0.11315,-8.06217 -0.0313,-2.86873 -0.0626,-5.73747 -0.0948,-8.69314 -0.0389,-2.9396 -0.0778,-5.87922 -0.11788,-8.90793 -0.10171,-7.80477 -0.19577,-15.60956 -0.28615,-23.41446 -0.0941,-7.9685 -0.19831,-15.93685 -0.30164,-23.90522 -0.20061,-15.6272 -0.39113,-31.25451 -0.57405,-46.88194 -1.77522,-0.85368 -3.55042,-1.70734 -5.37944,-2.58689 -2.34171,-1.14445 -4.68341,-2.28891 -7.09608,-3.46807 -2.31578,-1.12394 -4.63156,-2.24789 -7.0175,-3.40589 -23.84778,-12.93824 -40.63381,-36.49508 -49.77321,-61.67744 -7.29038,-26.9039 -2.37096,-57.22659 10.98373,-81.1421 15.40425,-24.21523 32.99834,-37.27049 60.15456,-46.15799 -0.0392,-2.20959 -0.0784,-4.41918 -0.11884,-6.69572 -0.1279,-8.22697 -0.22163,-16.4529 -0.29251,-24.68047 -0.0376,-3.55538 -0.0886,-7.11065 -0.15357,-10.66563 -0.0912,-5.12134 -0.1334,-10.24115 -0.16635,-15.36314 -0.0392,-3.07834 -0.0784,-6.15668 -0.11883,-9.32831 1.15807,-11.10137 5.13391,-16.48225 13.2525,-23.82764 8.56973,-4.12617 15.68883,-4.53442 25.0388,-3.04209 z m -44.81244,160.88016 c -8.35049,12.39922 -11.66273,22.5582 -11.34936,37.55821 3.73723,16.48774 11.03974,27.46844 24.33678,37.4412 11.32504,5.65293 23.23726,5.32924 35.56914,3.74412 8.46242,-2.90017 8.46242,-2.90017 14.97648,-7.48824 1.66029,-1.04249 3.32057,-2.085 5.03116,-3.1591 10.32133,-10.32132 14.74416,-22.20117 16.14652,-36.50517 -1.16687,-14.23588 -6.94747,-27.28799 -17.43356,-37.09019 -21.9113,-15.46921 -48.34209,-13.43589 -67.27716,5.49917 z"
     fill="#000000"
     id="path16"
     style="stroke-width:1.87206" />
  <path
     d="m 603.20185,509.04392 c 7.49146,5.87564 9.80902,10.88019 13.45543,19.65663 0.94232,8.08687 0.94232,8.08687 0.95088,16.98039 0.0175,2.46876 0.0175,2.46876 0.0354,4.98737 0.0297,5.48132 0.006,10.96106 -0.0173,16.44238 0.0102,3.94331 0.0235,7.88662 0.0398,11.82992 0.0341,10.68694 0.0209,21.37333 -0.003,32.06029 -0.019,11.19372 -10e-4,22.3874 0.0104,33.58113 0.0136,18.79647 -0.004,37.59274 -0.04,56.38918 -0.0407,21.71908 -0.0275,43.43762 0.0137,65.15668 0.034,18.66062 0.0388,37.32107 0.0192,55.98171 -0.0117,11.13947 -0.0133,22.27868 0.0115,33.41813 0.0217,10.47356 0.007,20.94644 -0.0367,31.41994 -0.01,3.83966 -0.007,7.67938 0.009,11.51903 0.0205,5.24956 -0.005,10.49696 -0.0425,15.74639 -0.003,2.93485 -0.006,5.86971 -0.009,8.89352 -1.33101,11.42264 -4.92005,19.95176 -13.57872,27.6265 -9.91821,4.76838 -17.48353,5.87029 -28.08091,2.69108 -9.41623,-5.43244 -14.07491,-11.97821 -17.31655,-22.23071 -0.34955,-5.4304 -0.48093,-10.876 -0.48805,-16.31763 -0.007,-1.64236 -0.0143,-3.28469 -0.0217,-4.97683 -0.0193,-5.50272 -0.0119,-11.00508 -0.004,-16.50781 -0.008,-3.94552 -0.0178,-7.89103 -0.029,-11.83655 -0.0251,-10.71795 -0.0261,-21.43578 -0.0214,-32.15374 0.002,-8.94637 -0.007,-17.8927 -0.0161,-26.83905 -0.0208,-21.10609 -0.0216,-42.21211 -0.0103,-63.31822 0.0113,-21.77526 -0.0118,-43.5503 -0.0516,-65.32552 -0.033,-18.69381 -0.0442,-37.38757 -0.0381,-56.08144 0.003,-11.16562 -0.002,-22.33107 -0.0275,-33.49666 -0.0235,-10.50102 -0.0199,-21.00167 0.005,-31.50267 0.004,-3.85255 -7.1e-4,-7.7051 -0.0161,-11.55761 -0.0196,-5.26246 -0.004,-10.52373 0.0193,-15.78613 -3.2e-4,-2.94389 -6.4e-4,-5.88778 -9.6e-4,-8.92087 0.93721,-10.51701 3.27433,-18.08541 10.99785,-25.42277 10.84537,-7.04948 22.43288,-6.76805 34.2821,-2.10606 z"
     fill="#000000"
     id="path17"
     style="stroke-width:1.87206" />
</svg>
