<?xml version="1.0" encoding="UTF-8"?>
<!-- Created with CreateLogo.app :) -->
<svg version="1.1" xmlns="http://www.w3.org/2000/svg" width="1024" height="1024">
<path d="M0 0 C1.19053 -0.00446 2.38107 -0.00892 3.60768 -0.01351 C5.55633 -0.01323 5.55633 -0.01323 7.54436 -0.01295 C9.62491 -0.01846 9.62491 -0.01846 11.74749 -0.02409 C16.40631 -0.03513 21.06511 -0.03897 25.72394 -0.04278 C29.06005 -0.04905 32.39616 -0.05568 35.73227 -0.06269 C45.75143 -0.08244 55.77059 -0.09252 65.78977 -0.10142 C70.51229 -0.10581 75.23482 -0.11117 79.95734 -0.11641 C95.66367 -0.13342 111.37 -0.14791 127.07633 -0.15516 C131.15011 -0.15707 135.22389 -0.15899 139.29767 -0.16094 C140.31014 -0.16143 141.32261 -0.16191 142.36577 -0.16241 C158.75763 -0.17071 175.14942 -0.19604 191.54125 -0.22853 C208.38435 -0.26164 225.22741 -0.27961 242.07055 -0.2828 C251.52165 -0.28496 260.97265 -0.29366 270.42372 -0.31926 C278.4747 -0.34103 286.52554 -0.349 294.57655 -0.3393 C298.67973 -0.33477 302.78258 -0.33876 306.88574 -0.35606 C311.34704 -0.37381 315.80766 -0.36666 320.26897 -0.35353 C321.548 -0.3645 322.82702 -0.37546 324.14481 -0.38677 C344.55757 -0.24248 361.06551 7.62531 375.66559 21.44672 C387.72404 33.94557 392.15423 50.64339 392.09834 67.70133 C392.0992 68.65792 392.10005 69.61452 392.10093 70.6001 C392.10258 73.80143 392.09708 77.00272 392.09161 80.20405 C392.09133 82.50047 392.09149 84.79689 392.09206 87.09331 C392.09234 93.32624 392.08646 99.55914 392.07948 105.79206 C392.07324 112.30635 392.07264 118.82064 392.07146 125.33494 C392.06835 137.67012 392.06014 150.0053 392.05011 162.34048 C392.03893 176.38388 392.03343 190.42728 392.02841 204.47069 C392.01796 233.35854 392.00037 262.24638 391.97809 291.13422 C396.32787 289.06637 398.98144 287.36124 401.97809 283.57172 C405.09146 279.95221 407.05282 277.73731 411.97809 277.13422 C417.56736 277.13422 420.29852 277.6596 424.91559 280.88422 C429.17151 285.40071 429.83326 287.42035 430.35309 293.57172 C429.69722 301.5515 424.83629 305.75927 419.0445 310.82563 C410.57915 317.81218 402.88976 321.0191 391.97809 322.13422 C391.98085 323.06261 391.98362 323.99099 391.98647 324.94751 C392.05288 347.59363 392.10244 370.23974 392.13353 392.88594 C392.14896 403.83771 392.16998 414.78942 392.20441 425.74115 C392.23442 435.2927 392.25369 444.84419 392.26035 454.39577 C392.26425 459.4478 392.27332 464.4997 392.29528 469.55169 C392.31583 474.31885 392.32189 479.08583 392.31741 483.85303 C392.31823 485.59111 392.32408 487.32919 392.33571 489.06723 C392.4399 505.46999 391.29509 522.84077 381.89337 536.80439 C381.34873 537.61513 380.80408 538.42588 380.24294 539.26119 C379.82554 539.87929 379.40814 540.49739 378.97809 541.13422 C380.03774 541.13565 381.09739 541.13707 382.18915 541.13854 C392.19386 541.1564 402.19812 541.19809 412.20261 541.26631 C417.34561 541.30055 422.4883 541.32569 427.63141 541.32978 C432.59837 541.33407 437.56467 541.36259 442.53142 541.40765 C444.42271 541.4206 446.31407 541.42494 448.2054 541.42037 C450.86278 541.41545 453.51822 541.44163 456.17535 541.4748 C457.68537 541.48146 459.19539 541.48812 460.75116 541.49498 C465.88611 542.27154 468.86031 544.01402 472.97809 547.13422 C475.35909 551.89623 475.78198 555.93351 474.97809 561.13422 C472.22299 565.54237 469.92023 567.69432 464.97809 569.13422 C461.60621 569.32435 458.31807 569.40601 454.94672 569.39149 C453.92297 569.395 452.89922 569.3985 451.84445 569.40211 C448.39192 569.41147 444.93955 569.4065 441.48702 569.40165 C438.9956 569.40538 436.50418 569.40998 434.01276 569.41538 C427.14908 569.42765 420.28544 569.42734 413.42175 569.42499 C406.02628 569.42458 398.63083 569.43561 391.23537 569.4451 C376.74048 569.46174 362.2456 569.46724 347.7507 569.46833 C335.9736 569.46925 324.1965 569.47336 312.4194 569.47973 C309.03152 569.48152 305.64364 569.4833 302.25576 569.48508 C301.41357 569.48552 300.57138 569.48596 299.70367 569.48642 C276.01006 569.49873 252.31646 569.50662 228.62284 569.50573 C227.72928 569.5057 226.83571 569.50567 225.91507 569.50564 C221.38591 569.50547 216.85676 569.50527 212.3276 569.50507 C211.42807 569.50503 210.52853 569.50499 209.60174 569.50495 C207.78265 569.50487 205.96357 569.50478 204.14449 569.5047 C175.83388 569.50347 147.52331 569.51849 119.21271 569.54584 C87.42019 569.57654 55.62771 569.59378 23.83517 569.59192 C20.44698 569.59177 17.05879 569.59167 13.67059 569.59161 C12.83631 569.59158 12.00202 569.59156 11.14245 569.59154 C-1.46572 569.59148 -14.07386 569.60213 -26.68202 569.61827 C-41.01638 569.63644 -55.35066 569.64087 -69.68502 569.62725 C-77.00314 569.6207 -84.32111 569.62069 -91.63922 569.63796 C-98.33241 569.65359 -105.02532 569.65093 -111.7185 569.63339 C-114.14577 569.6303 -116.57305 569.63403 -119.00029 569.64511 C-122.28876 569.65913 -125.57626 569.64873 -128.8647 569.632 C-129.81653 569.64194 -130.76837 569.65187 -131.74904 569.66211 C-137.37971 569.60117 -140.74504 568.85185 -145.02191 565.13422 C-148.40719 560.62051 -149.02191 558.70947 -149.02191 553.13422 C-146.8923 548.54225 -145.36545 545.86074 -140.87175 543.43078 C-136.5161 541.96387 -133.01749 541.73597 -128.4245 541.70185 C-127.59442 541.69166 -126.76435 541.68146 -125.90912 541.67096 C-123.18753 541.64097 -120.4663 541.63159 -117.74457 541.6225 C-115.84884 541.60565 -113.95312 541.58749 -112.05742 541.5681 C-107.08448 541.5207 -102.11158 541.49083 -97.13849 541.46467 C-92.05722 541.43481 -86.97611 541.3883 -81.89496 541.34321 C-71.93735 541.25728 -61.97973 541.18989 -52.02191 541.13422 C-52.50701 540.3857 -52.99211 539.63719 -53.49191 538.86599 C-54.12588 537.88047 -54.75985 536.89496 -55.41302 535.87958 C-56.0425 534.90419 -56.67197 533.9288 -57.32053 532.92385 C-59.30857 529.66421 -60.68668 526.4399 -61.89691 522.82172 C-62.48086 521.12596 -62.48086 521.12596 -63.0766 519.39594 C-64.75158 513.61656 -65.14616 508.2478 -65.14217 502.23752 C-65.14423 499.83974 -65.14423 499.83974 -65.14633 497.39351 C-65.14279 495.63016 -65.13916 493.86681 -65.13544 492.10346 C-65.13515 490.24053 -65.13531 488.3776 -65.13588 486.51467 C-65.13617 481.46352 -65.13029 476.4124 -65.1233 471.36126 C-65.11705 466.08017 -65.11647 460.79907 -65.11528 455.51798 C-65.11217 445.52025 -65.10397 435.52252 -65.09393 425.5248 C-65.08275 414.14156 -65.07725 402.75833 -65.07223 391.37509 C-65.06178 367.96146 -65.04419 344.54784 -65.02191 321.13422 C-66.01191 321.46422 -67.00191 321.79422 -68.02191 322.13422 C-81.86124 320.00509 -93.67246 312.3347 -102.02191 301.13422 C-104.59814 295.98177 -104.24374 291.70882 -103.02191 286.13422 C-100.4031 282.29735 -98.31588 279.82434 -94.20941 277.63422 C-88.96699 276.81188 -84.35517 276.64652 -79.73675 279.59125 C-76.07177 282.6443 -73.18218 285.3481 -72.02191 290.13422 C-69.71191 290.46422 -67.40191 290.79422 -65.02191 291.13422 C-65.0256 289.93177 -65.02929 288.72931 -65.03308 287.49042 C-65.12199 258.19353 -65.18767 228.89666 -65.22916 199.59967 C-65.24976 185.43169 -65.27783 171.26381 -65.32367 157.09589 C-65.36361 144.74304 -65.38936 132.39024 -65.39826 120.03733 C-65.40347 113.50027 -65.41564 106.9634 -65.44483 100.42641 C-65.47212 94.26473 -65.48033 88.10331 -65.47434 81.94158 C-65.47544 79.68867 -65.48331 77.43575 -65.49873 75.1829 C-65.6336 54.45694 -62.97777 35.66901 -48.02191 20.13422 C-34.36755 8.05261 -18.49439 0.03226 0 0 Z M138.97809 66.13422 C133.89812 74.89717 132.16826 83.76406 134.62653 93.77485 C137.62249 101.09831 142.33293 106.54712 149.04059 110.57172 C152.54762 111.9634 155.24595 112.82321 158.97809 113.13422 C160.17434 113.23735 161.37059 113.34047 162.60309 113.44672 C170.12058 112.90976 178.72276 110.85325 183.97809 105.13422 C190.87555 96.04764 192.81932 88.53288 191.97809 77.13422 C190.2675 69.49358 185.67444 64.29284 179.97809 59.13422 C166.32001 50.57244 149.39787 54.39891 138.97809 66.13422 Z M-2.02191 73.13422 C-6.23879 77.53444 -7.85179 80.23451 -8.39691 86.32172 C-7.95036 92.05249 -6.62371 94.68945 -3.02191 99.13422 C1.69226 101.9278 5.53912 102.72756 10.97809 102.13422 C16.11749 100.28404 18.78471 97.51372 21.97809 93.13422 C23.2958 89.18108 23.34042 86.30097 22.97809 82.13422 C20.40224 77.19718 18.45005 74.48819 13.97809 71.13422 C7.65645 69.85157 3.57018 69.80048 -2.02191 73.13422 Z M66.97809 74.13422 C62.79087 78.7509 61.97809 82.95983 61.97809 89.13422 C63.96397 94.40444 65.95254 98.40294 70.97809 101.13422 C76.84426 102.35317 79.70171 102.59007 85.35309 100.57172 C89.29785 97.91921 91.07944 96.48528 92.97809 92.13422 C93.74091 86.80243 93.6825 82.56913 91.29059 77.69672 C87.46922 73.46223 85.36585 71.45602 79.66559 70.13422 C74.18869 70.13422 71.52588 71.12805 66.97809 74.13422 Z M297.60309 78.25922 C292.40371 83.27968 289.81466 89.0346 289.54059 96.25922 C290.27341 104.42496 293.13499 109.39933 298.97809 115.13422 C305.58422 118.97958 311.36504 120.34588 318.97809 119.13422 C326.6188 116.74512 330.87245 112.90852 334.97809 106.13422 C337.95106 98.43154 337.59153 92.0681 334.38043 84.57172 C331.56139 79.67177 327.37584 76.45299 322.47809 73.75922 C313.01841 71.3943 305.3487 72.06849 297.60309 78.25922 Z M125.97809 154.13422 C125.17307 154.3756 124.36805 154.61697 123.53864 154.86567 C98.05309 162.64042 76.87387 176.57707 57.97809 195.13422 C57.19821 195.86383 56.41832 196.59344 55.61481 197.34516 C31.61756 220.14014 18.07733 252.76437 13.97809 285.13422 C14.30809 286.12422 14.63809 287.11422 14.97809 288.13422 C15.76313 287.51934 16.54817 286.90446 17.357 286.27094 C27.32581 278.60168 35.16538 274.38053 47.97809 275.13422 C57.39742 276.72622 63.90835 282.04114 71.41559 287.61469 C74.523 290.32669 74.523 290.32669 76.97809 290.13422 C77.20883 288.91348 77.43957 287.69274 77.67731 286.435 C82.73934 260.51752 93.44813 239.29571 115.85309 224.19672 C138.11073 210.46328 163.84307 208.28887 188.97809 214.13422 C193.17003 215.48523 197.04667 217.15725 200.97809 219.13422 C201.89848 219.57637 202.81887 220.01852 203.76715 220.47406 C223.12718 230.31768 237.17847 247.25281 243.95075 267.77485 C244.28977 268.88344 244.62879 269.99203 244.97809 271.13422 C245.28618 272.13969 245.59426 273.14516 245.91168 274.1811 C247.44123 279.47963 248.45847 284.62629 248.97809 290.13422 C252.92955 288.77744 255.53489 287.00182 258.66559 284.25922 C268.56205 276.26648 277.32296 275.06628 289.97809 276.13422 C296.15912 277.63533 300.63364 280.77567 305.68121 284.51313 C308.16796 286.35447 308.16796 286.35447 311.97809 288.13422 C307.19809 246.3721 288.36661 210.42034 255.74469 183.27582 C219.90851 154.98079 170.84023 140.34931 125.97809 154.13422 Z M119.45465 257.185 C108.03035 270.78965 103.7403 287.61342 104.97809 305.13422 C107.7257 321.5414 114.33481 334.95059 127.71637 345.23969 C142.43991 355.00679 158.45573 358.22074 175.85309 355.07172 C191.74511 351.28707 203.75112 342.75499 212.91559 329.32172 C221.51563 314.94208 223.19753 299.64039 220.28278 283.21625 C217.19588 272.36024 211.74987 263.23414 203.97809 255.13422 C202.96746 253.9586 201.95684 252.78297 200.91559 251.57172 C191.21537 241.95968 176.74893 238.2565 163.54059 237.82172 C145.83549 238.00987 131.54616 244.414 119.45465 257.185 Z M26.97809 314.13422 C23.57002 317.04657 20.99385 319.12634 16.97809 321.13422 C17.51575 327.87879 18.85884 333.80238 21.04059 340.19672 C21.35077 341.11139 21.66095 342.02606 21.98053 342.96845 C29.59118 364.746 42.33848 383.38128 57.97809 400.13422 C58.67676 400.88703 59.37543 401.63985 60.09528 402.41547 C79.56196 422.66653 105.68641 436.26394 132.97809 442.13422 C134.40895 442.48227 134.40895 442.48227 135.86871 442.83735 C171.43992 450.66749 211.67032 441.32914 241.97809 422.13422 C261.65507 409.24165 277.52874 393.0489 289.97809 373.13422 C290.60457 372.17129 291.23106 371.20836 291.87653 370.21625 C299.9583 357.2525 309.97809 336.57399 309.97809 321.13422 C308.86434 320.82485 307.75059 320.51547 306.60309 320.19672 C300.61925 317.98991 296.55186 313.42165 291.97809 309.13422 C288.12667 305.9116 286.5258 305.19508 281.47809 304.63422 C275.79233 305.26597 273.28327 307.05134 269.11481 310.81781 C263.61006 315.78812 258.53907 319.6131 250.97418 320.72016 C246.66843 321.7677 246.66843 321.7677 244.76325 325.81 C244.19477 327.34012 243.62629 328.87024 243.04059 330.44672 C239.68964 338.87489 235.56508 345.93932 229.97809 353.13422 C229.11764 354.26924 229.11764 354.26924 228.23981 355.42719 C215.50612 371.13917 192.74685 381.04553 172.97809 383.13422 C147.92502 384.20557 124.40731 379.70394 105.0445 362.53266 C93.82551 351.72468 85.79421 338.95734 80.59528 324.21235 C79.31145 320.91894 79.31145 320.91894 76.37653 320.22406 C75.37879 320.17379 74.38106 320.12352 73.35309 320.07172 C63.29662 318.9328 57.2795 312.66706 49.97809 306.13422 C40.24847 301.26941 33.70907 307.81664 26.97809 314.13422 Z M-4.27191 477.57172 C-8.01059 483.04622 -8.81248 487.63953 -8.02191 494.13422 C-6.24023 498.55279 -4.6459 500.64751 -0.89691 503.57172 C5.065 505.97572 10.17009 506.12222 16.35309 503.94672 C21.17943 500.61425 23.74047 496.87226 24.97809 491.13422 C24.79456 485.26134 23.70185 481.68549 19.97809 477.13422 C16.03606 473.57678 13.52705 472.23579 8.16559 471.88422 C2.5922 472.21696 -0.48039 473.46424 -4.27191 477.57172 Z M305.97809 476.13422 C301.50391 481.75562 300.55183 485.99434 300.97809 493.13422 C302.96489 498.7635 306.62585 502.4581 311.97809 505.13422 C320.44796 505.62695 320.44796 505.62695 327.97809 502.13422 C331.9974 497.84695 333.84045 495.23326 334.22809 489.32172 C333.84235 482.86065 332.14529 480.21951 327.41559 475.82172 C320.13491 470.12956 313.68048 471.25604 305.97809 476.13422 Z " fill="#000000" transform="translate(347.02191066741943,235.86577892303467)"/>
<path d="M0 0 C4.11254 2.71583 6.92332 5.09513 8 10 C7.79666 14.88017 6.38622 17.51703 3 21 C-1.33742 23.16871 -3.24515 23.57386 -8 23 C-13.4 19.2 -13.4 19.2 -15 16 C-15.58145 7.976 -15.58145 7.976 -13.25 4.0625 C-9.02702 0.19144 -5.56895 -0.67211 0 0 Z " fill="#000000" transform="translate(514,308)"/>
<path d="M0 0 C3.26898 2.68783 4.47389 4.29668 5.8125 8.3125 C6.55655 16.91795 4.46603 22.44541 0.75 30.125 C-27.59269 91.77058 -27.32134 167.23905 -4.25 230.5625 C-2.15055 236.07007 0.21831 241.39925 2.6875 246.75 C5.33116 252.73488 6.9632 256.82672 5.8125 263.3125 C3.57661 267.62458 1.75353 269.35673 -2.1875 272.3125 C-7.06141 273.35691 -9.96552 273.91196 -14.5 271.6875 C-40.67504 248.55607 -47.36507 194.10976 -49.58984 160.76172 C-50.19129 150.28549 -50.39049 139.80359 -50.1875 129.3125 C-50.17493 128.39968 -50.16236 127.48687 -50.14941 126.54639 C-49.54445 88.37786 -41.9346 52.13357 -26.5 17.1875 C-26.15614 16.40109 -25.81229 15.61468 -25.45801 14.80444 C-22.45196 8.25272 -19.01501 1.97871 -12.6875 -1.75 C-7.47609 -3.14591 -4.72595 -2.50198 0 0 Z " fill="#000000" transform="translate(243.1875,392.6875)"/>
<path d="M0 0 C6.18953 3.99378 8.5447 9.26472 11.5 15.75 C11.97848 16.77916 12.45697 17.80831 12.94995 18.86865 C16.85868 27.40875 20.20672 36.02865 23 45 C23.24557 45.76893 23.49113 46.53785 23.74414 47.33008 C27.09883 57.9207 29.67923 68.58593 31.75 79.5 C31.9486 80.5298 32.14719 81.5596 32.35181 82.62061 C35.5433 100.31531 36.38283 118.06005 36.3125 136 C36.31068 136.9749 36.30885 137.94981 36.30698 138.95425 C36.25538 155.44398 35.50055 171.67751 33 188 C32.83371 189.09184 32.66742 190.18367 32.49609 191.30859 C21.83162 258.37629 21.83162 258.37629 1.5 273.625 C-2.21804 275.08566 -4.08067 275.71988 -8 275 C-12.27414 272.83104 -15.24633 271.0834 -18 267.125 C-20.15291 260.39716 -18.73208 255.56391 -15.9375 249.25 C-15.29813 247.7534 -14.65875 246.2568 -14 244.71484 C-13.50113 243.54865 -13.50113 243.54865 -12.99219 242.35889 C-1.19707 214.31647 6.02952 184.16302 6.23828 153.67188 C6.24817 152.49746 6.25805 151.32304 6.26823 150.11304 C6.55919 106.5902 2.68356 67.5584 -15.61328 27.46484 C-18.55512 20.90992 -19.87804 16.21943 -19 9 C-14.67823 0.51082 -9.0997 -1.90143 0 0 Z " fill="#000000" transform="translate(791,391)"/>
<path d="M0 0 C6.09438 4.97173 10.40798 11.59126 11.75 19.375 C12.68152 28.92305 10.66388 36.07883 4.5 43.625 C-1.03283 49.54713 -7.19571 53.17287 -15.25 54.375 C-24.66206 54.48672 -32.57496 52.1871 -39.5625 45.625 C-46.01368 38.74974 -48.58257 31.51692 -48.46094 22.28516 C-47.79003 13.02907 -43.38562 6.29854 -36.8125 0.0625 C-24.95844 -7.74383 -11.87513 -7.33464 0 0 Z " fill="#000000" transform="translate(528.25,508.625)"/>
<path d="M0 0 C5.92709 2.38995 8.43623 5.18222 11 11 C12.43075 15.82879 12.05143 17.85164 10.375 22.6875 C7.5938 27.73757 5.44931 30.18356 0 32 C-5.97296 32.75138 -9.83553 32.74599 -15 29.4375 C-18.9107 24.95649 -20.6461 21.43308 -21.5 15.5625 C-20.65903 9.57056 -17.68135 5.56404 -13.3125 1.5 C-8.8232 -0.53289 -4.79767 -0.73752 0 0 Z " fill="#000000" transform="translate(161,514)"/>
<path d="M0 0 C5.35391 2.4336 7.57912 5.70993 10 11 C11.59843 16.86092 10.70396 20.59208 8 26 C4.05158 30.42994 0.18646 32.00748 -5.53906 32.91016 C-10.73409 33.09982 -13.97546 30.86517 -17.8125 27.625 C-21.75139 22.89833 -22.52832 19.12847 -22 13 C-20.22751 7.28865 -17.82073 4.48734 -13 1 C-9.04627 -0.97687 -4.30935 -0.42667 0 0 Z " fill="#000000" transform="translate(870,514)"/>
</svg>
