<?xml version="1.0" encoding="UTF-8"?>
<!-- Created with CreateLogo.app :) -->
<svg version="1.1" xmlns="http://www.w3.org/2000/svg" width="1024" height="1024">
<path d="M0 0 C1.61463 0.00491 3.22926 0.00983 4.89282 0.01489 C44.1259 0.39485 81.94597 9.86568 117.125 27.3125 C117.89779 27.6881 118.67059 28.0637 119.4668 28.45068 C142.23315 39.58435 162.8967 54.26905 181.28516 71.68359 C184.03849 74.29808 184.03849 74.29808 186.80078 76.44141 C189.5635 78.66551 191.76515 81.24283 194.05859 83.9375 C196.40494 86.63424 198.85834 89.21357 201.3125 91.8125 C217.21708 109.19455 229.01569 129.12479 239.125 150.3125 C239.70637 151.44945 240.28773 152.58641 240.88672 153.75781 C248.75475 169.5646 253.47653 186.74156 257.5 203.875 C257.85784 205.38767 257.85784 205.38767 258.2229 206.93091 C261.63526 222.13791 262.50134 237.22238 262.4375 252.75 C262.43477 254.13272 262.43477 254.13272 262.43198 255.54337 C262.38298 270.29696 261.75723 284.76975 259.125 299.3125 C258.95339 300.26496 258.78179 301.21741 258.60498 302.19873 C250.69627 344.49868 233.14861 389.34633 203.24609 421.00781 C201.01674 423.43013 199.02152 425.96501 197 428.5625 C162.2513 471.32086 106.63619 497.95861 53.625 508.6875 C52.44639 508.92614 51.26779 509.16478 50.05347 509.41064 C33.73294 512.53968 17.52118 513.69547 0.9375 513.625 C-0.40654 513.62227 -0.40654 513.62227 -1.77774 513.61948 C-15.66248 513.57205 -29.22305 512.99536 -42.875 510.3125 C-43.74931 510.14621 -44.62361 509.97992 -45.52441 509.80859 C-67.39346 505.54069 -88.82608 499.06554 -108.875 489.3125 C-110.44239 488.57874 -112.0101 487.84569 -113.57812 487.11328 C-134.01797 477.40144 -152.99536 465.40436 -169.875 450.3125 C-171.66357 448.71535 -171.66357 448.71535 -173.48828 447.08594 C-176.65608 444.19948 -179.77774 441.27436 -182.875 438.3125 C-183.69484 437.53391 -184.51469 436.75531 -185.35938 435.95312 C-191.02028 430.44838 -195.99428 424.51233 -200.875 418.3125 C-202.08156 416.79656 -202.08156 416.79656 -203.3125 415.25 C-245.65567 361.26246 -264.31465 293.26111 -256.21509 225.17944 C-249.22229 170.53174 -225.09508 121.02874 -186.875 81.3125 C-186.25963 80.6699 -185.64427 80.0273 -185.01025 79.36523 C-148.05117 40.94178 -98.39562 15.2515 -46.3125 4.625 C-44.82375 4.32094 -44.82375 4.32094 -43.30493 4.01074 C-28.87397 1.19345 -14.70185 -0.05346 0 0 Z M-89.875 117.3125 C-93.26177 123.437 -93.28606 128.77023 -93.21558 135.57202 C-93.21601 136.68495 -93.21645 137.79788 -93.2169 138.94453 C-93.21482 142.60774 -93.19151 146.27047 -93.16797 149.93359 C-93.16237 152.47949 -93.1581 155.0254 -93.15511 157.5713 C-93.14367 164.2607 -93.11421 170.9499 -93.08099 177.63922 C-93.05026 184.46974 -93.03659 191.30029 -93.02148 198.13086 C-92.98934 211.52484 -92.93659 224.91862 -92.875 238.3125 C-85.945 238.6425 -79.015 238.9725 -71.875 239.3125 C-71.75918 224.03092 -71.67032 208.74944 -71.61594 193.4675 C-71.58984 186.37157 -71.55443 179.27594 -71.4978 172.18018 C-71.4435 165.33317 -71.41358 158.48645 -71.40061 151.63924 C-71.39137 149.02611 -71.37332 146.413 -71.34635 143.8 C-71.31009 140.14155 -71.30505 136.48429 -71.30737 132.82568 C-71.2894 131.74387 -71.27142 130.66205 -71.2529 129.54745 C-71.28715 124.55891 -71.45941 121.9768 -74.16048 117.65933 C-79.08226 113.40422 -84.96045 112.8192 -89.875 117.3125 Z M-9.875 117.3125 C-12.92106 121.37392 -13.25672 121.98604 -13.38232 126.6814 C-13.41722 127.78846 -13.45211 128.89553 -13.48807 130.03615 C-13.51005 131.26043 -13.53204 132.48471 -13.55469 133.74609 C-13.58771 135.05356 -13.62073 136.36103 -13.65475 137.70811 C-14.0666 156.26902 -14.02333 174.83827 -14.00195 193.40265 C-14 196.3753 -14.00195 199.34791 -14.00537 202.32056 C-14.01707 212.77631 -14.00153 223.23078 -13.91677 233.68624 C-13.8754 239.18919 -13.90266 244.68791 -13.95996 250.19092 C-13.9521 252.77182 -13.94218 255.35271 -13.92969 257.93359 C-13.95798 259.0521 -13.98627 260.17061 -14.01541 261.32301 C-13.88074 270.32392 -10.00179 274.99418 -3.875 281.3125 C-2.51762 282.81877 -2.51762 282.81877 -1.13281 284.35547 C-0.07707 285.41701 -0.07707 285.41701 1 286.5 C2.07895 287.60408 2.07895 287.60408 3.17969 288.73047 C5.09501 290.62797 5.09501 290.62797 8.125 290.3125 C8.21846 268.65933 8.28899 247.00622 8.33225 225.3529 C8.35287 215.29875 8.38098 205.24474 8.42676 195.19067 C8.46664 186.42699 8.49244 177.6634 8.50135 168.89962 C8.50657 164.25974 8.51881 159.62013 8.54792 154.98033 C8.58017 149.79919 8.58096 144.6185 8.5791 139.43726 C8.59348 137.90085 8.60786 136.36444 8.62268 134.78148 C8.61718 133.36669 8.61168 131.95191 8.60602 130.49425 C8.60971 129.26918 8.61339 128.04412 8.61719 126.78194 C8.01503 122.53735 6.51529 119.84365 4.125 116.3125 C-1.09659 113.31008 -5.0757 113.86685 -9.875 117.3125 Z M40.125 129.3125 C38.30926 134.27087 37.75042 137.04308 39.25 142.125 C41.69899 146.28829 43.49238 148.76829 48.125 150.3125 C52.55082 150.67527 55.39285 150.65785 59.4375 148.75 C63.39699 145.15883 64.7384 141.58379 65.625 136.375 C64.8899 131.87253 62.79677 128.95583 60.125 125.3125 C51.98104 121.24052 46.03546 122.43706 40.125 129.3125 Z M178.125 125.3125 C174.69425 128.51951 173.30691 130.64905 172.0625 135.1875 C172.14016 140.31334 173.30701 143.04939 176.125 147.3125 C180.65382 150.60619 184.61901 150.91472 190.125 150.3125 C194.48444 148.09165 197.2933 145.89174 199.125 141.3125 C199.60949 136.39838 199.66409 133.35217 197.375 128.9375 C194.70261 125.81972 192.27822 123.67128 188.3125 122.4375 C184.10012 122.27231 181.79037 123.24657 178.125 125.3125 Z M-169.875 148.3125 C-172.97831 154.51911 -172.24694 160.87049 -172.24561 167.72046 C-172.24998 170.23816 -172.28632 172.7541 -172.32422 175.27148 C-172.32809 176.86154 -172.33195 178.4516 -172.33594 180.08984 C-172.34416 181.5464 -172.35237 183.00296 -172.36084 184.50366 C-171.82029 188.74141 -170.89367 190.36239 -167.875 193.3125 C-164.56599 194.967 -161.50956 194.52949 -157.875 194.3125 C-153.65172 192.47629 -153.00589 191.57427 -150.875 187.3125 C-150.43341 181.86508 -150.55087 176.40088 -150.5625 170.9375 C-150.54639 169.43187 -150.53027 167.92625 -150.51367 166.375 C-150.51303 164.92352 -150.51238 163.47203 -150.51172 161.97656 C-150.50874 160.65092 -150.50576 159.32528 -150.50269 157.95947 C-150.90322 154.03612 -151.78265 151.63602 -153.875 148.3125 C-159.85265 144.49698 -163.86071 144.65163 -169.875 148.3125 Z M63.29297 174.42188 C50.89993 190.94593 46.13002 210.33092 48.875 230.6875 C52.081 249.54762 61.28275 265.33594 76.66016 276.99219 C93.99847 288.50075 113.13488 292.76541 133.75 289.125 C140.38143 287.66118 146.17454 285.56875 152.125 282.3125 C153.01574 281.83168 153.90648 281.35086 154.82422 280.85547 C172.04736 270.75745 182.82358 254.93732 188.375 236.0625 C191.86432 213.9635 189.15629 194.75607 176.125 176.3125 C165.29554 162.23622 150.25076 152.30828 132.76172 148.78516 C105.75673 145.27538 81.1698 153.79233 63.29297 174.42188 Z M-170.875 220.3125 C-174.60588 227.77425 -172.95059 239.15433 -172.75391 247.29688 C-172.7303 248.47848 -172.70668 249.66009 -172.68236 250.8775 C-172.60654 254.60598 -172.52217 258.33421 -172.4375 262.0625 C-172.3842 264.60936 -172.33146 267.15624 -172.2793 269.70312 C-172.15103 275.90641 -172.01511 282.10948 -171.875 288.3125 C-167.47284 284.5636 -163.20851 280.78254 -159.125 276.6875 C-158.20203 275.76711 -157.27906 274.84672 -156.32812 273.89844 C-151.22144 268.51527 -150.42724 265.08609 -150.47656 257.94531 C-150.47369 257.03297 -150.47082 256.12062 -150.46786 255.18063 C-150.46583 253.25241 -150.47135 251.32418 -150.48389 249.396 C-150.49991 246.45493 -150.48405 243.51524 -150.46484 240.57422 C-150.46683 238.69791 -150.47067 236.82161 -150.47656 234.94531 C-150.47049 234.07013 -150.46442 233.19495 -150.45816 232.29324 C-150.51624 227.21106 -151.0338 223.57068 -153.875 219.3125 C-160.00808 214.71269 -165.42996 214.70246 -170.875 220.3125 Z M-134.13281 283.69141 C-142.46205 293.55664 -146.60285 304.73998 -150.34009 316.927 C-152.19991 322.85805 -153.95942 328.2125 -159.20703 331.99219 C-164.22019 334.40798 -168.19547 336.2955 -173.875 335.3125 C-179.21021 332.6972 -181.19102 329.50153 -183.875 324.3125 C-185.89381 320.74593 -187.05537 318.74964 -190.6875 316.8125 C-194.73889 316.17699 -197.11929 316.68266 -200.875 318.3125 C-203.44166 321.12755 -203.84371 323.11433 -204.4375 326.875 C-203.24152 336.30997 -198.57921 343.7433 -191.24609 349.69141 C-182.47607 355.68739 -173.30431 357.1993 -162.875 356.3125 C-151.96956 353.95929 -144.14646 348.92699 -137.53125 339.90625 C-132.79576 332.49029 -129.88567 324.60058 -127.4375 316.1875 C-123.24199 302.35293 -116.1971 293.89569 -103.5625 286.9375 C-91.63556 282.80283 -80.43491 282.12499 -68.75 287.375 C-53.71682 295.75889 -47.85914 308.62753 -42.875 324.625 C-39.27041 335.96628 -33.19653 345.91836 -22.35593 351.64268 C-14.52548 355.1781 -7.97565 355.99947 0.55469 355.87891 C1.78865 355.88454 3.02262 355.89018 4.29398 355.89598 C8.19638 355.91231 12.09764 355.89697 16 355.875 C19.92367 355.85839 23.84661 355.84931 27.77029 355.86473 C30.20102 355.87399 32.63191 355.86492 35.06247 355.8351 C41.19088 355.85501 45.43805 355.88364 50.125 360.3125 C52.87792 365.63482 53.21288 369.81189 53.05859 375.73828 C53.28043 384.33772 57.04802 391.37183 63.125 397.3125 C71.31251 403.44984 79.78589 406.51823 90.125 405.3125 C99.63271 402.98192 107.18972 398.80747 112.5 390.375 C115.78511 384.38346 117.10021 379.17151 117.5 372.375 C117.90577 366.87989 119.03582 362.98802 122.125 358.3125 C129.56859 352.26458 137.36713 353.09811 146.5 353.0625 C148.47227 353.03156 148.47227 353.03156 150.48438 353 C151.75539 352.99484 153.02641 352.98969 154.33594 352.98438 C155.494 352.97503 156.65206 352.96568 157.84521 352.95605 C162.84976 353.49995 166.07785 355.15214 169.4375 358.875 C172.35734 363.09255 172.27143 365.85183 172.4375 371 C172.7909 377.07845 173.08668 381.48896 177.125 386.3125 C180.19076 388.95246 182.07781 389.30586 186.125 389.875 C190.24046 389.64732 190.24046 389.64732 193.125 386.875 C195.66945 382.34269 195.63095 379.4443 195.125 374.3125 C194.62807 373.14848 194.62807 373.14848 194.12109 371.96094 C192.90243 368.72073 192.84902 365.95426 192.75 362.5 C192.17065 353.09297 188.78718 346.97468 182.125 340.3125 C170.94523 332.5064 161.4091 331.1323 148 331.125 C146.83984 331.11275 145.67969 331.10051 144.48438 331.08789 C129.44504 331.06266 117.71464 333.06711 106.46094 343.71484 C99.27782 351.70276 97.42213 360.13537 96.64453 370.64844 C96.09506 374.52366 95.19715 377.00659 93.125 380.3125 C89.18769 383.26548 87.86165 384.12303 83.125 384.3125 C79.29628 383.03626 77.59473 382.08237 75.48047 378.61719 C74.00941 375.03069 73.72895 372.359 73.625 368.5 C72.99796 356.83219 69.2666 348.98132 60.71094 341.02344 C52.48347 335.57988 44.99026 334.74735 35.39844 334.84375 C34.21078 334.8367 33.02312 334.82965 31.79947 334.82239 C28.03276 334.80047 24.26676 334.80333 20.5 334.8125 C15.52826 334.82457 10.55758 334.81081 5.58594 334.78125 C4.45554 334.79257 3.32514 334.80389 2.16049 334.81555 C-4.5178 334.77299 -9.09165 334.0193 -14.875 330.3125 C-20.03388 324.64387 -22.24763 319.27356 -24.375 312 C-29.84493 294.68554 -38.69247 279.69218 -54.875 270.3125 C-56.05836 269.60867 -56.05836 269.60867 -57.26562 268.89062 C-83.26807 254.63122 -114.47255 262.9767 -134.13281 283.69141 Z M40.25 291.375 C38.59695 295.69131 38.48025 299.79201 39.125 304.3125 C41.46158 309.25527 43.99348 311.46515 49.125 313.3125 C53.58298 314.0878 55.26302 313.24146 59.375 311.125 C63.64831 308.01432 63.64831 308.01432 65.125 303.3125 C65.7503 297.58054 64.6942 294.7995 61.125 290.3125 C57.75403 286.94153 56.46944 286.41397 51.8125 286.0625 C46.80055 286.40229 43.65234 287.63243 40.25 291.375 Z M174.8125 291.625 C172.83328 294.7771 172.19811 296.58397 172.125 300.3125 C173.26765 304.50221 174.38775 307.46683 177.25 310.75 C181.28544 312.94317 184.55334 313.24987 189.125 313.3125 C193.79399 311.7268 196.72699 309.64737 199.125 305.3125 C199.67878 299.84392 199.85054 296.79045 197.4375 291.875 C194.02492 288.0935 191.80605 286.49589 186.6875 285.9375 C181.54456 286.47886 178.46479 287.97271 174.8125 291.625 Z M-89.875 330.3125 C-92.60942 334.10718 -93.25266 336.73655 -93.26318 341.38452 C-93.27264 342.58604 -93.2821 343.78757 -93.29184 345.0255 C-93.28577 346.31517 -93.27969 347.60484 -93.27344 348.93359 C-93.27631 350.26625 -93.27918 351.5989 -93.28214 352.97194 C-93.28418 355.78867 -93.27865 358.60542 -93.26611 361.42212 C-93.25007 365.7303 -93.26596 370.03755 -93.28516 374.3457 C-93.28317 377.08334 -93.27933 379.82097 -93.27344 382.55859 C-93.27951 383.84624 -93.28558 385.13389 -93.29184 386.46056 C-93.28238 387.66523 -93.27293 388.8699 -93.26318 390.11108 C-93.2608 391.16634 -93.25841 392.22159 -93.25595 393.30882 C-92.80098 396.89613 -91.76896 399.23965 -89.875 402.3125 C-85.2077 405.81298 -83.55318 405.924 -77.875 405.3125 C-74.43187 403.18802 -73.15882 402.16397 -71.875 398.3125 C-71.76095 396.27456 -71.70573 394.23314 -71.68213 392.19214 C-71.66607 390.9304 -71.65 389.66867 -71.63345 388.3687 C-71.58902 382.60314 -71.54795 376.83771 -71.5249 371.07202 C-71.50833 368.0293 -71.48102 364.98662 -71.44287 361.94409 C-71.38818 357.56018 -71.36624 353.17718 -71.35156 348.79297 C-71.32889 347.43343 -71.30622 346.07388 -71.28287 344.67314 C-71.2599 337.20993 -71.2599 337.20993 -74.15771 330.47388 C-79.29027 326.39135 -84.83188 325.98983 -89.875 330.3125 Z M-12.875 378.3125 C-12.98338 381.52175 -13.06249 384.7273 -13.125 387.9375 C-13.15852 388.84113 -13.19203 389.74477 -13.22656 390.67578 C-13.31107 396.46422 -12.71769 399.91476 -8.875 404.3125 C-5.28552 406.10724 -1.7911 405.5771 2.125 405.3125 C5.7531 403.17285 6.13517 401.28102 7.4375 397.25 C8.22608 391.58654 7.84121 386.97053 7.125 381.3125 C6.1002 381.17973 5.07539 381.04695 4.01953 380.91016 C1.99893 380.64525 1.99893 380.64525 -0.0625 380.375 C-1.39668 380.20098 -2.73086 380.02695 -4.10547 379.84766 C-7.062 379.42792 -9.95776 378.94127 -12.875 378.3125 Z M-156.875 379.25 C-161.8592 380.39272 -166.78267 380.88216 -171.875 381.3125 C-172.01026 384.20705 -172.1071 387.10341 -172.1875 390 C-172.24551 391.61262 -172.30352 393.22523 -172.36328 394.88672 C-172.26567 399.36945 -172.26567 399.36945 -169.48047 402.33203 C-165.39516 405.43736 -163.04643 405.82964 -157.875 405.3125 C-153.2757 402.16235 -153.2757 402.16235 -150.875 397.3125 C-150.80395 394.07542 -150.78173 390.86097 -150.8125 387.625 C-150.81701 386.73232 -150.82152 385.83965 -150.82617 384.91992 C-150.83795 382.71742 -150.85589 380.51495 -150.875 378.3125 C-153.23519 378.23644 -153.23519 378.23644 -156.875 379.25 Z " fill="#000000" transform="translate(509.875,258.6875)"/>
<path d="M0 0 C8.52431 5.2688 13.99896 11.93577 16.875 21.5625 C19.22701 31.74514 17.73915 41.19651 12.67969 50.40234 C7.23954 58.14638 -0.3753 63.13149 -9.4375 65.6875 C-19.22386 66.88096 -27.82622 65.5647 -35.86328 59.75781 C-43.83558 53.19925 -47.52087 45.91653 -50 36 C-50.60223 24.85866 -48.36048 15.62457 -41 7 C-29.74273 -3.7361 -14.37574 -6.75224 0 0 Z " fill="#000000" transform="translate(645,447)"/>
</svg>