<?xml version="1.0" encoding="UTF-8"?>
<!-- Created with CreateLogo.app :) -->
<svg version="1.1" xmlns="http://www.w3.org/2000/svg" width="1024" height="1024">
<path d="M0 0 C34.8716 29.94916 60.20098 70.76458 64.62891 117.25781 C64.76297 118.63453 64.89703 120.01125 65.03516 121.42969 C68.45938 167.03418 54.50204 215.05427 24.94141 250.32031 C23.18157 252.30926 21.41145 254.28919 19.62891 256.25781 C18.86965 257.13695 18.11039 258.01609 17.32812 258.92188 C-11.06781 291.50407 -53.79825 312.56165 -96.60938 316.94141 C-145.00265 320.15704 -191.6245 306.98802 -228.83984 275.30469 C-231.74459 272.67868 -234.56879 269.99239 -237.37109 267.25781 C-238.12133 266.56945 -238.87156 265.88109 -239.64453 265.17188 C-247.21053 258.0429 -253.26491 249.62675 -259.37109 241.25781 C-260.25152 240.06156 -261.13195 238.86531 -262.03906 237.63281 C-288.67421 199.69149 -297.61608 151.13832 -290.41016 105.72266 C-281.79198 57.67161 -253.54439 16.97836 -213.84766 -10.70312 C-147.87805 -55.83726 -61.35526 -51.26335 0 0 Z M-216.17969 36.13281 C-217.978 38.12633 -219.68116 40.17152 -221.37109 42.25781 C-222.13035 43.17949 -222.88961 44.10117 -223.67188 45.05078 C-241.41394 67.26286 -251.68579 91.84078 -253.37109 120.25781 C-251.1842 120.31389 -251.1842 120.31389 -248.95312 120.37109 C-247.02992 120.43676 -245.10675 120.50321 -243.18359 120.57031 C-241.74403 120.60415 -241.74403 120.60415 -240.27539 120.63867 C-231.2305 120.98294 -231.2305 120.98294 -227.37109 124.25781 C-224.1637 128.53434 -223.85343 130.60329 -224.01562 135.84766 C-224.52298 139.28761 -225.79843 140.971 -228.37109 143.25781 C-233.24747 145.696 -237.31489 145.47942 -242.62109 145.38281 C-243.55695 145.37379 -244.49281 145.36477 -245.45703 145.35547 C-247.76183 145.33195 -250.06649 145.29608 -252.37109 145.25781 C-255.18395 156.50925 -249.10099 171.99739 -244.37109 182.25781 C-239.76073 183.7946 -235.6329 182.05046 -231.05859 180.88281 C-229.18796 180.41483 -227.31687 179.94864 -225.44531 179.48438 C-224.20141 179.16847 -224.20141 179.16847 -222.93237 178.84619 C-220.09366 178.19408 -217.24518 177.72661 -214.37109 177.25781 C-214.36301 176.21069 -214.35492 175.16357 -214.34659 174.08472 C-214.26852 164.19786 -214.1812 154.31113 -214.08357 144.42444 C-214.0337 139.34207 -213.98737 134.25972 -213.94922 129.17725 C-213.91224 124.26883 -213.86585 119.36058 -213.81303 114.4523 C-213.79455 112.58333 -213.77942 110.71433 -213.76775 108.84531 C-213.75077 106.21961 -213.72171 103.5943 -213.68994 100.96875 C-213.67662 99.4765 -213.66329 97.98425 -213.64957 96.44678 C-213.30282 91.23087 -212.64219 86.32334 -209.87109 81.82031 C-205.94717 79.36786 -201.88828 79.10082 -197.37109 79.25781 C-193.93359 80.19531 -193.93359 80.19531 -191.37109 82.25781 C-188.83421 87.8508 -188.0015 92.39723 -188.03052 98.50977 C-188.03074 100.11082 -188.03097 101.71188 -188.0312 103.36145 C-188.04652 105.08732 -188.06217 106.81319 -188.07812 108.53906 C-188.08373 110.32124 -188.08799 112.10343 -188.09099 113.88562 C-188.10239 118.55458 -188.13182 123.22325 -188.1651 127.89209 C-188.1959 132.665 -188.20951 137.43796 -188.22461 142.21094 C-188.25669 151.56002 -188.30783 160.90888 -188.37109 170.25781 C-183.79058 171.78465 -179.38049 170.59233 -174.68359 169.94531 C-162.90233 168.41403 -151.13401 167.56447 -139.27466 166.90503 C-132.60669 166.53345 -125.99869 166.08626 -119.37109 165.25781 C-119.53609 166.84594 -119.70109 168.43406 -119.87109 170.07031 C-120.39409 175.83077 -120.51937 181.47487 -120.37109 187.25781 C-119.31509 188.53652 -119.31509 188.53652 -116.90234 188.39062 C-115.90203 188.38805 -114.90172 188.38547 -113.87109 188.38281 C-112.37063 188.38668 -112.37063 188.38668 -110.83984 188.39062 C-108.4271 188.53652 -108.4271 188.53652 -107.37109 187.25781 C-107.29766 183.73011 -107.27884 180.22232 -107.30859 176.69531 C-107.31536 175.19968 -107.31536 175.19968 -107.32227 173.67383 C-107.33409 171.2018 -107.35203 168.7298 -107.37109 166.25781 C-89.83364 166.68664 -72.51017 167.95083 -55.07471 169.88477 C-49.84585 170.41144 -44.60908 170.83292 -39.37109 171.25781 C-39.35896 169.69926 -39.35896 169.69926 -39.34659 168.10922 C-39.2686 158.31003 -39.18129 148.51098 -39.08357 138.71197 C-39.03365 133.67438 -38.98732 128.63681 -38.94922 123.59912 C-38.9123 118.73609 -38.86593 113.87324 -38.81303 109.01036 C-38.79452 107.15649 -38.7794 105.30258 -38.76775 103.44865 C-38.75083 100.84889 -38.72178 98.24952 -38.68994 95.6499 C-38.67662 94.17098 -38.66329 92.69205 -38.64957 91.1683 C-38.38529 87.45722 -37.88932 84.64518 -36.37109 81.25781 C-32.106 79.07567 -28.10232 78.83538 -23.37109 79.25781 C-19.62722 80.55377 -17.87537 81.47175 -15.72624 84.82181 C-14.04085 89.09516 -13.97126 92.51493 -13.93872 97.10889 C-13.92343 98.4123 -13.92343 98.4123 -13.90784 99.74205 C-13.87777 102.59893 -13.86845 105.45548 -13.85938 108.3125 C-13.84252 110.29934 -13.82437 112.28617 -13.80498 114.27298 C-13.75752 119.49089 -13.72768 124.70876 -13.70154 129.92682 C-13.67171 135.25599 -13.62519 140.58501 -13.58008 145.91406 C-13.4941 156.36191 -13.42673 166.80976 -13.37109 177.25781 C-11.94797 177.59555 -10.52484 177.93328 -9.05859 178.28125 C-7.16275 178.73175 -5.26692 179.18227 -3.37109 179.63281 C-2.43652 179.85453 -1.50195 180.07625 -0.53906 180.30469 C4.85919 181.58819 10.2487 182.90007 15.62891 184.25781 C20.67336 171.54057 24.86412 160.0437 24.62891 146.25781 C23.24316 146.22043 21.85742 146.18305 20.42969 146.14453 C18.60023 146.07886 16.77081 146.01241 14.94141 145.94531 C13.57339 145.91147 13.57339 145.91147 12.17773 145.87695 C7.22919 145.67901 3.5282 145.46218 -0.37109 142.25781 C-3.06905 138.48068 -3.37109 136.38689 -3.37109 131.69531 C-2.28009 126.85396 -1.26226 125.22251 2.62891 122.25781 C6.94199 120.82012 11.30929 120.88611 15.81641 120.69531 C16.75678 120.65213 17.69715 120.60895 18.66602 120.56445 C20.98681 120.45843 23.30784 120.35762 25.62891 120.25781 C22.85912 82.969 6.94563 52.06827 -20.875 27.16406 C-46.09937 6.19543 -76.49268 -6.36868 -109.37109 -7.74219 C-110.6666 -7.80406 -110.6666 -7.80406 -111.98828 -7.86719 C-151.29463 -8.82296 -189.08569 8.044 -216.17969 36.13281 Z M-172.37109 204.25781 C-174.56291 206.81543 -176.57046 209.36098 -178.55859 212.07031 C-179.13795 212.84625 -179.7173 213.62218 -180.31421 214.42163 C-181.47455 215.97904 -182.63062 217.53964 -183.78223 219.10352 C-185.12952 220.93027 -186.49451 222.74396 -187.86328 224.55469 C-194.70063 233.68835 -199.13849 241.43994 -198.37109 253.25781 C-196.04916 260.41712 -192.76424 265.15118 -186.37109 269.25781 C-179.36324 272.10296 -171.75564 272.58503 -164.48047 270.38281 C-158.78239 267.78967 -155.54173 264.78085 -152.37109 259.25781 C-150.21594 252.79236 -150.67865 246.14871 -152.99609 239.82031 C-156.40282 234.71022 -159.91292 231.9869 -165.37109 229.25781 C-168.19195 229.01708 -168.19195 229.01708 -171.12109 229.13281 C-172.10594 229.15086 -173.09078 229.16891 -174.10547 229.1875 C-175.22695 229.2223 -175.22695 229.2223 -176.37109 229.25781 C-174.95545 227.36121 -173.53853 225.46557 -172.12109 223.57031 C-171.33219 222.51457 -170.54328 221.45883 -169.73047 220.37109 C-167.65283 217.62957 -165.53429 214.93204 -163.37109 212.25781 C-165.16186 208.67628 -166.38756 206.78929 -169.37109 204.25781 C-170.36109 204.25781 -171.35109 204.25781 -172.37109 204.25781 Z M-131.37109 214.88281 C-133.91208 220.44121 -134.06217 223.19174 -133.37109 229.25781 C-132.07889 231.61418 -130.75376 233.95337 -129.37109 236.25781 C-131.37109 240.25781 -131.37109 240.25781 -133.43359 242.82031 C-136.86569 247.13812 -136.68285 250.88009 -136.37109 256.25781 C-134.63746 262.9884 -132.05579 266.27852 -126.37109 270.25781 C-117.79859 273.75032 -109.78379 272.72186 -101.37109 269.25781 C-96.15473 265.85584 -93.87164 262.26002 -92.37109 256.25781 C-91.67034 249.25025 -93.5035 246.01204 -97.37109 240.25781 C-98.43359 237.75781 -98.43359 237.75781 -98.37109 235.25781 C-97.71109 234.04094 -97.05109 232.82406 -96.37109 231.57031 C-93.72876 225.87277 -94.11611 223.37584 -95.37109 217.25781 C-97.29634 213.09928 -99.03454 211.49034 -102.80859 208.88281 C-113.39224 205.11329 -123.89758 205.85232 -131.37109 214.88281 Z M-71.24609 214.44531 C-79.31321 224.28719 -80.19123 234.89722 -79.37109 247.25781 C-77.48014 256.63283 -72.67316 263.03126 -65.12109 268.69531 C-57.65079 271.80794 -50.38587 272.0691 -42.72656 269.40234 C-36.47346 266.36394 -31.66391 261.33686 -28.37109 255.25781 C-24.99708 245.23358 -24.73041 233.63463 -28.90625 223.79688 C-32.92928 216.82362 -37.95099 211.46862 -45.37109 208.25781 C-55.04298 205.83984 -63.85462 207.63946 -71.24609 214.44531 Z " fill="#000000" transform="translate(625.37109375,392.7421875)"/>
<path d="M0 0 C6.27042 6.13108 9.57744 12.97838 10.00781 21.71484 C9.98461 23.02582 9.96141 24.3368 9.9375 25.6875 C9.91945 27.01652 9.90141 28.34555 9.88281 29.71484 C9.85961 30.71645 9.83641 31.71805 9.8125 32.75 C8.60852 32.79898 7.40453 32.84797 6.16406 32.89844 C4.6043 32.9732 3.04453 33.04797 1.4375 33.125 C-0.11711 33.19461 -1.67172 33.26422 -3.27344 33.33594 C-7.19244 33.33574 -7.19244 33.33574 -9.1875 35.75 C-9.52083 38.75 -9.52083 38.75 -9.1875 41.75 C-7.19647 44.18836 -7.19647 44.18836 -3.27344 43.94531 C-1.71883 43.92211 -0.16422 43.89891 1.4375 43.875 C2.99727 43.85695 4.55703 43.83891 6.16406 43.82031 C7.36805 43.79711 8.57203 43.77391 9.8125 43.75 C9.8125 48.7 9.8125 53.65 9.8125 58.75 C6.01192 60.65029 1.27157 59.69775 -2.90234 59.58984 C-6.3316 59.47519 -6.3316 59.47519 -9.1875 61.75 C-9.60417 64.75 -9.60417 64.75 -9.1875 67.75 C-6.0784 70.8591 -2.86039 70.18256 1.4375 70.375 C2.99727 70.44977 4.55703 70.52453 6.16406 70.60156 C7.97004 70.67504 7.97004 70.67504 9.8125 70.75 C10.07674 79.04301 7.88126 84.64686 3.3125 91.5 C-3.60167 97.9203 -10.3745 101.09838 -19.875 101.375 C-28.93031 100.97686 -35.73438 98.34652 -42.1875 91.75 C-46.91379 85.39162 -49.19296 79.5958 -50.1875 71.75 C-48.01102 69.57352 -43.16307 70.328 -40.125 70.1875 C-39.271 70.14432 -38.41699 70.10113 -37.53711 70.05664 C-35.42078 69.95023 -33.30416 69.84958 -31.1875 69.75 C-29.79318 66.96137 -29.9309 64.82921 -30.1875 61.75 C-34.05231 59.17346 -36.75967 59.34654 -41.375 59.125 C-42.83293 59.05023 -44.29086 58.97547 -45.79297 58.89844 C-47.47326 58.82496 -47.47326 58.82496 -49.1875 58.75 C-49.1875 54.13 -49.1875 49.51 -49.1875 44.75 C-42.9175 44.42 -36.6475 44.09 -30.1875 43.75 C-28.61158 37.92155 -28.61158 37.92155 -31.1875 33.75 C-37.1275 33.42 -43.0675 33.09 -49.1875 32.75 C-51.60624 23.07506 -49.44613 15.1382 -45 6.5 C-33.38501 -8.98666 -15.32645 -10.81867 0 0 Z " fill="#000000" transform="translate(531.1875,410.25)"/>
<path d="M0 0 C2.9375 1.5625 2.9375 1.5625 5 4 C5.99472 7.90236 5.99172 11.28563 5.875 15.3125 C6.18483 26.93114 11.22882 35.13706 19.25 43.3125 C25.67537 47.91735 32.53097 50.51032 40 53 C40 58.94 40 64.88 40 71 C23.33174 70.33327 10.48079 63.27645 -0.96484 51.38672 C-9.30848 41.60177 -14.1114 30.00484 -14.3125 17.1875 C-14.36857 14.85752 -14.36857 14.85752 -14.42578 12.48047 C-13.96245 7.60486 -12.79971 4.97362 -10 1 C-6.65205 -0.67398 -3.67361 -0.27415 0 0 Z " fill="#000000" transform="translate(465,473)"/>
<path d="M0 0 C5.12342 6.043 5.5615 12.32971 5 20 C2.6351 35.70816 -5.35058 49.81142 -18.10938 59.31641 C-28.59179 66.12496 -38.57168 69.34588 -51 70 C-51 64.39 -51 58.78 -51 53 C-49.9275 52.62875 -48.855 52.2575 -47.75 51.875 C-33.44905 46.43912 -25.00718 40.49797 -18.37891 26.5 C-15.92239 20.26475 -15.9023 14.88068 -16.25 8.1875 C-16 4 -16 4 -13.6875 1 C-8.70237 -2.70987 -5.73308 -2.02863 0 0 Z " fill="#000000" transform="translate(568,474)"/>
<path d="M0 0 C4.1875 0.4375 4.1875 0.4375 7.1875 2.9375 C7.8475 3.7625 8.5075 4.5875 9.1875 5.4375 C8.00074 9.54552 7.29302 11.33198 4.1875 14.4375 C0.1875 15.4375 0.1875 15.4375 -2.375 14.3125 C-5.12971 12.19349 -6.5067 10.66361 -7.8125 7.4375 C-6.55244 2.51181 -5.17249 0.59356 0 0 Z " fill="#000000" transform="translate(510.8125,610.5625)"/>
<path d="M0 0 C5.1071 2.60788 7.07153 6.71457 9 12 C9.75833 19.3811 9.92879 25.51658 6 32 C-0.38697 37.86558 -0.38697 37.86558 -5.75 38.3125 C-10.56706 37.9583 -12.38007 37.1263 -16 34 C-20.86841 27.81581 -21.45656 22.76154 -21 15 C-19.78765 9.7227 -18.49604 6.58904 -15 2.4375 C-9.81317 -0.72322 -5.9291 -1.04793 0 0 Z " fill="#000000" transform="translate(578,613)"/>
<path d="M0 0 C3.19129 2.27949 4.55413 3.88532 6 7.5 C6 10.84894 5.01731 12.35662 3 15 C-1.27643 18.20732 -3.34333 18.5102 -8.58594 18.36328 C-11.96846 17.85426 -13.72322 16.49711 -16 14 C-17.44431 11.11138 -17.37689 9.20352 -17 6 C-12.00117 0.08034 -7.68384 -1.07525 0 0 Z " fill="#000000" transform="translate(457,634)"/>
<path d="M0 0 C2.81003 1.79364 4.5094 3.01881 6 6 C6.4375 8.8125 6.4375 8.8125 6 12 C2.67565 15.39991 0.63843 16.84039 -4 18 C-9.02579 16.32474 -10.74881 15.33492 -14 11 C-14 6.84644 -13.63926 4.75549 -10.9375 1.5625 C-6.99322 -0.53552 -4.41099 -0.55137 0 0 Z " fill="#000000" transform="translate(515,636)"/>
</svg>
