<?xml version="1.0" encoding="UTF-8"?>
<!-- Created with CreateLogo.app :) -->
<svg version="1.1" xmlns="http://www.w3.org/2000/svg" width="1024" height="1024">
<path d="M0 0 C2.75569 2.18159 4.43589 3.87177 6 7 C6.24264 10.95323 6.1852 14.91515 6.1875 18.875 C6.19975 19.97715 6.21199 21.0793 6.22461 22.21484 C6.22751 23.80619 6.22751 23.80619 6.23047 25.42969 C6.23458 26.40148 6.23869 27.37327 6.24292 28.37451 C6 31 6 31 4 35 C1.1364 37.29088 -0.79241 37.9698 -4.4375 38.5 C-8.95294 37.86625 -10.81637 36.18363 -14 33 C-16.03815 28.92371 -15.27315 23.73038 -15.3125 19.25 C-15.3415 18.16461 -15.37051 17.07922 -15.40039 15.96094 C-15.44913 9.82765 -15.35276 5.74846 -11 1 C-7.36326 -0.81837 -3.96671 -0.31734 0 0 Z " fill="#000000" transform="translate(515,234)"/>
<path d="M0 0 C5.4 3.8 5.4 3.8 7 7 C7.10845 10.11167 7.15492 13.20155 7.15822 16.31387 C7.16563 17.78039 7.16563 17.78039 7.17318 19.27653 C7.18862 22.57319 7.19693 25.86982 7.20532 29.1665 C7.2149 31.52145 7.22491 33.8764 7.23532 36.23134 C7.26243 42.64216 7.28341 49.05299 7.30332 55.46384 C7.32515 62.15701 7.35255 68.85015 7.37938 75.5433 C7.42936 88.22568 7.47428 100.90807 7.5174 113.59048 C7.56673 128.02557 7.62167 142.46065 7.67708 156.89572 C7.79098 186.59712 7.8976 216.29855 8 246 C13.28 243.03 18.56 240.06 24 237 C24.00143 235.4849 24.00285 233.9698 24.00432 232.40878 C24.02098 218.13584 24.06374 203.86319 24.13209 189.5904 C24.16639 182.25244 24.19148 174.9147 24.19556 167.57666 C24.19983 160.49606 24.22824 153.41592 24.27343 146.33547 C24.28643 143.6331 24.29071 140.93068 24.28615 138.22828 C24.28126 134.44513 24.30727 130.66336 24.34058 126.88037 C24.33195 125.76115 24.32332 124.64193 24.31444 123.4888 C24.38955 118.40459 24.55268 115.70804 27.32246 111.32388 C30.66808 108.42016 32.59151 107.92128 37 108 C41.07791 109.76092 42.2413 111.32174 45 115 C46.22265 119.89061 46.13126 124.54775 46.11353 129.55176 C46.11367 130.62523 46.11382 131.69871 46.11397 132.80472 C46.11327 136.35421 46.10549 139.90364 46.09766 143.45312 C46.09579 145.91363 46.09437 148.37415 46.09337 150.83466 C46.08955 157.31194 46.07972 163.7892 46.06866 170.26648 C46.05844 176.87557 46.05387 183.48466 46.04883 190.09375 C46.0381 203.06251 46.02103 216.03125 46 229 C47.23428 228.83919 48.46855 228.67838 49.74023 228.5127 C77.32813 225.19228 103.7148 233.34028 125.875 249.875 C150.13245 269.51055 166.44767 297.7521 170 329 C171.97778 364.87528 161.72971 396.77361 138.375 424.4375 C117.6 446.36666 90.14212 460.64784 59.78516 462.16016 C34.33559 462.78485 9.44031 455.25848 -9.6875 438.0625 C-10.47512 437.31098 -11.26273 436.55945 -12.07422 435.78516 C-13.88187 433.94237 -13.88187 433.94237 -16 433 C-15.97905 434.42264 -15.95811 435.84528 -15.93652 437.31104 C-15.86401 442.59999 -15.81816 447.88891 -15.78027 453.17822 C-15.76018 455.46541 -15.73291 457.75254 -15.69824 460.03955 C-15.6496 463.33118 -15.627 466.62214 -15.60938 469.91406 C-15.58873 470.93304 -15.56808 471.95201 -15.54681 473.00186 C-15.54498 478.817 -15.8918 482.51055 -20 487 C-24.60617 489.30309 -26.103 489.20277 -31 488 C-35.49764 485.30141 -36.71412 482.99613 -38 478 C-38.20092 474.93198 -38.29385 471.85623 -38.31885 468.78174 C-38.32889 467.87378 -38.33894 466.96582 -38.34929 466.03035 C-38.38006 463.04368 -38.39714 460.05709 -38.41406 457.07031 C-38.43278 454.9938 -38.45235 452.91729 -38.47275 450.84079 C-38.52402 445.38615 -38.56367 439.93149 -38.60089 434.47675 C-38.64096 428.90631 -38.69204 423.33598 -38.74219 417.76562 C-38.83889 406.84382 -38.92332 395.92196 -39 385 C-39.91652 385.64969 -40.83305 386.29938 -41.77734 386.96875 C-45.62593 389.39453 -47.52855 389.65039 -52 389 C-55.82609 386.61932 -56.94736 385.10528 -59 381 C-59.253 378.32887 -59.253 378.32887 -59.25727 375.21187 C-59.26372 374.02263 -59.27017 372.8334 -59.27681 371.60813 C-59.27371 370.30027 -59.27062 368.99241 -59.26743 367.64491 C-59.27196 366.25662 -59.27649 364.86832 -59.28116 363.43795 C-59.29387 358.76337 -59.29218 354.0889 -59.29053 349.41431 C-59.29651 346.07211 -59.30326 342.72993 -59.31088 339.38774 C-59.32751 331.23845 -59.33299 323.08919 -59.33411 314.93988 C-59.33506 308.31768 -59.33916 301.6955 -59.34551 295.0733 C-59.36312 276.3075 -59.37235 257.54172 -59.37085 238.77591 C-59.37077 237.7639 -59.37069 236.7519 -59.37061 235.70923 C-59.37052 234.69599 -59.37044 233.68276 -59.37036 232.63882 C-59.36954 216.21097 -59.38869 199.78321 -59.41688 183.35538 C-59.44559 166.49657 -59.45942 149.6378 -59.45769 132.77897 C-59.45703 123.31027 -59.46256 113.84167 -59.48405 104.373 C-59.50223 96.31253 -59.50664 88.25221 -59.49303 80.19173 C-59.48649 76.07765 -59.4886 71.9639 -59.50374 67.84983 C-59.51907 63.39367 -59.50996 58.93822 -59.49448 54.48207 C-59.50476 53.17644 -59.51505 51.87081 -59.52565 50.52562 C-59.51645 49.33377 -59.50725 48.14193 -59.49778 46.91397 C-59.49821 45.8852 -59.49865 44.85643 -59.4991 43.79648 C-58.86738 40.25693 -57.45805 38.57426 -55 36 C-51.65205 34.32602 -48.67361 34.72585 -45 35 C-41.55687 37.12448 -40.28382 38.14853 -39 42 C-38.88122 44.16359 -38.82291 46.33065 -38.79468 48.49731 C-38.77473 49.88056 -38.75479 51.2638 -38.73424 52.68896 C-38.71753 54.23149 -38.70081 55.77401 -38.68359 57.36328 C-38.66281 59.03296 -38.64181 60.70264 -38.62062 62.37231 C-38.56362 67.02992 -38.51465 71.68759 -38.46777 76.34531 C-38.43748 79.31489 -38.4051 82.28444 -38.37231 85.254 C-38.05225 114.74211 -37.96472 144.22903 -37.97266 173.71875 C-37.97285 174.55332 -37.97304 175.38789 -37.97323 176.24774 C-37.97752 193.94644 -37.9931 211.6451 -38.02777 229.34376 C-38.03962 235.74734 -38.04773 242.15092 -38.05537 248.5545 C-38.06227 252.96547 -38.07491 257.3764 -38.08778 261.78735 C-38.11607 277.5533 -37.82578 293.25488 -37 309 C-36.3877 307.55606 -35.7754 306.11213 -35.14455 304.62444 C-30.27667 293.14491 -25.0396 281.76186 -15.88787 272.9712 C-13.15495 268.67003 -13.46747 264.54706 -13.53244 259.61319 C-13.53043 258.55622 -13.52843 257.49924 -13.52636 256.41024 C-13.52445 252.86255 -13.55116 249.31565 -13.57764 245.76807 C-13.58204 243.227 -13.58465 240.68592 -13.5856 238.14485 C-13.59147 232.66965 -13.60998 227.19469 -13.63821 221.71956 C-13.68269 213.06397 -13.69891 204.40847 -13.71121 195.75278 C-13.73399 182.06232 -13.77545 168.37199 -13.82501 154.68161 C-13.91361 130.16606 -13.98002 105.65047 -14.0255 81.1348 C-14.04232 72.52876 -14.07038 63.92285 -14.10744 55.31687 C-14.12872 49.96401 -14.14189 44.61115 -14.15304 39.25826 C-14.15999 36.77462 -14.17042 34.29099 -14.18458 31.80738 C-14.20348 28.41846 -14.21003 25.02974 -14.21359 21.64078 C-14.22642 20.16484 -14.22642 20.16484 -14.23951 18.6591 C-14.22896 12.29778 -14.20696 6.45918 -9.8125 1.5625 C-6.15421 -0.46988 -4.13268 -0.65253 0 0 Z M46 252 C45.99761 252.77784 45.99522 253.55567 45.99276 254.35708 C45.93362 273.2862 45.85807 292.21517 45.76429 311.14414 C45.71933 320.29807 45.67991 329.45196 45.65356 338.60596 C45.63059 346.58486 45.59719 354.56365 45.5513 362.54246 C45.52736 366.76694 45.50864 370.99129 45.50239 375.21584 C45.49279 379.93265 45.46478 384.64902 45.43237 389.36572 C45.43453 391.46533 45.43453 391.46533 45.43672 393.60736 C45.41791 395.53816 45.41791 395.53816 45.39873 397.50797 C45.39412 398.62333 45.38951 399.7387 45.38476 400.88787 C44.93962 404.48841 43.86428 406.90296 42 410 C38.86851 412.00068 37.10882 412.00563 33.375 411.8125 C30 411 30 411 27 408 C25.94837 404.84512 25.8624 402.5999 25.84178 399.28633 C25.83199 398.09581 25.8222 396.90529 25.81212 395.6787 C25.80349 393.71719 25.80349 393.71719 25.79468 391.71606 C25.78478 390.34037 25.77488 388.96468 25.76468 387.5473 C25.73301 382.98598 25.70829 378.42465 25.68359 373.86328 C25.66303 370.70631 25.64203 367.54934 25.62062 364.39238 C25.57101 356.92327 25.52575 349.45415 25.4826 341.985 C25.43323 333.48204 25.37831 324.97912 25.32292 316.4762 C25.2091 298.98417 25.10226 281.4921 25 264 C20.86721 265.5442 18.24619 267.29456 15 270.3125 C14.12602 271.12461 13.25203 271.93672 12.35156 272.77344 C11.57555 273.5082 10.79953 274.24297 10 275 C8.70062 276.20656 8.70062 276.20656 7.375 277.4375 C-7.49256 293.47882 -17.13645 312.39503 -21 334 C-21.22687 335.25813 -21.45375 336.51625 -21.6875 337.8125 C-23.771 365.73137 -19.316 392.14034 -1 414 C-0.05061 415.23943 -0.05061 415.23943 0.91797 416.50391 C11.69525 429.42451 28.83461 437.08455 45.16797 439.65625 C68.11219 441.71445 90.71155 436.14011 108.8125 421.5 C110.54857 420.00799 112.27827 418.50853 114 417 C114.7193 416.41348 115.43859 415.82695 116.17969 415.22266 C134.0732 400.42743 145.55029 376.89533 148 354 C149.40393 323.98674 143.41326 300.03265 123.0625 277.125 C118.10366 271.90913 113.13513 267.73197 107 264 C106.08863 263.40703 105.17727 262.81406 104.23828 262.20312 C93.30545 255.37193 81.0316 250.88188 68.05078 250.86719 C66.95572 250.8659 65.86066 250.86461 64.73242 250.86328 C63.60385 250.86715 62.47527 250.87102 61.3125 250.875 C60.17232 250.87113 59.03215 250.86727 57.85742 250.86328 C56.76623 250.86457 55.67504 250.86586 54.55078 250.86719 C53.06058 250.86888 53.06058 250.86888 51.54028 250.87061 C48.87581 250.89275 48.87581 250.89275 46 252 Z " fill="#000000" transform="translate(577,263)"/>
<path d="M0 0 C4.73544 2.68445 8.97887 5.75963 13.16455 9.22705 C14.30408 10.15518 15.44361 11.0833 16.61768 12.03955 C41.8081 33.04944 56.63005 60.07659 61.1958 92.64111 C61.14472 98.50297 59.26392 102.12768 55.16455 106.22705 C50.46516 107.45968 48.16485 107.77438 43.85205 105.41455 C39.48259 100.23217 38.64144 94.54617 37.30908 88.06689 C31.65478 60.9493 17.81126 39.88837 -5.02295 24.10205 C-23.80765 11.90715 -42.5515 6.46497 -64.77686 5.66846 C-68.18695 5.17632 -70.08382 4.27264 -72.83545 2.22705 C-75.62098 -1.95124 -75.23618 -4.83055 -74.83545 -9.77295 C-72.93646 -13.20574 -71.68494 -14.43506 -68.04639 -15.88232 C-45.88615 -22.02896 -19.19992 -10.45671 0 0 Z " fill="#000000" transform="translate(679.83544921875,340.77294921875)"/>
<path d="M0 0 C3.11905 2.57661 4.71814 4.15441 6 8 C6.09781 10.61479 6.131 13.2321 6.13422 15.84872 C6.13657 16.6608 6.13893 17.47289 6.14135 18.30958 C6.14805 21.05408 6.14758 23.79854 6.14717 26.54305 C6.15047 28.52126 6.15419 30.49948 6.15831 32.4777 C6.16835 37.93209 6.17205 43.38648 6.1747 48.84088 C6.1786 54.71625 6.18818 60.59162 6.19691 66.467 C6.21669 80.66389 6.22675 94.86079 6.23564 109.0577 C6.24002 115.73792 6.24539 122.41814 6.25063 129.09836 C6.26764 151.29498 6.28214 173.49159 6.28938 195.68821 C6.29129 201.45042 6.29321 207.21264 6.29517 212.97485 C6.29565 214.40708 6.29613 215.8393 6.29663 217.31493 C6.30494 240.53201 6.33028 263.74903 6.36275 286.96609 C6.39578 310.78461 6.41383 334.60311 6.41702 358.42166 C6.41919 371.80223 6.42799 385.18273 6.45349 398.56327 C6.47514 409.95522 6.48327 421.34707 6.47352 432.73903 C6.46896 438.55441 6.47095 444.36959 6.49028 450.18494 C6.50781 455.50521 6.507 460.82515 6.49138 466.14542 C6.48899 468.07343 6.49341 470.00145 6.50521 471.92942 C6.52023 474.54461 6.51073 477.1586 6.49498 479.77376 C6.49596 481.22798 6.49694 482.6822 6.49794 484.18049 C5.93188 488.52255 4.76821 490.64864 2 494 C-1.70127 496.46751 -3.62224 496.30721 -8 496 C-12.7127 493.64365 -13.28021 492.87043 -15 488 C-15.43233 484.07545 -15.41588 480.17615 -15.39873 476.23099 C-15.40537 475.03755 -15.41202 473.84411 -15.41887 472.6145 C-15.43754 468.61157 -15.43489 464.60893 -15.43237 460.60596 C-15.44139 457.73811 -15.45171 454.87027 -15.46326 452.00243 C-15.49089 444.2117 -15.50012 436.42104 -15.50611 428.63027 C-15.51548 420.49037 -15.54168 412.35053 -15.56612 404.21066 C-15.60486 390.5467 -15.63319 376.88275 -15.65356 363.21875 C-15.67457 349.14549 -15.70185 335.07226 -15.73755 320.99902 C-15.73975 320.13138 -15.74195 319.26374 -15.74421 318.36981 C-15.75528 314.01707 -15.76647 309.66433 -15.77773 305.31159 C-15.87092 269.20776 -15.94229 233.1039 -16 197 C-17.41844 198.56089 -18.83467 200.12379 -20.25 201.6875 C-21.03891 202.55762 -21.82781 203.42773 -22.64062 204.32422 C-24.19376 206.08563 -25.69563 207.89382 -27.13794 209.74707 C-29.26426 212.31973 -31.25656 213.20877 -34.1875 214.75 C-36.97138 216.97839 -38.74402 218.76041 -39.4801 222.32491 C-39.70706 225.25622 -39.77881 228.1556 -39.79907 231.0957 C-39.82419 232.19785 -39.84932 233.30001 -39.8752 234.43555 C-39.94548 237.9573 -39.97784 241.47765 -40 245 C-40.01001 246.11189 -40.02003 247.22377 -40.03035 248.36935 C-40.08527 255.25865 -40.07793 262.1467 -40.0446 269.03609 C-40.02682 272.82952 -40.01679 276.62291 -40.00868 280.41638 C-39.98454 291.17981 -39.94839 301.94318 -39.90405 312.70654 C-39.87724 319.34245 -39.86023 325.97832 -39.84918 332.61427 C-39.843 335.12441 -39.83303 337.63453 -39.81911 340.14464 C-39.79984 343.64139 -39.79299 347.13797 -39.78882 350.63477 C-39.78006 351.65717 -39.7713 352.67957 -39.76227 353.73296 C-39.78228 368.47283 -39.78228 368.47283 -44.6875 374.0625 C-48.59809 376.34983 -50.54395 376.72917 -55 376 C-58.55643 374.0242 -59.74453 372.70986 -61.12561 368.87239 C-62.08029 364.6444 -62.21832 360.93754 -62.17773 356.60425 C-62.17351 355.79147 -62.1693 354.97869 -62.16495 354.14128 C-62.15498 352.37856 -62.14056 350.61585 -62.12218 348.85319 C-62.07276 344.02253 -62.05856 339.1917 -62.03906 334.36084 C-62.03411 333.34932 -62.02915 332.3378 -62.02404 331.29562 C-61.97618 320.1607 -62.0891 309.02858 -62.21875 297.89453 C-62.24131 295.8911 -62.26385 293.88768 -62.28638 291.88425 C-62.34348 286.87723 -62.40322 281.87026 -62.46356 276.86328 C-62.52573 271.65822 -62.58498 266.45313 -62.64453 261.24805 C-62.76029 251.16533 -62.87907 241.08265 -63 231 C-63.75926 231.21656 -64.51852 231.43313 -65.30078 231.65625 C-66.79158 232.07391 -66.79158 232.07391 -68.3125 232.5 C-69.7917 232.91766 -69.7917 232.91766 -71.30078 233.34375 C-74 234 -74 234 -77 234 C-76.9889 235.54016 -76.97779 237.08032 -76.96635 238.66714 C-76.86504 253.17533 -76.79006 267.68344 -76.74094 282.1919 C-76.71484 289.65104 -76.67942 297.10988 -76.6228 304.56885 C-76.56851 311.76598 -76.53858 318.96284 -76.52561 326.16017 C-76.51637 328.90726 -76.49832 331.65435 -76.47135 334.40133 C-76.4351 338.24656 -76.43005 342.09066 -76.43237 345.93604 C-76.40541 347.64292 -76.40541 347.64292 -76.3779 349.38428 C-76.41189 354.58483 -76.5057 357.24302 -79.41048 361.6915 C-82.6787 364.60504 -83.39139 364.94014 -87.8125 365.375 C-92 365 -92 365 -94.9375 362.625 C-98.92228 357.55346 -98.1331 352.7043 -98.11353 346.48193 C-98.11367 345.28195 -98.11382 344.08197 -98.11397 342.84563 C-98.11327 338.86321 -98.10548 334.88084 -98.09766 330.89844 C-98.09579 328.14361 -98.09437 325.38877 -98.09337 322.63394 C-98.08954 315.3708 -98.07971 308.10768 -98.06866 300.84454 C-98.05845 293.43803 -98.05387 286.03152 -98.04883 278.625 C-98.03809 264.08332 -98.02102 249.54166 -98 235 C-101.17022 235.28065 -104.33903 235.57113 -107.50781 235.86719 C-108.39573 235.94477 -109.28366 236.02236 -110.19849 236.10229 C-132.37793 238.21123 -150.23853 250.06519 -164.3125 266.9375 C-180.6804 288.55418 -187.56009 313.34216 -184.50391 340.39062 C-179.67708 370.38784 -163.78027 395.31083 -139.3125 413.0625 C-126.88556 421.73454 -113.29382 426.31854 -98.66016 429.79297 C-93.11818 431.13941 -89.2949 432.16748 -86 437 C-84.64147 441.39523 -84.58628 443.18789 -86.6875 447.3125 C-89.29777 450.34606 -91.46792 451.79316 -95.48828 452.33594 C-124.6291 452.73899 -151.15273 434.41953 -171.6875 415.625 C-194.36789 390.80495 -208.68989 359.87475 -208.14844 325.92578 C-206.38341 291.13625 -192.49036 260.82795 -167 237 C-168.9082 233.1836 -170.55993 231.24589 -173.5 228.25 C-191.09383 209.13069 -200.46653 183.24679 -200.21094 157.35547 C-198.89161 130.1137 -189.14416 108.24403 -171 88 C-170.31809 87.23559 -169.63617 86.47117 -168.93359 85.68359 C-152.44589 68.22424 -127.44137 54.59971 -103.15234 53.66406 C-76.00354 53.26284 -51.18899 60.71621 -30.9375 79.5625 C-27.20923 83.54272 -24.00172 87.90593 -20.75391 92.27734 C-20.19933 93.02045 -19.64475 93.76355 -19.07336 94.52917 C-17.71379 96.35145 -16.35665 98.17555 -15 100 C-15.00444 98.85852 -15.00888 97.71704 -15.01346 96.54097 C-15.05353 85.78503 -15.08398 75.02912 -15.10362 64.27313 C-15.11406 58.74333 -15.12822 53.2136 -15.15088 47.68384 C-15.17261 42.3476 -15.18457 37.01141 -15.18975 31.67513 C-15.19345 29.63897 -15.20067 27.60281 -15.21146 25.56668 C-15.22597 22.71536 -15.22798 19.86429 -15.22705 17.01294 C-15.23149 15.38967 -15.23593 13.76641 -15.24051 12.09395 C-14.9039 6.36426 -14.04927 4.04927 -10 0 C-6.15441 -1.28186 -3.93272 -0.94928 0 0 Z M-157 104.125 C-172.22607 122.07603 -179.16354 143.13527 -177.78516 166.66797 C-175.26473 187.91156 -165.03459 205.9337 -150.03516 220.97266 C-147.18759 223.28883 -147.18759 223.28883 -143.96484 222.96094 C-141.04616 222.01496 -138.34067 220.92542 -135.5625 219.625 C-123.39418 214.49056 -111.31851 213.73899 -98.28394 213.33618 C-85.4025 212.92958 -74.05324 211.65886 -62 207 C-61.98018 205.67347 -61.96036 204.34695 -61.93994 202.98022 C-61.86363 198.03945 -61.77496 193.09895 -61.68262 188.15845 C-61.64443 186.02374 -61.60956 183.88897 -61.57812 181.75415 C-61.53225 178.67832 -61.47429 175.60292 -61.41406 172.52734 C-61.40251 171.57915 -61.39096 170.63096 -61.37906 169.65404 C-61.26492 164.48172 -60.93217 159.83123 -59 155 C-55.18224 153.72741 -52.00886 153.81498 -48 154 C-44 156 -44 156 -42.29297 159.25 C-40.58223 165.53477 -40.43236 171.51366 -40.3125 178 C-40.27834 179.25168 -40.24418 180.50336 -40.20898 181.79297 C-40.12699 184.86189 -40.05768 187.93054 -40 191 C-29.34908 180.72813 -24.66012 166.6377 -23.76172 152.16016 C-23.39077 131.68012 -29.42551 115.28777 -43 100 C-43.88752 98.97133 -43.88752 98.97133 -44.79297 97.92188 C-56.45192 85.29342 -73.7745 76.80274 -90.92578 75.76172 C-117.09756 75.31892 -139.11157 84.8927 -157 104.125 Z " fill="#000000" transform="translate(487,274)"/>
<path d="M0 0 C3.98221 0.10464 4.9043 0.32884 8.1875 2.875 C13.37996 9.90995 11.43254 20.63201 11.4751 29.11084 C11.49165 31.52988 11.51893 33.94888 11.55713 36.36768 C11.61192 39.85475 11.63378 43.34068 11.64844 46.82812 C11.67111 47.90645 11.69378 48.98477 11.71713 50.09576 C11.70272 55.22252 11.59608 57.78253 8.71729 62.16699 C5.89305 64.70875 5.03878 65.41878 1.3125 65.75 C-2.44724 65.45512 -4.01892 64.97012 -6.875 62.5 C-9.87387 56.10545 -10.30525 50.73433 -10.23828 43.83203 C-10.23878 42.83419 -10.23928 41.83635 -10.23979 40.80827 C-10.23746 38.71144 -10.22781 36.6146 -10.21118 34.51782 C-10.18749 31.31176 -10.19064 28.10652 -10.19727 24.90039 C-10.19169 22.85677 -10.18458 20.81314 -10.17578 18.76953 C-10.17669 17.81424 -10.1776 16.85895 -10.17854 15.87471 C-10.08935 7.50196 -9.53246 0.97769 0 0 Z " fill="#000000" transform="translate(434.875,675.5)"/>
<path d="M0 0 C3.21955 2.53454 4.70432 4.11297 6 8 C6.15001 11.61467 6.2313 15.19721 6.25 18.8125 C6.27062 19.79799 6.29125 20.78348 6.3125 21.79883 C6.34187 27.26613 6.19837 31.33414 3 36 C-0.21525 38.21495 -2.15544 39 -6.0625 39 C-10.2736 37.56643 -13.00698 34.98605 -15 31 C-15.2695 27.06821 -15.23162 23.12749 -15.25 19.1875 C-15.27062 18.09373 -15.29125 16.99996 -15.3125 15.87305 C-15.31766 14.81537 -15.32281 13.7577 -15.32812 12.66797 C-15.33747 11.70141 -15.34682 10.73486 -15.35645 9.73901 C-14.92805 6.44716 -14.00579 4.63351 -12 2 C-7.4364 -0.2818 -5.03814 -0.54257 0 0 Z " fill="#000000" transform="translate(515,676)"/>
<path d="M0 0 C4.6875 0.4375 4.6875 0.4375 7.6875 2.8125 C12.70249 9.39468 10.993 18.9138 11.0376 26.91211 C11.05415 29.08865 11.08142 31.26514 11.11963 33.44141 C11.17447 36.58102 11.19628 39.71935 11.21094 42.85938 C11.23361 43.82833 11.25628 44.79728 11.27963 45.79559 C11.26502 50.48227 10.91443 53.09833 8.27979 57.03613 C5.27139 59.82296 4.48329 60.34568 0.4375 60.8125 C-4.27357 60.34139 -6.014 58.736 -9.3125 55.4375 C-11.10976 51.84298 -10.52013 47.57229 -10.55078 43.60938 C-10.55885 42.62761 -10.56692 41.64585 -10.57524 40.63434 C-10.58909 38.55296 -10.59981 36.47155 -10.60767 34.39014 C-10.62486 31.21408 -10.66873 28.03906 -10.71289 24.86328 C-10.72302 22.84115 -10.73153 20.81902 -10.73828 18.79688 C-10.75579 17.8498 -10.7733 16.90272 -10.79134 15.92694 C-10.76548 8.02412 -8.56825 0.86924 0 0 Z " fill="#000000" transform="translate(510.3125,746.5625)"/>
</svg>
