<?xml version="1.0" encoding="UTF-8"?>
<!-- Created with CreateLogo.app :) -->
<svg version="1.1" xmlns="http://www.w3.org/2000/svg" width="1024" height="1024">
<path d="M0 0 C66.8264 0 134.94175 19.26749 194 50 C196.02061 51.0248 196.02061 51.0248 198.08203 52.07031 C209.14134 57.76846 219.57878 64.22167 230 71 C231.05574 71.67676 232.11148 72.35352 233.19922 73.05078 C246.43964 81.6746 259.17825 91.16393 271.10938 101.51953 C274.72966 104.62613 278.48072 107.54408 282.26953 110.44141 C282.84059 110.95574 283.41164 111.47008 284 112 C284 112.66 284 113.32 284 114 C285.32 114.66 286.64 115.32 288 116 C289.85974 117.72116 291.66794 119.49876 293.4375 121.3125 C294.36434 122.25738 295.29117 123.20227 296.24609 124.17578 C297.15488 125.10777 298.06367 126.03977 299 127 C301.93978 129.95941 304.90595 132.8905 307.88281 135.8125 C309.29698 137.20823 310.71104 138.60407 312.125 140 C312.84043 140.69867 313.55586 141.39734 314.29297 142.11719 C317.73263 145.5247 320.79497 148.62414 323 153 C316.18905 159.24953 309.18872 165.19144 302 171 C299.93647 172.68624 297.87394 174.37371 295.8125 176.0625 C294.20833 177.375 292.60417 178.6875 291 180 C287.42238 176.47404 284.00219 172.84274 280.625 169.125 C271.25388 158.94403 261.6332 148.87448 251 140 C250.07445 139.19691 249.14891 138.39383 248.19531 137.56641 C222.22937 115.18745 193.54297 97.37137 163 82 C161.6091 81.2923 160.2182 80.58461 158.78516 79.85547 C113.56095 57.67257 61.16083 44.39067 10.875 42.4375 C7.28625 42.29313 3.6975 42.14875 0 42 C0 28.14 0 14.28 0 0 Z " fill="#000000" transform="translate(507,71)"/>
<path d="M0 0 C0 13.86 0 27.72 0 42 C-5.1975 42.15469 -5.1975 42.15469 -10.5 42.3125 C-91.4088 45.42054 -172.03548 75.24446 -235 126 C-235.95391 126.75926 -236.90781 127.51852 -237.89062 128.30078 C-243.80173 133.055 -249.43 138.05648 -254.98047 143.22656 C-257.24384 145.30547 -259.53019 147.31523 -261.86328 149.3125 C-266.18895 153.08291 -270.10125 157.17012 -274 161.375 C-274.6948 162.11871 -275.38961 162.86242 -276.10547 163.62866 C-280.81579 168.6842 -285.45635 173.79373 -290 179 C-294.5736 176.7132 -298.17384 173.69991 -302.0625 170.4375 C-303.58297 169.16884 -305.10381 167.90061 -306.625 166.63281 C-307.3675 166.0131 -308.11 165.39338 -308.875 164.75488 C-312.58912 161.68766 -316.38811 158.72514 -320.19141 155.76953 C-320.78824 155.18559 -321.38508 154.60164 -322 154 C-322 149.50079 -319.4958 148.0134 -316.4375 144.8125 C-311.42572 139.53189 -311.42572 139.53189 -306.625 134.0625 C-298.82829 125.05893 -290.10272 116.66805 -281 109 C-279.49953 107.68322 -279.49953 107.68322 -277.96875 106.33984 C-269.30054 98.77468 -260.30549 91.75484 -251 85 C-250.32066 84.505 -249.64133 84.01 -248.94141 83.5 C-233.04704 71.96231 -216.55233 61.52256 -199.25488 52.21777 C-196.99227 50.99583 -194.74217 49.75283 -192.49219 48.50781 C-142.51466 21.16212 -84.80573 6.78988 -28.4375 1.1875 C-27.19654 1.06351 -25.95557 0.93952 -24.677 0.81177 C-16.34361 0.04877 -8.48036 0 0 0 Z " fill="#000000" transform="translate(492,71)"/>
<path d="M0 0 C3.15931 3.76215 5.70306 7.66623 8.19922 11.89453 C8.98732 13.22307 9.77542 14.55161 10.5874 15.92041 C11.78164 17.93981 11.78164 17.93981 13 20 C14.46295 22.44254 15.92775 24.88398 17.39453 27.32422 C19.65815 31.09666 21.9215 34.86927 24.18408 38.64233 C27.58622 44.31501 30.98913 49.98712 34.41016 55.64844 C39.90573 64.75205 45.24977 73.92287 50.47949 83.18188 C54.48704 90.22415 58.75171 97.0805 63.16797 103.87329 C65.5479 107.55951 67.35878 110.89695 69 115 C23.79 115 -21.42 115 -68 115 C-66.08364 109.25092 -63.5405 104.78659 -60.3125 99.75 C-55.17681 91.60692 -50.27217 83.36102 -45.5 75 C-40.56177 66.36704 -35.49512 57.84581 -30.21069 49.4209 C-24.17103 39.75377 -18.40087 29.92549 -12.62207 20.10107 C-8.58921 13.26645 -4.49013 6.5442 0 0 Z M-16.875 59.875 C-20.97332 65.90194 -21.90619 71.7617 -21 79 C-18.35447 85.76081 -15.16428 90.16472 -8.875 93.8125 C-2.09984 95.88876 3.61539 95.82943 10.3125 93.5 C15.81603 89.76879 18.87755 85.73293 21.4375 79.5 C22.48498 72.98234 21.48254 67.59695 18 62 C13.81362 56.97634 8.91222 53.56459 2.32031 52.61328 C-5.57585 52.29612 -11.17248 54.17248 -16.875 59.875 Z " fill="#000000" transform="translate(499,131)"/>
<path d="M0 0 C0 3.3 0 6.6 0 10 C-0.9585 10.10957 -1.917 10.21914 -2.90454 10.33203 C-45.87905 15.36889 -85.88914 26.53992 -124.54688 46.32031 C-128 48 -128 48 -130 48 C-129.51104 49.23677 -129.51104 49.23677 -129.01221 50.49854 C-127.85464 54.50284 -127.77337 57.85761 -127.80469 62.02344 C-127.81113 63.53809 -127.81758 65.05273 -127.82422 66.61328 C-127.84936 68.97033 -127.84936 68.97033 -127.875 71.375 C-127.88402 72.96957 -127.89305 74.56414 -127.90234 76.20703 C-127.92588 80.13817 -127.95877 84.06901 -128 88 C-126.7741 87.51145 -125.5482 87.02289 -124.28516 86.51953 C-117.00628 83.93842 -111.22867 84.80073 -104 87 C-104.01571 86.07663 -104.03142 85.15326 -104.04761 84.2019 C-104.10985 80.0305 -104.14896 75.85919 -104.1875 71.6875 C-104.21264 70.23408 -104.23777 68.78066 -104.26367 67.2832 C-104.27334 65.89424 -104.28301 64.50527 -104.29297 63.07422 C-104.30868 61.7912 -104.32439 60.50818 -104.34058 59.18628 C-104 56 -104 56 -101 53 C-98 52 -98 52 -93 54 C-92.67 67.86 -92.34 81.72 -92 96 C-91.01 96.33 -90.02 96.66 -89 97 C-88.01 98.485 -88.01 98.485 -87 100 C-86.36063 99.45988 -85.72125 98.91977 -85.0625 98.36328 C-81.19041 95.37525 -77.14636 92.77561 -73 90.1875 C-71.80891 89.41503 -71.80891 89.41503 -70.59375 88.62695 C-64.68851 84.95094 -64.68851 84.95094 -61.35156 85.18872 C-59 86 -59 86 -57.125 88.8125 C-56 92 -56 92 -57 96 C-59.04688 97.64062 -59.04688 97.64062 -61.75 99.25 C-62.73227 99.85973 -63.71453 100.46945 -64.72656 101.09766 C-66.97419 102.40386 -69.26483 103.63793 -71.58594 104.80859 C-78.31445 108.09608 -78.31445 108.09608 -82.04297 114.17578 C-82.2877 117.19413 -82.30597 119.99049 -82 123 C-81.3632 123.21656 -80.72641 123.43313 -80.07031 123.65625 C-75.75659 125.54419 -71.86958 128.01861 -67.875 130.5 C-67.06418 130.99887 -66.25336 131.49773 -65.41797 132.01172 C-62.24858 133.96574 -59.0982 135.93453 -56 138 C-56.53115 142.51478 -58.3662 145.34667 -61 149 C-64.45218 147.71351 -67.44848 146.2152 -70.53906 144.21484 C-71.36664 143.68439 -72.19422 143.15395 -73.04688 142.60742 C-73.89766 142.05635 -74.74844 141.50527 -75.625 140.9375 C-77.32363 139.83951 -79.02407 138.74433 -80.72656 137.65234 C-81.47502 137.16758 -82.22349 136.68281 -82.99463 136.18335 C-85.08575 134.85487 -85.08575 134.85487 -88 134 C-88.66 135.32 -89.32 136.64 -90 138 C-90.66 138.99 -91.32 139.98 -92 141 C-92.12264 143.90372 -92.11998 146.81318 -92.05469 149.71875 C-92.0294 151.47265 -92.00468 153.22656 -91.98047 154.98047 C-91.93076 157.74587 -91.87474 160.51084 -91.80811 163.27588 C-91.74779 165.94436 -91.71219 168.6123 -91.67969 171.28125 C-91.64601 172.88033 -91.61233 174.47941 -91.57764 176.12695 C-91.78671 178.04411 -91.78671 178.04411 -92 180 C-96 183 -96 183 -98.5625 182.875 C-101 182 -101 182 -104 179 C-104.43237 175.81372 -104.43237 175.81372 -104.51172 171.92578 C-104.54717 170.53682 -104.58262 169.14785 -104.61914 167.7168 C-104.6417 166.26338 -104.66426 164.80996 -104.6875 163.3125 C-104.72166 161.84748 -104.75582 160.38246 -104.79102 158.87305 C-104.87365 155.24877 -104.94276 151.62475 -105 148 C-106.32 148.33 -107.64 148.66 -109 149 C-110.95583 149.11713 -112.91571 149.17504 -114.875 149.1875 C-115.88305 149.20168 -116.89109 149.21586 -117.92969 149.23047 C-121.23544 148.98233 -123.88429 148.09356 -127 147 C-127.00935 147.98396 -127.01869 148.96792 -127.02832 149.98169 C-127.08189 154.42581 -127.16557 158.86886 -127.25 163.3125 C-127.26418 164.86131 -127.27836 166.41012 -127.29297 168.00586 C-127.3252 169.48506 -127.35742 170.96426 -127.39062 172.48828 C-127.41157 173.85509 -127.43252 175.2219 -127.4541 176.63013 C-128 180 -128 180 -132 183 C-137.23077 181.76923 -137.23077 181.76923 -139 180 C-139.03904 177.12132 -139.01116 174.24171 -138.95703 171.36328 C-138.93463 169.57097 -138.91318 167.77866 -138.89258 165.98633 C-138.85557 163.15307 -138.81267 160.32043 -138.75317 157.48755 C-138.69849 154.75854 -138.66953 152.03021 -138.64453 149.30078 C-138.61722 147.66279 -138.58991 146.02479 -138.56177 144.33716 C-139.03098 139.69342 -140.08092 137.56984 -143 134 C-150.40377 138.20072 -157.49634 142.61564 -164.40625 147.59375 C-167 149 -167 149 -171 148 C-173.93355 144.33306 -175 142.76869 -175 138 C-172.93628 136.27661 -172.93628 136.27661 -170.07422 134.58203 C-169.05006 133.96779 -168.0259 133.35355 -166.9707 132.7207 C-165.34552 131.77614 -165.34552 131.77614 -163.6875 130.8125 C-162.61564 130.17119 -161.54379 129.52988 -160.43945 128.86914 C-152.54386 124.18129 -152.54386 124.18129 -149 123 C-148.25072 118.79746 -148.026 115.17894 -149 111 C-152.42143 107.37744 -156.49927 105.2545 -160.875 102.9375 C-163.10411 101.68028 -165.3308 100.41876 -167.55469 99.15234 C-168.54968 98.61601 -169.54468 98.07968 -170.56982 97.5271 C-173 96 -173 96 -175 93 C-173.35 90.36 -171.7 87.72 -170 85 C-164.14778 85.39015 -160.0973 88.17761 -155.375 91.375 C-154.62477 91.87 -153.87453 92.365 -153.10156 92.875 C-149.65569 95.16003 -146.30862 97.51854 -143 100 C-139.50922 95.46077 -139.52864 91.044 -139.48828 85.54297 C-139.46135 84.18852 -139.46135 84.18852 -139.43388 82.80672 C-139.37987 79.93369 -139.34591 77.06083 -139.3125 74.1875 C-139.27932 72.235 -139.24483 70.28253 -139.20898 68.33008 C-139.12415 63.5535 -139.05729 58.77698 -139 54 C-141.67435 55.56182 -144.3473 57.12596 -147.01953 58.69141 C-147.76594 59.12699 -148.51235 59.56257 -149.28137 60.01135 C-172.28244 73.49991 -191.44811 90.41396 -210.25 109.125 C-211.07266 109.94291 -211.89533 110.76082 -212.74292 111.60352 C-213.89885 112.76271 -213.89885 112.76271 -215.07812 113.94531 C-216.10535 114.97423 -216.10535 114.97423 -217.15332 116.02393 C-219.29852 118.24823 -219.29852 118.24823 -222 122 C-226 120 -226 120 -230 117 C-228.51014 111.78051 -224.9854 108.42591 -221.3125 104.625 C-220.64767 103.92818 -219.98283 103.23136 -219.29785 102.51343 C-217.20829 100.33266 -215.10609 98.1648 -213 96 C-212.34113 95.31921 -211.68226 94.63843 -211.00342 93.93701 C-203.4029 86.10751 -195.70502 78.61099 -187 72 C-186.01918 71.24517 -186.01918 71.24517 -185.01855 70.4751 C-165.8668 55.78352 -145.5747 43.77376 -124 33 C-123.18322 32.58766 -122.36644 32.17532 -121.5249 31.75049 C-85.38583 13.59485 -40.79805 -1.13328 0 0 Z M-125 104 C-127.97859 106.97859 -129.97613 109.9045 -131 114 C-130.82659 120.15611 -130.19095 124.37921 -126 129 C-121.43158 132.0198 -118.81672 133.01089 -113.3125 132.9375 C-107.85391 131.75085 -105.36581 130.59345 -101.75 126.375 C-99.53183 122.09711 -99.06678 118.80826 -99 114 C-100.63013 109.29074 -103.04662 106.02812 -107 103 C-113.63053 100.48497 -118.62791 100.59423 -125 104 Z " fill="#000000" transform="translate(459,139)"/>
<path d="M0 0 C20.81182 -0.57321 42.03871 4.53433 62 10 C63.03802 10.28327 64.07604 10.56654 65.14551 10.8584 C111.61769 23.79513 155.26178 46.71511 192 78 C193.03125 78.82887 194.0625 79.65773 195.125 80.51172 C207.4244 90.50498 220.73996 102.08887 230 115 C230 115.99 230 116.98 230 118 C227 120.1875 227 120.1875 224 122 C219.94817 119.97409 217.88008 118.0846 214.74609 114.87109 C213.7258 113.83533 212.70551 112.79957 211.6543 111.73242 C209.53678 109.56348 207.41958 107.39421 205.30273 105.22461 C199.57095 99.40668 193.76057 93.96643 187.36548 88.88403 C184.56284 86.65182 181.91738 84.26617 179.25 81.875 C166.98336 71.43437 152.81591 63.20909 139 55 C139.06887 60.62381 139.15683 66.24688 139.26245 71.87012 C139.29569 73.78279 139.32373 75.69557 139.34644 77.6084 C139.38 80.35915 139.43231 83.109 139.48828 85.85938 C139.49787 87.14083 139.49787 87.14083 139.50764 88.44818 C139.62928 93.3676 139.92969 94.90625 143 99 C146.02552 97.48724 148.77609 95.93931 151.625 94.14453 C152.93211 93.33532 152.93211 93.33532 154.26562 92.50977 C156.09381 91.37498 157.91674 90.23168 159.73438 89.08008 C160.60578 88.54447 161.47719 88.00887 162.375 87.45703 C163.16648 86.96179 163.95797 86.46655 164.77344 85.9563 C167 85 167 85 171 86 C173.25 90.0625 173.25 90.0625 175 94 C172.23062 96.99202 169.62389 98.93322 166.01562 100.8125 C165.08105 101.33199 164.14648 101.85148 163.18359 102.38672 C161.22882 103.46171 159.257 104.50626 157.26953 105.51953 C153.241 107.81596 150.55027 109.37895 149.02075 113.88477 C148.7281 117.33555 148.88503 119.71781 150 123 C152.78343 126.07014 155.99119 127.69917 159.6875 129.5 C161.50533 130.46608 163.32178 131.43476 165.13672 132.40625 C165.98669 132.84582 166.83667 133.28539 167.7124 133.73828 C170.39861 135.21985 172.71306 136.95861 175 139 C173.77264 143.15414 172.67234 145.43689 170 149 C165.88498 147.75446 162.45535 146.24967 158.82031 143.96094 C157.42813 143.09082 157.42813 143.09082 156.00781 142.20312 C155.05648 141.59984 154.10516 140.99656 153.125 140.375 C152.15047 139.76398 151.17594 139.15297 150.17188 138.52344 C147.77767 137.02119 145.38725 135.51326 143 134 C142.34 135.32 141.68 136.64 141 138 C140.67 138.66 140.34 139.32 140 140 C139.89153 142.9452 139.84427 145.89271 139.82422 148.83984 C139.80103 150.64259 139.77691 152.44532 139.75195 154.24805 C139.71678 157.09668 139.68747 159.94488 139.67407 162.7937 C139.65863 165.53878 139.61846 168.2826 139.57422 171.02734 C139.55964 172.67469 139.54505 174.32203 139.53003 176.01929 C139.35512 177.33292 139.18021 178.64656 139 180 C137.68 180.99 136.36 181.98 135 183 C131.8125 182.3125 131.8125 182.3125 129 181 C127.52358 178.04715 127.77727 175.31551 127.68359 172.02344 C127.6417 170.63125 127.5998 169.23906 127.55664 167.80469 C127.51732 166.34289 127.47801 164.88109 127.4375 163.375 C127.39432 161.90547 127.35113 160.43594 127.30664 158.92188 C127.20026 155.28135 127.09824 151.64075 127 148 C125.68 148.33 124.36 148.66 123 149 C120.87735 149.11792 118.75088 149.17511 116.625 149.1875 C115.52414 149.20168 114.42328 149.21586 113.28906 149.23047 C109.88525 148.99196 107.17584 148.21373 104 147 C104.15855 148.24137 104.31711 149.48273 104.48047 150.76172 C105.10703 156.44533 105.25745 162.09809 105.3125 167.8125 C105.35601 169.34681 105.35601 169.34681 105.40039 170.91211 C105.46351 178.32616 105.46351 178.32616 103.14062 181.70312 C101 183 101 183 98.4375 182.9375 C96 182 96 182 93 179 C92.7229 175.25049 92.7229 175.25049 92.84766 170.57031 C92.87586 168.8711 92.90385 167.17188 92.93164 165.47266 C92.99377 162.79748 93.06257 160.12262 93.13696 157.44775 C93.20346 154.86364 93.24534 152.27996 93.28516 149.69531 C93.3252 148.1486 93.36524 146.60188 93.40649 145.0083 C92.95789 140.5848 92.0001 139.15049 89 136 C89 135.34 89 134.68 89 134 C86.3325 135.56109 83.66599 137.12384 81 138.6875 C80.25621 139.12256 79.51242 139.55762 78.74609 140.00586 C78.00488 140.44092 77.26367 140.87598 76.5 141.32422 C75.38045 141.9785 75.38045 141.9785 74.23828 142.646 C72.73426 143.55583 71.25201 144.50257 69.79297 145.48291 C67.91664 146.7409 65.96176 147.87989 64 149 C60 148 60 148 57.6875 144.625 C56 141 56 141 57 138 C59.04688 136.45703 59.04688 136.45703 61.75 134.8125 C62.73355 134.20922 63.71711 133.60594 64.73047 132.98438 C65.80941 132.32953 66.88836 131.67469 68 131 C69.17176 130.26266 70.34352 129.52531 71.55078 128.76562 C80.74102 123 80.74102 123 83 123 C83.28578 118.79116 83.17101 115.07017 82 111 C78.86573 107.74509 75.21056 105.92748 71.1875 103.9375 C69.18046 102.86427 67.17393 101.79008 65.16797 100.71484 C64.2736 100.2623 63.37923 99.80976 62.45776 99.34351 C60 98 60 98 56 95 C57.22736 90.84586 58.32766 88.56311 61 85 C64.82831 85.5727 67.46035 86.65843 70.72266 88.72266 C71.59084 89.26084 72.45902 89.79902 73.35352 90.35352 C75.16406 91.49571 76.97396 92.63895 78.7832 93.7832 C80.08354 94.58854 80.08354 94.58854 81.41016 95.41016 C82.19528 95.90653 82.9804 96.4029 83.78931 96.91431 C86.18791 98.29388 86.18791 98.29388 90 98 C93.59778 93.20296 93.32338 91.52686 93.1875 85.65625 C93.1643 84.01785 93.14109 82.37945 93.11719 80.69141 C93.07987 78.9609 93.04079 77.23043 93 75.5 C92.92019 72.11427 92.86046 68.73032 92.8125 65.34375 C92.7777 63.84006 92.74289 62.33637 92.70703 60.78711 C93 57 93 57 96 53 C99.0625 52.625 99.0625 52.625 102 53 C107.34914 58.34914 105.05608 72.79259 105.0625 80 C105.04679 82.33337 105.02792 84.66674 105 87 C106.06219 86.67516 107.12437 86.35031 108.21875 86.01562 C115.47051 84.06784 120.80473 84.94421 128 87 C128 74.13 128 61.26 128 48 C123.13131 45.80233 118.26327 43.60549 113.38672 41.42578 C110.33102 40.0569 107.2951 38.66564 104.26953 37.23047 C73.02104 22.71846 38.29919 13.85827 4 11 C3.01 10.67 2.02 10.34 1 10 C-0.60139 6.79723 -0.0568 3.52144 0 0 Z M104.1875 106.375 C100.62144 110.65427 99.96579 112.78539 100.125 118.4375 C101.19677 124.026 102.81009 127.1855 107.1875 130.8125 C112.5024 133.05657 117.19827 133.51049 122.75 131.9375 C126.95682 129.42959 129.80216 126.39568 132 122 C132.502 115.06322 132.502 115.06322 130.375 108.625 C126.60352 104.45653 123.56886 102.37354 118.0625 101.0625 C112.14603 100.97148 108.67221 102.58791 104.1875 106.375 Z " fill="#000000" transform="translate(539,139)"/>
<path d="M0 0 C4.85894 3.05643 6.66817 5.08108 8.625 10.5 C9.02911 15.34935 8.80823 17.10472 6 21 C3.29929 23.77573 1.40139 24.87883 -2.3125 26 C-7.29047 26 -9.89942 24.80206 -14 22 C-16.72338 17.27414 -17.07177 14.68186 -16.5 9.25 C-13.62079 1.09223 -8.22237 -0.83415 0 0 Z " fill="#000000" transform="translate(417,178)"/>
<path d="M0 0 C4.3373 2.25206 7.13397 4.4386 9 9 C9.50023 13.50205 9.37692 16.20093 7.4375 20.3125 C4.46062 23.5947 2.25249 24.77471 -2 26 C-7.30847 25.90847 -10.2466 24.7534 -14 21 C-16.28432 16.43136 -16.45877 14.04648 -16 9 C-12.38395 1.90183 -8.00364 -0.9829 0 0 Z " fill="#000000" transform="translate(589,178)"/>
<path d="M0 0 C3.42024 1.63239 5.28637 3.28637 8 6 C9.22098 10.31413 9.40116 12.22739 7.3125 16.25 C5 19 5 19 1 22 C-3.98731 22.38963 -6.47966 22.26017 -11 20 C-13.4988 16.96574 -14.00023 14.99815 -14.5 11.0625 C-13.9008 6.19399 -12.46527 4.38276 -9 1 C-5.9357 -0.53215 -3.38344 -0.22939 0 0 Z " fill="#000000" transform="translate(502,194)"/>
<path d="M0 0 C5.00414 1.50601 8.3881 4.69979 12.1875 8.125 C13.51956 9.30352 14.8529 10.4806 16.1875 11.65625 C16.8359 12.22859 17.4843 12.80094 18.15234 13.39062 C23.24803 17.82915 28.59611 21.94708 34 26 C32.02253 29.95493 29.8395 32.82358 27.0625 36.25 C-16.39184 91.05012 -40.60801 156.59277 -52 225 C-52.20367 226.21301 -52.40734 227.42602 -52.61719 228.67578 C-54.61598 242.00617 -55.13324 255.56514 -56 269 C-70.19 269 -84.38 269 -99 269 C-99 252.09614 -99 252.09614 -98.30078 246.08203 C-98.1465 244.74092 -97.99221 243.39981 -97.83325 242.01807 C-97.6614 240.63023 -97.48956 239.24239 -97.3125 237.8125 C-97.13098 236.32927 -96.94947 234.84604 -96.76245 233.31787 C-93.4441 207.02185 -87.79036 181.61277 -81 156 C-80.61207 154.50847 -80.61207 154.50847 -80.21631 152.98682 C-72.98328 125.47613 -60.80852 99.29266 -48 74 C-47.31792 72.63633 -47.31792 72.63633 -46.62207 71.24512 C-34.80262 47.6698 -20.4253 25.39768 -3.55469 5.13281 C-1.06578 2.31378 -1.06578 2.31378 0 0 Z " fill="#000000" transform="translate(159,236)"/>
<path d="M0 0 C56.75094 40.86068 85.1225 149.71897 95.96875 214.64453 C96.72797 219.41932 97.38206 224.20479 98 229 C98.19336 230.47984 98.38672 231.95969 98.58594 233.48438 C99.97648 244.9715 100.56699 256.44537 101 268 C96.58469 269.10383 92.84914 269.11283 88.29688 269.09766 C87.45909 269.09624 86.6213 269.09483 85.75812 269.09337 C83.08871 269.08778 80.41938 269.07523 77.75 269.0625 C75.9375 269.05748 74.125 269.05292 72.3125 269.04883 C67.87497 269.03782 63.43749 269.02056 59 269 C58.85752 267.40237 58.85752 267.40237 58.71216 265.77246 C51.70485 188.47167 30.66866 109.83946 -17 47 C-17.89074 45.82438 -18.78148 44.64875 -19.69922 43.4375 C-24.36896 37.27959 -24.36896 37.27959 -29.35156 31.37891 C-29.89555 30.59387 -30.43953 29.80883 -31 29 C-29.75457 24.01826 -28.06034 23.02096 -24.125 19.8125 C-22.95066 18.84699 -21.77633 17.88148 -20.56641 16.88672 C-19.38949 15.9341 -18.21258 14.98148 -17 14 C-15.02072 12.37514 -13.04154 10.75015 -11.0625 9.125 C-9.73992 8.04799 -9.73992 8.04799 -8.39062 6.94922 C-5.57581 4.65414 -2.7839 2.33245 0 0 Z " fill="#000000" transform="translate(838,236)"/>
<path d="M0 0 C4.07391 1.33328 5.42614 2.3537 7.4375 6.125 C7.51777 10.05842 6.89917 11.59544 4.3125 14.5625 C1.4375 16.125 1.4375 16.125 -2.1875 16.125 C-5.5625 15.125 -5.5625 15.125 -8.5625 11.125 C-9.25734 7.04284 -8.89919 5.60452 -6.5 2.1875 C-3.5625 0.125 -3.5625 0.125 0 0 Z " fill="#000000" transform="translate(344.5625,247.875)"/>
<path d="M0 0 C3.5515 1.01471 4.94283 1.85855 7.0625 4.875 C7.625 7.8125 7.625 7.8125 7.0625 10.875 C4.57648 14.23844 3.14824 15.67558 -1 16.4375 C-4.62187 15.74395 -5.77675 14.83602 -7.9375 11.875 C-8.875 9.4375 -8.875 9.4375 -8.9375 6.875 C-6.94685 2.59511 -5.0609 -0.21536 0 0 Z " fill="#000000" transform="translate(655.9375,248.125)"/>
<path d="M0 0 C13.40589 12.74817 22.0959 29.78414 22.67326 48.41805 C22.68178 50.50631 22.67439 52.59469 22.65308 54.68286 C22.65351 55.83568 22.65395 56.9885 22.6544 58.17625 C22.65234 61.93669 22.6291 65.69667 22.60547 69.45703 C22.59987 72.08404 22.5956 74.71105 22.59261 77.33806 C22.58121 84.21478 22.55179 91.09131 22.51849 97.96796 C22.48767 105.0001 22.47407 112.03227 22.45898 119.06445 C22.42692 132.83472 22.37579 146.60484 22.3125 160.375 C25.9425 160.375 29.5725 160.375 33.3125 160.375 C33.3125 147.175 33.3125 133.975 33.3125 120.375 C41.2325 120.375 49.1525 120.375 57.3125 120.375 C57.38218 137.84811 57.4354 155.32119 57.46794 172.79441 C57.48356 180.90897 57.50472 189.02343 57.53882 197.13794 C57.57155 204.977 57.58938 212.81597 57.59713 220.65509 C57.60265 223.63754 57.61343 226.61999 57.62969 229.6024 C57.65164 233.79763 57.65446 237.99247 57.65308 242.18774 C57.66386 243.40552 57.67465 244.62329 57.68576 245.87796 C57.59786 270.70919 47.79205 293.75781 30.3125 311.375 C29.4875 312.24125 28.6625 313.1075 27.8125 314 C26.9875 314.78375 26.1625 315.5675 25.3125 316.375 C24.73887 316.95508 24.16523 317.53516 23.57422 318.13281 C4.37979 336.56814 -24.34653 343.85964 -50.40234 343.52344 C-78.52078 342.25293 -105.22986 331.05392 -124.83594 310.67188 C-146.84319 285.22787 -150.46487 259.41476 -150.17578 227.11328 C-150.16644 224.02403 -150.15933 220.93477 -150.15434 217.8455 C-150.13539 209.77521 -150.0864 201.70537 -150.03082 193.63525 C-149.97937 185.37604 -149.95677 177.11675 -149.93164 168.85742 C-149.87826 152.69641 -149.7931 136.53575 -149.6875 120.375 C-142.0975 120.375 -134.5075 120.375 -126.6875 120.375 C-126.6875 133.575 -126.6875 146.775 -126.6875 160.375 C-122.7275 160.375 -118.7675 160.375 -114.6875 160.375 C-114.69416 158.93 -114.70082 157.48499 -114.70769 155.9962 C-114.7687 142.3296 -114.81357 128.66302 -114.84294 114.99631 C-114.85854 107.97136 -114.87969 100.94652 -114.91382 93.92163 C-114.94659 87.13295 -114.96439 80.34438 -114.97213 73.55564 C-114.97764 70.9751 -114.98841 68.39456 -115.00469 65.81407 C-115.15435 41.09854 -113.43038 21.43066 -95.25781 2.88672 C-94.40961 2.05785 -93.56141 1.22898 -92.6875 0.375 C-91.10969 -1.23375 -91.10969 -1.23375 -89.5 -2.875 C-61.85264 -22.81736 -26.1128 -22.31523 0 0 Z M-72.31445 37.729 C-74.0055 40.98782 -74.29158 42.7505 -73.6875 46.375 C-72.34884 49.1869 -72.34884 49.1869 -69.6875 51.375 C-66.31865 51.91373 -63.44143 52.1436 -60.06641 52.15234 C-59.12949 52.17221 -58.19258 52.19207 -57.22728 52.21254 C-55.24798 52.24969 -53.26842 52.275 -51.28882 52.28931 C-48.26374 52.3124 -45.24119 52.37275 -42.2168 52.43945 C-40.2917 52.47095 -38.36657 52.50031 -36.44141 52.52734 C-35.08808 52.55211 -35.08808 52.55211 -33.70741 52.57738 C-29.28544 52.59842 -25.5872 52.58579 -21.6875 50.375 C-18.37733 47.67516 -18.37733 47.67516 -18.25 44 C-18.78035 39.60571 -19.36778 38.29609 -22.6875 35.375 C-26.35628 34.87052 -29.54959 34.67361 -33.21875 34.71094 C-34.24682 34.70615 -35.27489 34.70137 -36.33411 34.69644 C-38.50612 34.69304 -40.67818 34.70225 -42.8501 34.72314 C-46.17596 34.74991 -49.49846 34.7234 -52.82422 34.69141 C-54.9349 34.69471 -57.04559 34.70112 -59.15625 34.71094 C-60.64856 34.69576 -60.64856 34.69576 -62.17102 34.68027 C-67.75959 34.76468 -67.75959 34.76468 -72.31445 37.729 Z M-71.82227 75.65869 C-74.07667 78.39257 -74.07667 78.39257 -73.6875 82.5 C-72.98244 86.58804 -72.98244 86.58804 -69.6875 89.375 C-66.6257 89.88348 -66.6257 89.88348 -63.10547 89.88672 C-61.11677 89.93989 -61.11677 89.93989 -59.08789 89.99414 C-57.00251 90.02798 -57.00251 90.02798 -54.875 90.0625 C-53.52729 90.09666 -52.17957 90.13082 -50.79102 90.16602 C-48.088 90.22972 -45.38465 90.28038 -42.68115 90.31787 C-40.03002 90.3558 -37.37911 90.41583 -34.729 90.49854 C-33.49457 90.52609 -32.26013 90.55364 -30.98828 90.58203 C-29.89298 90.61402 -28.79768 90.646 -27.66919 90.67896 C-24.25337 90.33074 -22.42553 89.41026 -19.6875 87.375 C-18.11814 84.23629 -18.33549 81.83644 -18.6875 78.375 C-20.5078 75.484 -20.5078 75.484 -23.6875 73.375 C-27.2388 72.87759 -30.29603 72.67285 -33.84375 72.71094 C-34.82364 72.70615 -35.80353 72.70137 -36.81311 72.69644 C-38.88079 72.69305 -40.94853 72.70223 -43.01611 72.72314 C-46.17733 72.74991 -49.33499 72.72339 -52.49609 72.69141 C-54.50782 72.69471 -56.51954 72.70112 -58.53125 72.71094 C-59.94549 72.69576 -59.94549 72.69576 -61.38831 72.68027 C-65.74833 72.75797 -68.25623 73.06082 -71.82227 75.65869 Z M-72.3064 113.7251 C-73.9743 116.92529 -74.14263 118.80984 -73.6875 122.375 C-72.02083 126.70833 -72.02083 126.70833 -67.6875 128.375 C-64.45103 128.58067 -61.30308 128.67904 -58.06641 128.67578 C-57.12949 128.68007 -56.19258 128.68435 -55.22728 128.68877 C-53.2478 128.6945 -51.2683 128.69501 -49.28882 128.69067 C-46.26444 128.68752 -43.24105 128.71098 -40.2168 128.73633 C-38.29167 128.7386 -36.36654 128.7393 -34.44141 128.73828 C-33.53919 128.74749 -32.63697 128.7567 -31.70741 128.76619 C-26.8844 128.73075 -23.48655 128.49204 -19.6875 125.375 C-18.11814 122.23629 -18.33549 119.83644 -18.6875 116.375 C-20.49147 113.47882 -20.49147 113.47882 -23.6875 111.375 C-27.31975 110.87784 -30.46865 110.67299 -34.09766 110.71094 C-35.10211 110.70615 -36.10657 110.70137 -37.14146 110.69644 C-39.26042 110.69305 -41.37943 110.70223 -43.49829 110.72314 C-46.74288 110.74994 -49.98403 110.72337 -53.22852 110.69141 C-55.28907 110.69471 -57.34962 110.70112 -59.41016 110.71094 C-60.38002 110.70082 -61.34988 110.6907 -62.34914 110.68027 C-66.62629 110.7548 -69.05569 110.80804 -72.3064 113.7251 Z M-71.25366 151.19556 C-73.31591 154.33018 -73.6875 156.63606 -73.6875 160.375 C-71.92109 163.17689 -70.657 164.89025 -67.6875 166.375 C-61.4649 166.66166 -55.24103 166.68883 -49.01245 166.7251 C-46.92607 166.74166 -44.83975 166.76895 -42.75366 166.80713 C-39.74563 166.8619 -36.73893 166.88377 -33.73047 166.89844 C-32.8001 166.92111 -31.86974 166.94378 -30.91118 166.96713 C-26.54487 166.9529 -24.13939 166.71355 -20.59888 164.06104 C-18.44053 161.43309 -18.44053 161.43309 -18.0625 157.875 C-18.87452 153.32766 -19.99802 152.13869 -23.6875 149.375 C-27.25097 148.8898 -30.32081 148.69623 -33.87891 148.74609 C-34.86117 148.74368 -35.84343 148.74127 -36.85545 148.73878 C-38.92736 148.73976 -40.99929 148.75313 -43.07104 148.77808 C-46.24293 148.81242 -49.41203 148.79872 -52.58398 148.7793 C-54.59897 148.78619 -56.61395 148.79587 -58.62891 148.80859 C-59.5769 148.80363 -60.52489 148.79867 -61.5016 148.79356 C-65.37655 148.86294 -68.03837 148.91447 -71.25366 151.19556 Z M-71.78711 189.729 C-73.8842 192.25453 -73.8842 192.25453 -74.25 195.375 C-73.56392 199.03408 -72.26016 200.72668 -69.6875 203.375 C-64.19198 206.12276 -55.13935 204.68942 -49.01245 204.7251 C-46.92607 204.74166 -44.83975 204.76895 -42.75366 204.80713 C-39.74563 204.8619 -36.73893 204.88377 -33.73047 204.89844 C-32.8001 204.92111 -31.86974 204.94378 -30.91118 204.96713 C-26.54487 204.9529 -24.13939 204.71355 -20.59888 202.06104 C-18.44053 199.43309 -18.44053 199.43309 -18.0625 195.875 C-18.87432 191.32879 -20.00145 190.1407 -23.6875 187.375 C-27.2388 186.87759 -30.29603 186.67285 -33.84375 186.71094 C-34.82364 186.70615 -35.80353 186.70137 -36.81311 186.69644 C-38.88079 186.69305 -40.94853 186.70223 -43.01611 186.72314 C-46.17733 186.74991 -49.33499 186.72339 -52.49609 186.69141 C-54.50782 186.69471 -56.51954 186.70112 -58.53125 186.71094 C-59.94549 186.69576 -59.94549 186.69576 -61.38831 186.68027 C-65.78714 186.75866 -68.23774 187.03343 -71.78711 189.729 Z M22.3125 188.375 C22.29848 190.23294 22.29848 190.23294 22.28418 192.12842 C22.24369 196.8143 22.17778 201.49957 22.10498 206.18506 C22.07711 208.19604 22.05573 210.20713 22.0415 212.21826 C21.86194 236.19649 18.25403 257.18515 1.3125 275.375 C0.72211 276.01953 0.13172 276.66406 -0.47656 277.32812 C-12.34366 288.93383 -29.5566 293.67179 -45.70312 294.42969 C-63.70055 294.18266 -80.80511 288.1098 -93.6875 275.375 C-111.411 257.10862 -114.27171 234.09123 -114.4375 209.875 C-114.46573 207.77992 -114.49567 205.68487 -114.52734 203.58984 C-114.60038 198.51827 -114.65045 193.44696 -114.6875 188.375 C-118.6475 188.375 -122.6075 188.375 -126.6875 188.375 C-126.73734 195.66666 -126.77343 202.95821 -126.79736 210.25 C-126.80735 212.72495 -126.82095 215.19989 -126.83838 217.6748 C-127.05012 248.53937 -123.20582 273.38349 -100.6875 296.375 C-82.30556 312.98609 -61.5775 317.65729 -37.55225 316.57764 C-18.10494 315.20204 -1.18494 306.18634 12.3125 292.375 C27.46446 274.33398 33.50615 255.92239 33.41016 232.6875 C33.40874 231.38925 33.40733 230.09101 33.40587 228.75342 C33.40029 224.62725 33.38775 220.50115 33.375 216.375 C33.36998 213.56901 33.36542 210.76302 33.36133 207.95703 C33.35033 201.09634 33.33362 194.23567 33.3125 187.375 C27.72225 187.21685 27.72225 187.21685 22.3125 188.375 Z M-71.7832 228.73291 C-73.86721 231.25014 -73.86721 231.25014 -74.3125 234.3125 C-73.43154 238.62919 -71.92799 240.38521 -68.6875 243.375 C-65.0704 243.97052 -62.1429 244.19526 -58.53125 244.13672 C-57.55136 244.14009 -56.57147 244.14346 -55.56189 244.14693 C-53.49417 244.14663 -51.4264 244.13142 -49.35889 244.10229 C-46.19752 244.06263 -43.04034 244.08159 -39.87891 244.10742 C-37.86717 244.09986 -35.85545 244.08891 -33.84375 244.07422 C-32.42951 244.08469 -32.42951 244.08469 -30.98669 244.09538 C-26.61392 244.0015 -24.13279 243.70943 -20.5918 241.05005 C-18.44006 238.43101 -18.44006 238.43101 -18.0625 234.875 C-18.87432 230.32879 -20.00145 229.1407 -23.6875 226.375 C-27.2388 225.87759 -30.29603 225.67285 -33.84375 225.71094 C-34.82364 225.70615 -35.80353 225.70137 -36.81311 225.69644 C-38.88079 225.69305 -40.94853 225.70223 -43.01611 225.72314 C-46.17733 225.74991 -49.33499 225.72339 -52.49609 225.69141 C-54.50782 225.69471 -56.51954 225.70112 -58.53125 225.71094 C-59.94549 225.69576 -59.94549 225.69576 -61.38831 225.68027 C-65.7888 225.75869 -68.23597 226.03108 -71.7832 228.73291 Z " fill="#000000" transform="translate(545.6875,278.625)"/>
<path d="M0 0 C0.66 0 1.32 0 2 0 C2.59813 1.25813 3.19625 2.51625 3.8125 3.8125 C6.95269 9.82373 9.84912 11.56286 16 14 C14.02 14.99 14.02 14.99 12 16 C6.36072 19.1196 4.10592 22.51896 1 28 C-0.30826 26.03761 -1.56162 24.03722 -2.75 22 C-5.26995 18.64007 -7.1692 17.59617 -11 16 C-12.32 15.34 -13.64 14.68 -15 14 C-13.5975 13.4225 -12.195 12.845 -10.75 12.25 C-5.6376 9.95464 -2.81703 8.12427 -0.75 2.75 C-0.37875 1.38875 -0.37875 1.38875 0 0 Z " fill="#000000" transform="translate(215,279)"/>
<path d="M0 0 C0.66 0 1.32 0 2 0 C2.59812 1.25813 3.19625 2.51625 3.8125 3.8125 C6.95269 9.82373 9.84912 11.56286 16 14 C14.02 14.99 14.02 14.99 12 16 C6.64246 19.28013 3.84758 22.30483 1 28 C0.62488 27.38512 0.24977 26.77023 -0.13672 26.13672 C-3.66093 20.57077 -6.16869 16.93654 -12.8125 15.3125 C-13.53437 15.20938 -14.25625 15.10625 -15 15 C-13 13 -13 13 -9.625 11.625 C-4.76131 9.44473 -2.66952 7.74075 -0.75 2.75 C-0.37875 1.38875 -0.37875 1.38875 0 0 Z " fill="#000000" transform="translate(780,279)"/>
<path d="M0 0 C3.03988 2.8175 5.07088 5.54646 7.05859 9.17578 C7.60967 10.169 8.16074 11.16223 8.72852 12.18555 C9.29248 13.21744 9.85645 14.24934 10.4375 15.3125 C14.00064 21.80323 17.53522 28.08312 22 34 C21.505 34.99 21.505 34.99 21 36 C19.40672 35.56687 19.40672 35.56687 17.78125 35.125 C16.36844 34.75375 14.95562 34.3825 13.5 34 C12.10781 33.62875 10.71562 33.2575 9.28125 32.875 C2.41157 31.47098 -3.45552 31.87357 -10.25 33.4375 C-11.43078 33.70434 -12.61156 33.97117 -13.82812 34.24609 C-16.22249 34.8152 -18.61241 35.4031 -21 36 C-16.98778 27.6498 -12.55598 19.69114 -7.6875 11.8125 C-7.05521 10.77803 -6.42293 9.74355 -5.77148 8.67773 C-1.16004 1.16004 -1.16004 1.16004 0 0 Z " fill="#000000" transform="translate(258,281)"/>
<path d="M0 0 C3.72189 1.24063 3.93766 2.1779 5.74219 5.55859 C6.25137 6.50283 6.76055 7.44707 7.28516 8.41992 C7.8098 9.41572 8.33445 10.41152 8.875 11.4375 C9.39191 12.3985 9.90883 13.35949 10.44141 14.34961 C13.74059 20.51168 16.89942 26.73592 20 33 C19.21271 32.76942 18.42541 32.53884 17.61426 32.30127 C5.14007 28.7338 -5.58351 29.58597 -18 33 C-12.5273 21.64185 -6.51329 10.78431 0 0 Z " fill="#000000" transform="translate(739,282)"/>
<path d="M0 0 C3.71824 1.23941 4.67379 2.9234 7 6 C7.66 6.66 8.32 7.32 9 8 C3.5 12 3.5 12 -1 12 C-4.25 10 -4.25 10 -7 8 C-6.21625 7.23687 -5.4325 6.47375 -4.625 5.6875 C-1.92742 3.09108 -1.92742 3.09108 0 0 Z " fill="#000000" transform="translate(192,309)"/>
<path d="M0 0 C4.28981 2.1449 6.08676 4.27752 9 8 C7.85531 8.64969 7.85531 8.64969 6.6875 9.3125 C3.77514 11.00203 3.77514 11.00203 1 14 C-1.31 12.02 -3.62 10.04 -6 8 C-5.19562 7.05125 -4.39125 6.1025 -3.5625 5.125 C-1.06491 2.31426 -1.06491 2.31426 0 0 Z " fill="#000000" transform="translate(803,309)"/>
<path d="M0 0 C12.73949 0.66179 22.38085 4.88788 31.17969 14.21875 C38.61452 23.46783 41.15534 33.39757 40.875 45.125 C39.60937 56.35377 33.10776 66.76831 24.8125 74.25 C14.84426 81.5284 3.68389 84.22648 -8.52344 82.88281 C-20.1338 80.64899 -28.49726 75.20553 -35.53125 65.75 C-42.55362 55.1502 -43.31427 44.66424 -42.1875 32.25 C-40.27102 24.09422 -36.15376 18.00919 -30.1875 12.25 C-29.13563 11.19813 -28.08375 10.14625 -27 9.0625 C-18.70851 2.94582 -10.15661 0.60636 0 0 Z M-14.5625 31.6875 C-18.29273 37.56979 -18.60542 41.25495 -17.1875 48.25 C-14.848 52.51615 -13.07631 54.73013 -8.875 57.1875 C-2.93251 58.89974 1.15912 58.84226 7 56.75 C11.62417 53.71776 13.48938 51.25922 15.8125 46.25 C16.41705 41.27924 16.40362 38.41035 14.125 33.9375 C9.80054 28.91177 5.65423 25.76223 -1 24.875 C-6.47175 25.51873 -10.7293 27.75343 -14.5625 31.6875 Z " fill="#000000" transform="translate(742.1875,318.75)"/>
<path d="M0 0 C2.2876 0.79858 2.2876 0.79858 3.2876 1.79858 C1.6735 30.85235 1.6735 30.85235 -6.7749 38.61108 C-11.64027 42.23423 -15.765 42.28798 -21.7124 41.79858 C-24.05163 41.1529 -26.38576 40.48826 -28.7124 39.79858 C-29.32761 40.43997 -29.94281 41.08136 -30.57666 41.74219 C-33.35888 44.62805 -36.16021 47.49462 -38.9624 50.36108 C-39.93049 51.37106 -40.89857 52.38104 -41.896 53.42163 C-43.29785 54.84766 -43.29785 54.84766 -44.72803 56.30249 C-45.58687 57.18751 -46.4457 58.07253 -47.33057 58.98438 C-48.11657 59.58306 -48.90258 60.18175 -49.7124 60.79858 C-53.7124 59.79858 -53.7124 59.79858 -56.7124 57.79858 C-55.25457 53.00089 -52.62433 50.37695 -49.07568 46.90405 C-47.94066 45.78321 -46.80564 44.66237 -45.63623 43.50757 C-44.43289 42.3333 -43.22911 41.15947 -42.0249 39.98608 C-32.4222 30.64441 -32.4222 30.64441 -23.40552 20.74951 C-19.79651 16.59096 -15.93577 12.67164 -12.0874 8.73608 C-10.8383 7.41834 -10.8383 7.41834 -9.56396 6.07397 C-8.75443 5.24962 -7.9449 4.42526 -7.11084 3.57593 C-6.02295 2.45046 -6.02295 2.45046 -4.91309 1.30225 C-2.7124 -0.20142 -2.7124 -0.20142 0 0 Z M-21.24365 29.09937 C-22.93038 30.67643 -22.93038 30.67643 -22.7124 32.79858 C-19.68803 34.31077 -17.04999 33.97122 -13.7124 33.79858 C-9.66997 32.29565 -9.66997 32.29565 -8.70068 29.62671 C-8.47768 28.77593 -8.25467 27.92515 -8.0249 27.04858 C-7.78771 26.15913 -7.55053 25.26968 -7.30615 24.35327 C-6.64644 21.51476 -6.09265 18.68847 -5.7124 15.79858 C-10.0807 15.79858 -18.08731 26.00979 -21.24365 29.09937 Z " fill="#000000" transform="translate(406.71240234375,323.201416015625)"/>
<path d="M0 0 C4.77544 1.19386 6.17734 2.81651 9.61328 6.28516 C10.69674 7.37377 11.7802 8.46238 12.89648 9.58398 C14.02377 10.73189 15.15105 11.8798 16.3125 13.0625 C17.98603 14.74376 17.98603 14.74376 19.69336 16.45898 C25.33293 22.15205 30.78012 27.92177 36 34 C37.13437 35.11375 38.26875 36.2275 39.4375 37.375 C42 40 42 40 42 42 C42.66 42 43.32 42 44 42 C45.74861 43.94656 47.4914 45.89933 49.17969 47.89844 C51.10906 50.19187 51.10906 50.19187 53.9375 52.8125 C56 55 56 55 56 58 C54.68 58.99 53.36 59.98 52 61 C47.14262 59.78565 45.6561 57.99515 42.1875 54.4375 C41.13434 53.35855 40.08117 52.27961 38.99609 51.16797 C35.55317 47.52753 32.23627 43.82468 29 40 C28.31035 40.23977 27.6207 40.47953 26.91016 40.72656 C20.26735 42.82237 15.78517 43.36453 9 41 C4.64774 38.3508 3.0343 35.60103 1 31 C-0.1031 26.32128 -0.70455 21.57073 -1.375 16.8125 C-1.57738 15.52924 -1.77977 14.24598 -1.98828 12.92383 C-2.16488 11.69729 -2.34148 10.47074 -2.52344 9.20703 C-2.68763 8.08788 -2.85183 6.96874 -3.021 5.81567 C-3 3 -3 3 0 0 Z M7 17 C7.47365 24.10476 7.7991 28.7991 13 34 C17 34.33333 17 34.33333 21 34 C21.66 33.34 22.32 32.68 23 32 C15.98144 23.36016 15.98144 23.36016 7 17 Z " fill="#000000" transform="translate(591,323)"/>
<path d="M0 0 C7.89111 4.57863 12.19413 11.28895 14.5625 19.9375 C15.56491 28.95915 12.97527 35.61324 7.75 42.8125 C1.82706 48.6193 -3.89573 51.04561 -12.125 51.25 C-19.05235 51.1573 -24.15906 49.94114 -29.44141 45.10156 C-36.21293 37.72216 -38.02205 31.68715 -37.77734 21.70312 C-37.11094 14.31907 -35.08017 9.09502 -29.625 4 C-20.84145 -2.82092 -10.36161 -4.74255 0 0 Z M-19 19 C-20.87376 22.82898 -20.56713 24.87084 -19.4375 28.9375 C-16.36582 32.00918 -15.60471 32.73906 -11.4375 32.9375 C-7.95115 31.31594 -6.59448 30.17297 -4.4375 26.9375 C-3.98565 23.39799 -4.01641 21.60423 -5.9375 18.5625 C-10.45351 15.62709 -14.79264 15.61359 -19 19 Z " fill="#000000" transform="translate(270.4375,327.0625)"/>
<path d="M0 0 C0.66 0.33 1.32 0.66 2 1 C1.59008 1.64066 1.18016 2.28133 0.75781 2.94141 C-4.58193 11.5131 -7.11979 18.82631 -6 29 C-4.36952 35.32861 -1.91201 40.73903 2 46 C2.33 46.66 2.66 47.32 3 48 C-8.61387 46.56253 -20.477 37.55411 -29 30 C-30.19625 29.01 -31.3925 28.02 -32.625 27 C-33.40875 26.34 -34.1925 25.68 -35 25 C-31.31358 13.94075 -12.22217 5.95851 -2.43359 0.96875 C-1.63051 0.64906 -0.82742 0.32938 0 0 Z " fill="#000000" transform="translate(230,328)"/>
<path d="M0 0 C13.1884 1.79618 27.04886 13.66341 36 23 C30.18023 34.63953 13.91784 43.61367 2 48 C1.01 47.67 0.02 47.34 -1 47 C-0.07187 45.72125 0.85625 44.4425 1.8125 43.125 C6.81106 35.5858 8.87065 28.0796 8 19 C6.12991 12.30602 3.23772 6.12855 0 0 Z " fill="#000000" transform="translate(285,328)"/>
<path d="M0 0 C5.10653 1.27663 8.27974 4.15818 12.25 7.4375 C12.99508 8.03627 13.74016 8.63504 14.50781 9.25195 C16.38118 10.78393 18.19601 12.3869 20 14 C20 14.66 20 15.32 20 16 C18.37374 17.38232 16.7075 18.71938 15 20 C11.15478 18.07739 7.8867 15.90679 4.375 13.4375 C0.31604 10.50518 0.31604 10.50518 -4 8 C-2.87548 5.02806 -1.77706 2.66559 0 0 Z " fill="#000000" transform="translate(343,331)"/>
<path d="M0 0 C3 1 3 1 6 5 C6 5.99 6 6.98 6 8 C3.45517 10.04474 0.9524 11.87577 -1.75 13.6875 C-2.47961 14.19861 -3.20922 14.70973 -3.96094 15.23633 C-7.61185 17.72227 -9.49028 19 -14 19 C-14.99 18.34 -15.98 17.68 -17 17 C-15.21143 9.84571 -8.25474 5.7218 -2.5625 1.375 C-1.71687 0.92125 -0.87125 0.4675 0 0 Z " fill="#000000" transform="translate(653,331)"/>
<path d="M0 0 C0.97623 3.90492 0.70812 6.36209 0.19141 10.27344 C-0.17764 15.53053 0.47442 20.76848 1 26 C-0.13437 25.13375 -1.26875 24.2675 -2.4375 23.375 C-6.84346 20.06462 -11.39312 17.02326 -16 14 C-12.03683 9.77262 -7.65112 6.24615 -3.10938 2.67188 C-1.13249 1.1708 -1.13249 1.1708 0 0 Z " fill="#000000" transform="translate(693,345)"/>
<path d="M0 0 C3.37069 1.92023 6.25462 3.95665 9.125 6.5625 C11.37673 8.59957 13.46053 10.30702 16 12 C13.70247 16.59507 11.46161 18.20507 7.375 21.25 C6.18648 22.14203 4.99797 23.03406 3.77344 23.95312 C2.8582 24.62859 1.94297 25.30406 1 26 C-0.34765 23.3047 0.15514 21.61122 0.5 18.625 C1.10493 12.30007 0.72581 6.29776 0 0 Z " fill="#000000" transform="translate(788,345)"/>
<path d="M0 0 C4.75974 1.33868 7.19261 3.43 10.91016 6.59766 C15.43259 10.29679 20.2277 13.57843 25.02295 16.91138 C35.83044 24.44678 35.83044 24.44678 37 29.125 C36.01 30.445 35.02 31.765 34 33.125 C28.47252 32.69658 25.48356 30.64579 21.125 27.3125 C19.82434 26.32766 18.52367 25.34281 17.18359 24.32812 C16.5041 23.8067 15.8246 23.28527 15.12451 22.74805 C12.94089 21.07984 10.74101 19.43554 8.53516 17.79688 C-2.63796 9.48704 -2.63796 9.48704 -5 7.125 C-5 0.20833 -5 0.20833 0 0 Z " fill="#000000" transform="translate(156,368.875)"/>
<path d="M0 0 C2 2 2 2 2 7 C0.38281 8.77124 0.38281 8.77124 -1.875 10.37109 C-2.69871 10.96648 -3.52242 11.56187 -4.37109 12.17529 C-5.6724 13.07852 -5.6724 13.07852 -7 14 C-7.81598 14.5854 -8.63195 15.17079 -9.47266 15.77393 C-11.96815 17.55705 -14.481 19.31277 -17 21.0625 C-17.83789 21.64838 -18.67578 22.23426 -19.53906 22.83789 C-21.20322 23.99842 -22.87241 25.15176 -24.54688 26.29736 C-26.20392 27.44747 -27.83932 28.62932 -29.45312 29.83936 C-31.8125 31.55859 -31.8125 31.55859 -36 34 C-38.367 33.31169 -40.23449 32.76551 -42 31 C-42 26 -42 26 -40.36523 24.21118 C-39.61564 23.67872 -38.86605 23.14625 -38.09375 22.59766 C-37.27004 22.00227 -36.44633 21.40688 -35.59766 20.79346 C-34.74043 20.20162 -33.8832 19.60978 -33 19 C-32.21496 18.44554 -31.42992 17.89108 -30.62109 17.31982 C-28.2619 15.67006 -25.88477 14.05004 -23.5 12.4375 C-22.7098 11.89932 -21.91961 11.36113 -21.10547 10.80664 C-19.52683 9.73311 -17.94484 8.6645 -16.35938 7.60107 C-14.75087 6.50954 -13.1575 5.39547 -11.57812 4.26221 C-7.25856 1.21473 -5.43444 0 0 0 Z " fill="#000000" transform="translate(847,369)"/>
<path d="M0 0 C4.52346 2.26173 5.05829 3.53406 7 8 C-8.74487 21.81777 -8.74487 21.81777 -16 27 C-20 25 -20 25 -23 22 C-20.69955 17.39911 -18.24585 15.41046 -14.3125 12.125 C-13.11238 11.11695 -11.91227 10.10891 -10.67578 9.07031 C-9.46277 8.05711 -8.24977 7.04391 -7 6 C-4.66085 4.00666 -2.33003 2.00401 0 0 Z " fill="#000000" transform="translate(323,385)"/>
<path d="M0 0 C4.67921 2.54246 8.57183 5.89052 12.5625 9.375 C13.22186 9.93961 13.88121 10.50422 14.56055 11.08594 C18.09337 14.15363 21.22444 17.22863 24 21 C21.75 23.5625 21.75 23.5625 19 26 C14.2803 24.82007 12.38621 23.00495 8.75 19.8125 C3.95574 15.66144 -0.86874 11.72268 -6 8 C-2.25 2.25 -2.25 2.25 0 0 Z " fill="#000000" transform="translate(673,385)"/>
<path d="M0 0 C0.72445 0.13277 1.44891 0.26555 2.19531 0.40234 C3.16211 0.57895 4.12891 0.75555 5.125 0.9375 C6.07633 1.11152 7.02766 1.28555 8.00781 1.46484 C8.99523 1.64145 9.98266 1.81805 11 2 C12.42893 2.29004 12.42893 2.29004 13.88672 2.58594 C23.80202 3.90466 34.28446 2.02407 44 0 C42.72893 3.36314 41.28288 6.4 39.42578 9.47656 C38.67603 10.72325 38.67603 10.72325 37.91113 11.99512 C37.38358 12.86298 36.85604 13.73084 36.3125 14.625 C35.77593 15.51349 35.23936 16.40197 34.68652 17.31738 C30.87999 23.60194 27.01047 29.84308 23 36 C19.837 33.06832 17.66458 30.09111 15.46875 26.38672 C14.82293 25.30326 14.17711 24.2198 13.51172 23.10352 C12.51592 21.41259 12.51592 21.41259 11.5 19.6875 C10.5042 18.01397 10.5042 18.01397 9.48828 16.30664 C6.27626 10.89877 3.09689 5.47486 0 0 Z " fill="#000000" transform="translate(236,387)"/>
<path d="M0 0 C9.57 0 19.14 0 29 0 C29 12.21 29 24.42 29 37 C32.63 37 36.26 37 40 37 C40 47.89 40 58.78 40 70 C36.37 70 32.74 70 29 70 C29.03819 83.69217 29.09773 97.38407 29.1839 111.07602 C29.22326 117.43505 29.25551 123.79394 29.271 130.15308 C29.28624 136.30002 29.32081 142.44659 29.36831 148.59337 C29.38305 150.92824 29.39104 153.26317 29.39188 155.59809 C29.41534 187.85005 40.25605 212.92305 63 236 C63.70512 236.71801 64.41023 237.43602 65.13672 238.17578 C84.32778 256.41643 111.03832 265.72266 137 268 C137.10312 266.61812 137.20625 265.23625 137.3125 263.8125 C138.14935 257.95452 139.2284 255.63873 143.5 251.6875 C148.41096 249.31972 152.64121 249.23332 158 250 C163.77529 252.52013 165.73034 256.23855 168 262 C168.06232 263.99903 168.07402 266.00137 168 268 C197.58443 264.04469 222.33092 253.88658 244 233 C244.80437 232.27039 245.60875 231.54078 246.4375 230.78906 C261.49293 216.72688 273.30363 194.14708 274.38924 173.44548 C274.60553 166.86178 274.60703 160.278 274.60938 153.69141 C274.62438 151.26903 274.64111 148.84666 274.65948 146.4243 C274.7029 140.09679 274.7231 133.76941 274.73822 127.44177 C274.75789 120.96566 274.79984 114.48969 274.83984 108.01367 C274.91486 95.34249 274.96533 82.67135 275 70 C271.37 70 267.74 70 264 70 C264 59.11 264 48.22 264 37 C267.63 37 271.26 37 275 37 C275 24.79 275 12.58 275 0 C284.57 0 294.14 0 304 0 C304.33 9.9 304.66 19.8 305 30 C312.26 30 319.52 30 327 30 C327 45.18 327 60.36 327 76 C319.41 76 311.82 76 304 76 C304.04713 80.21125 304.04713 80.21125 304.09521 84.50757 C304.19559 93.88703 304.26128 103.26652 304.31087 112.64638 C304.3419 118.3216 304.38384 123.99625 304.45264 129.67114 C305.02297 177.98908 305.02297 177.98908 298 198 C297.23744 200.20913 297.23744 200.20913 296.45947 202.46289 C284.00972 236.62797 258.32888 263.98147 225.75 279.6875 C213.26209 285.50114 200.51563 289.71334 187 292.375 C186.15196 292.54298 185.30392 292.71096 184.43018 292.88403 C178.50693 293.95788 172.98588 294.05296 167 294 C167.00691 295.2413 167.00691 295.2413 167.01397 296.50767 C167.12445 316.65574 167.20716 336.80372 167.25906 356.95203 C167.28483 366.69567 167.31995 376.43911 167.3772 386.18262 C167.42708 394.6764 167.4593 403.17003 167.47044 411.66395 C167.47695 416.16029 167.49222 420.65621 167.52865 425.15242 C167.56901 430.17537 167.56995 435.19759 167.56763 440.2207 C167.59459 442.44979 167.59459 442.44979 167.6221 444.72391 C167.5821 452.72069 167.27496 457.81447 162 464 C157.8389 466.75169 155.31416 468.02227 150.3125 467.9375 C145.0943 466.46065 142.80477 465.20716 139.75 460.625 C137.2431 455.43214 136.87516 451.16864 136.87975 445.4384 C136.87768 443.44656 136.87768 443.44656 136.87558 441.41447 C136.87918 439.96438 136.88277 438.5143 136.88647 437.02026 C136.88633 435.48822 136.88618 433.95618 136.88603 432.37772 C136.88661 428.18185 136.89162 423.98602 136.89861 419.79016 C136.90486 415.40327 136.90544 411.01637 136.90663 406.62947 C136.90974 398.32459 136.91794 390.01972 136.92798 381.71484 C136.93916 372.25904 136.94466 362.80324 136.94968 353.34744 C136.96013 333.89828 136.97772 314.44914 137 295 C135.76779 294.86813 134.53557 294.73627 133.26602 294.6004 C131.64763 294.42451 130.02925 294.24861 128.36182 294.06738 C126.75835 293.89427 125.15489 293.72115 123.50284 293.54279 C88.98498 289.3819 55.55398 272.36528 33.25 245.5 C31.82467 243.67339 30.40798 241.84001 29 240 C28.25105 239.07832 27.50211 238.15664 26.73047 237.20703 C5.21145 210.04247 -0.38843 176.76217 -0.19531 143.08984 C-0.19157 141.14116 -0.18873 139.19248 -0.18674 137.24379 C-0.17919 132.17555 -0.15962 127.10744 -0.13733 122.03925 C-0.11668 116.84324 -0.10769 111.64721 -0.09766 106.45117 C-0.07636 96.30072 -0.04126 86.15039 0 76 C-7.59 76 -15.18 76 -23 76 C-23 60.82 -23 45.64 -23 30 C-15.41 30 -7.82 30 0 30 C0 20.1 0 10.2 0 0 Z " fill="#000000" transform="translate(347,399)"/>
<path d="M0 0 C3.88963 0.44015 5.1178 1.49395 7.98828 4.10938 C13.50822 8.90701 19.31366 13.06732 25.33716 17.19629 C32.53615 22.17669 32.53615 22.17669 35.17578 25.35938 C35.23828 27.98438 35.23828 27.98438 34.17578 30.35938 C31.95703 31.71484 31.95703 31.71484 29.17578 32.35938 C26.48438 31.12109 26.48438 31.12109 23.61328 29.04688 C22.5627 28.29793 21.51211 27.54898 20.42969 26.77734 C19.3559 25.97941 18.28211 25.18148 17.17578 24.35938 C16.15355 23.61301 15.13133 22.86664 14.07812 22.09766 C11.08444 19.88426 8.13025 17.62473 5.17578 15.35938 C4.19352 14.64266 3.21125 13.92594 2.19922 13.1875 C1.28398 12.50172 0.36875 11.81594 -0.57422 11.10938 C-1.39406 10.50609 -2.21391 9.90281 -3.05859 9.28125 C-4.82422 7.35938 -4.82422 7.35938 -4.82422 2.35938 C-2.82422 0.35938 -2.82422 0.35938 0 0 Z " fill="#000000" transform="translate(140.82421875,401.640625)"/>
<path d="M0 0 C2.68196 2.68196 3.9828 4.52808 5.71484 7.80469 C6.23079 8.77108 6.74674 9.73748 7.27832 10.73315 C7.82585 11.76996 8.37338 12.80677 8.9375 13.875 C13.8739 23.1339 18.95411 32.28332 24.30444 41.31006 C26.65771 45.34481 28.07251 48.36254 29 53 C10.52 53 -7.96 53 -27 53 C-25.21527 47.64582 -23.04231 42.81833 -20.5 37.8125 C-20.06148 36.94335 -19.62295 36.0742 -19.17114 35.17871 C-16.0499 29.01518 -12.88718 22.87316 -9.6875 16.75 C-9.29176 15.98921 -8.89602 15.22842 -8.48828 14.44458 C-5.87025 9.47373 -3.02292 4.72966 0 0 Z " fill="#000000" transform="translate(215,402)"/>
<path d="M0 0 C3 1 3 1 4.22339 2.98682 C4.6176 3.84968 5.01181 4.71255 5.41797 5.60156 C5.86374 6.5595 6.30952 7.51743 6.7688 8.50439 C7.23697 9.53419 7.70514 10.56399 8.1875 11.625 C9.17179 13.74083 10.15878 15.85542 11.14844 17.96875 C11.6328 19.00387 12.11717 20.03898 12.61621 21.10547 C14.97228 26.03376 17.59631 30.80928 20.20703 35.60547 C23.03709 40.96347 25.53624 46.46587 28 52 C16.41901 53.25494 4.88178 53.11191 -6.75 53.0625 C-8.8151 53.05748 -10.88021 53.05291 -12.94531 53.04883 C-17.96357 53.0379 -22.98177 53.02069 -28 53 C-26.7518 48.94947 -25.26278 45.39777 -23.16406 41.71875 C-22.59961 40.72158 -22.03517 39.72441 -21.45361 38.69702 C-20.85017 37.642 -20.24673 36.58699 -19.625 35.5 C-18.36352 33.27274 -17.10312 31.04486 -15.84375 28.81641 C-15.20566 27.68864 -14.56758 26.56087 -13.91016 25.39893 C-10.93454 20.10413 -8.02547 14.77374 -5.125 9.4375 C-4.6076 8.48617 -4.09021 7.53484 -3.55713 6.55469 C-2.3702 4.37045 -1.1849 2.18534 0 0 Z " fill="#000000" transform="translate(783,402)"/>
<path d="M0 0 C0.66 0.66 1.32 1.32 2 2 C1.98828 4.84375 1.98828 4.84375 1 8 C-1.45703 10.28125 -1.45703 10.28125 -4.8125 12.5 C-6.69195 13.76457 -6.69195 13.76457 -8.60938 15.05469 C-9.30482 15.51585 -10.00027 15.97701 -10.7168 16.45215 C-13.25111 18.17024 -15.72717 19.9567 -18.20312 21.75781 C-19.09024 22.39783 -19.97736 23.03785 -20.89136 23.69727 C-22.65173 24.96771 -24.40725 26.24491 -26.15747 27.5293 C-26.97304 28.11002 -27.78862 28.69074 -28.62891 29.28906 C-29.35151 29.81194 -30.07411 30.33481 -30.8186 30.87354 C-33 32 -33 32 -38 32 C-39.8125 29.5 -39.8125 29.5 -41 27 C-38.85237 22.85623 -36.67036 20.75495 -32.77344 18.22266 C-31.7409 17.54396 -30.70836 16.86527 -29.64453 16.16602 C-28.56559 15.47186 -27.48664 14.7777 -26.375 14.0625 C-25.31926 13.37221 -24.26352 12.68191 -23.17578 11.9707 C-21.09666 10.61168 -19.01308 9.25946 -16.9248 7.91455 C-15.06075 6.69436 -13.21502 5.44534 -11.39551 4.15967 C-7.11489 1.13769 -5.40355 0 0 0 Z " fill="#000000" transform="translate(862,402)"/>
<path d="M0 0 C4.66932 2.33466 6.82752 5.33068 9.8125 9.4375 C10.3444 10.15962 10.8763 10.88173 11.42432 11.62573 C29 35.68723 29 35.68723 29 42 C22.375 46 22.375 46 19 46 C18.12602 44.22109 18.12602 44.22109 17.23438 42.40625 C10.94981 29.89685 3.98108 17.98108 -6 8 C-4.21844 4.43689 -2.83237 2.64355 0 0 Z " fill="#000000" transform="translate(277,433)"/>
<path d="M0 0 C3.48763 1.74382 6.03368 3.52807 9 6 C8.34516 6.70641 7.69031 7.41281 7.01562 8.14062 C1.04803 14.84995 -3.90511 21.67522 -8.5 29.375 C-9.25555 30.64005 -9.25555 30.64005 -10.02637 31.93066 C-12.70115 36.50695 -15.03116 41.0646 -17 46 C-20.65833 45.08542 -22.87702 43.99524 -26 42 C-23.59191 26.03525 -10.63054 11.41799 0 0 Z " fill="#000000" transform="translate(720,433)"/>
<path d="M0 0 C3.94928 1.66113 6.73558 3.85851 10.04688 6.57422 C15.01326 10.58412 20.01232 14.3887 25.30859 17.94922 C27.29687 19.38672 27.29687 19.38672 30.29688 22.38672 C29.87582 26.80777 29.87582 26.80777 28.29688 28.38672 C23.73881 29.1865 22.12377 28.27893 18.125 25.78906 C16.58822 24.64844 15.06256 23.49273 13.54688 22.32422 C11.94982 21.1255 10.35217 19.92757 8.75391 18.73047 C7.98901 18.15168 7.22411 17.57289 6.43604 16.97656 C3.76645 14.9925 1.01005 13.15592 -1.76562 11.32422 C-5.70312 8.38672 -5.70312 8.38672 -6.70312 4.38672 C-4.0503 -0.91893 -4.0503 -0.91893 0 0 Z " fill="#000000" transform="translate(133.703125,438.61328125)"/>
<path d="M0 0 C2.875 1 2.875 1 4.25 3.5625 C4.45625 4.36687 4.6625 5.17125 4.875 6 C-3.46043 15.19772 -18.16877 27.01094 -30.125 30 C-31.445 29.01 -32.765 28.02 -34.125 27 C-34.01953 24.30469 -34.01953 24.30469 -33.125 21 C-30.38672 18.50781 -30.38672 18.50781 -26.8125 16.125 C-25.55051 15.27035 -24.28852 14.4157 -22.98828 13.53516 C-21.7134 12.69855 -20.43852 11.86195 -19.125 11 C-17.41377 9.85338 -17.41377 9.85338 -15.66797 8.68359 C-13.66732 7.34407 -11.66145 6.01228 -9.64844 4.69141 C-2.64925 0 -2.64925 0 0 0 Z " fill="#000000" transform="translate(868.125,438)"/>
<path d="M0 0 C1.67316 0.03142 1.67316 0.03142 3.38013 0.06348 C5.01341 0.07846 5.01341 0.07846 6.67969 0.09375 C8.7531 0.14837 8.7531 0.14837 10.86841 0.2041 C15.26153 0.2866 19.65466 0.3691 24.18091 0.4541 C24.18091 15.3041 24.18091 30.1541 24.18091 45.4541 C8.34091 45.7841 -7.49909 46.1141 -23.81909 46.4541 C-25.79909 50.0841 -27.77909 53.7141 -29.81909 57.4541 C-27.87059 57.29112 -25.92209 57.12813 -23.91455 56.96021 C-12.38111 56.19625 -0.84447 56.33032 10.70825 56.35645 C13.15304 56.35831 15.59783 56.35974 18.04262 56.36073 C24.42932 56.36452 30.816 56.37432 37.2027 56.38544 C43.73905 56.39573 50.27541 56.40025 56.81177 56.40527 C69.60149 56.41595 82.3912 56.43298 95.18091 56.4541 C96.44809 58.66912 97.71496 60.88433 98.98169 63.09961 C99.68721 64.33318 100.39273 65.56675 101.11963 66.83771 C103.8391 71.60887 106.52344 76.39819 109.18091 81.2041 C109.66946 82.07809 110.15802 82.95207 110.66138 83.85254 C114.18091 90.22121 114.18091 90.22121 114.18091 92.4541 C99.00091 92.4541 83.82091 92.4541 68.18091 92.4541 C68.18091 85.8541 68.18091 79.2541 68.18091 72.4541 C62.24091 72.9491 62.24091 72.9491 56.18091 73.4541 C56.18091 96.8841 56.18091 120.3141 56.18091 144.4541 C53.54091 144.4541 50.90091 144.4541 48.18091 144.4541 C48.18091 148.7441 48.18091 153.0341 48.18091 157.4541 C69.30091 157.4541 90.42091 157.4541 112.18091 157.4541 C112.18091 153.1641 112.18091 148.8741 112.18091 144.4541 C107.23091 144.4541 102.28091 144.4541 97.18091 144.4541 C97.18091 130.9241 97.18091 117.3941 97.18091 103.4541 C104.77091 103.4541 112.36091 103.4541 120.18091 103.4541 C127.66513 116.96011 134.7115 130.43705 141.18091 144.4541 C134.91091 144.4541 128.64091 144.4541 122.18091 144.4541 C122.18091 148.7441 122.18091 153.0341 122.18091 157.4541 C130.76091 157.4541 139.34091 157.4541 148.18091 157.4541 C155.24108 169.88615 162.24329 182.33629 169.05396 194.90649 C172.2782 200.84317 175.5989 206.70889 179.07153 212.50488 C180.18091 214.4541 180.18091 214.4541 180.18091 215.4541 C113.52091 215.4541 46.86091 215.4541 -21.81909 215.4541 C-27.81909 202.4541 -27.81909 202.4541 -27.81909 200.4541 C-19.56909 200.4541 -11.31909 200.4541 -2.81909 200.4541 C-2.48909 192.8641 -2.15909 185.2741 -1.81909 177.4541 C-13.69909 177.4541 -25.57909 177.4541 -37.81909 177.4541 C-39.13909 174.52535 -40.45909 171.5966 -41.81909 168.5791 C-42.23675 167.65758 -42.6544 166.73606 -43.08472 165.78662 C-45.81909 159.67632 -45.81909 159.67632 -45.81909 157.4541 C-31.62909 157.4541 -17.43909 157.4541 -2.81909 157.4541 C-2.81909 153.1641 -2.81909 148.8741 -2.81909 144.4541 C-7.10909 144.4541 -11.39909 144.4541 -15.81909 144.4541 C-15.81909 131.2541 -15.81909 118.0541 -15.81909 104.4541 C-9.15762 103.34386 -2.86446 103.27015 3.86841 103.2666 C5.10397 103.25436 6.33954 103.24211 7.61255 103.22949 C8.79397 103.22756 9.9754 103.22563 11.19263 103.22363 C12.80851 103.21747 12.80851 103.21747 14.45703 103.21118 C17.18091 103.4541 17.18091 103.4541 20.18091 105.4541 C20.52148 109.26123 20.52148 109.26123 20.47388 114.18066 C20.46963 115.04348 20.46539 115.9063 20.46101 116.79526 C20.44419 119.55685 20.40653 122.31773 20.36841 125.0791 C20.35337 126.94888 20.33968 128.81868 20.32739 130.68848 C20.29428 135.27725 20.24247 139.86561 20.18091 144.4541 C16.22091 144.4541 12.26091 144.4541 8.18091 144.4541 C8.51091 148.4141 8.84091 152.3741 9.18091 156.4541 C18.42091 156.7841 27.66091 157.1141 37.18091 157.4541 C37.18091 153.4941 37.18091 149.5341 37.18091 145.4541 C35.20091 145.1241 33.22091 144.7941 31.18091 144.4541 C31.51091 127.2941 31.84091 110.1341 32.18091 92.4541 C6.44091 92.4541 -19.29909 92.4541 -45.81909 92.4541 C-46.47909 94.4341 -47.13909 96.4141 -47.81909 98.4541 C-48.78913 100.4688 -49.78154 102.47332 -50.81909 104.4541 C-47.35409 103.9591 -47.35409 103.9591 -43.81909 103.4541 C-38.20909 103.4541 -32.59909 103.4541 -26.81909 103.4541 C-26.81909 116.9841 -26.81909 130.5141 -26.81909 144.4541 C-34.07909 144.4541 -41.33909 144.4541 -48.81909 144.4541 C-51.75529 135.35314 -54.0826 126.33052 -55.94409 116.9541 C-56.19546 115.75785 -56.44683 114.5616 -56.70581 113.3291 C-60.73666 93.23818 -61.11787 73.34337 -61.0249 52.92993 C-61.00645 48.73545 -61.00439 44.54119 -61.00464 40.34668 C-60.99973 37.64941 -60.9939 34.95215 -60.98706 32.25488 C-60.98595 31.0162 -60.98483 29.77752 -60.98369 28.5013 C-60.94694 21.74693 -60.6128 15.1628 -59.81909 8.4541 C-54.40304 11.45904 -49.26206 14.74624 -44.13159 18.2041 C-43.34647 18.7298 -42.56135 19.25549 -41.75244 19.79712 C-38.19037 22.18289 -34.63524 24.57853 -31.08472 26.98145 C-30.02769 27.6943 -28.97065 28.40715 -27.88159 29.1416 C-26.96507 29.76422 -26.04854 30.38684 -25.10425 31.02832 C-22.79782 32.59113 -22.79782 32.59113 -19.81909 33.4541 C-19.54509 32.57706 -19.27108 31.70001 -18.98877 30.79639 C-17.89797 27.6795 -16.62988 24.901 -15.10425 21.97754 C-14.58282 20.97723 -14.0614 19.97691 -13.52417 18.94629 C-12.98212 17.91762 -12.44007 16.88895 -11.88159 15.8291 C-11.34341 14.7927 -10.80522 13.75629 -10.25073 12.68848 C-3.93532 0.6339 -3.93532 0.6339 0 0 Z M8.18091 177.4541 C8.18091 185.0441 8.18091 192.6341 8.18091 200.4541 C17.75091 200.4541 27.32091 200.4541 37.18091 200.4541 C37.18091 192.8641 37.18091 185.2741 37.18091 177.4541 C27.61091 177.4541 18.04091 177.4541 8.18091 177.4541 Z M48.18091 177.4541 C48.18091 185.0441 48.18091 192.6341 48.18091 200.4541 C56.43091 200.4541 64.68091 200.4541 73.18091 200.4541 C73.18091 192.8641 73.18091 185.2741 73.18091 177.4541 C64.93091 177.4541 56.68091 177.4541 48.18091 177.4541 Z M84.18091 177.4541 C84.18091 185.0441 84.18091 192.6341 84.18091 200.4541 C93.09091 200.4541 102.00091 200.4541 111.18091 200.4541 C111.18091 192.8641 111.18091 185.2741 111.18091 177.4541 C102.27091 177.4541 93.36091 177.4541 84.18091 177.4541 Z M122.18091 177.4541 C122.18091 185.0441 122.18091 192.6341 122.18091 200.4541 C131.09091 200.4541 140.00091 200.4541 149.18091 200.4541 C149.18091 192.8641 149.18091 185.2741 149.18091 177.4541 C140.27091 177.4541 131.36091 177.4541 122.18091 177.4541 Z " fill="#000000" transform="translate(185.819091796875,465.5458984375)"/>
<path d="M0 0 C9.9 0 19.8 0 30 0 C31.91813 3.5475 33.83625 7.095 35.8125 10.75 C40.74278 19.86562 45.70901 28.96017 50.74731 38.0166 C54 43.89203 54 43.89203 54 45 C36.51 45 19.02 45 1 45 C0.67 30.15 0.34 15.3 0 0 Z " fill="#000000" transform="translate(221,466)"/>
<path d="M0 0 C1.2097 0.00524 2.41941 0.01047 3.66577 0.01587 C4.84083 0.01837 6.01589 0.02086 7.22656 0.02344 C8.73146 0.03254 10.23636 0.04165 11.78687 0.05103 C16.55124 0.07165 21.31562 0.09228 26.22437 0.11353 C25.89437 14.96353 25.56437 29.81353 25.22437 45.11353 C7.73437 45.11353 -9.75563 45.11353 -27.77563 45.11353 C-26.2743 41.3602 -24.76515 38.13833 -22.79907 34.64868 C-22.21408 33.60712 -21.62909 32.56556 -21.02637 31.49243 C-20.40738 30.39802 -19.78838 29.3036 -19.15063 28.17603 C-18.20765 26.50153 -18.20765 26.50153 -17.24561 24.79321 C-15.42579 21.56465 -13.60145 18.3387 -11.77563 15.11353 C-11.30593 14.28192 -10.83623 13.45031 -10.35229 12.59351 C-3.31273 0.13549 -3.31273 0.13549 0 0 Z " fill="#000000" transform="translate(751.775634765625,465.886474609375)"/>
<path d="M0 0 C4.56164 -0.23249 9.12176 -0.37448 13.6875 -0.5 C15.62786 -0.60055 15.62786 -0.60055 17.60742 -0.70312 C21.22126 -0.77783 24.45699 -0.72117 28 0 C30.77369 3.00186 31.60253 4.37456 33 8 C33.93436 9.91751 34.87622 11.83138 35.82422 13.74219 C36.78353 15.78417 37.73789 17.82849 38.6875 19.875 C39.64582 21.93672 40.60788 23.99671 41.57422 26.05469 C42.20203 27.40796 42.20203 27.40796 42.84253 28.78857 C43.92444 31.1235 43.92444 31.1235 46 33 C47.23492 32.11699 48.46984 31.23398 49.74219 30.32422 C58.40669 24.17033 67.10717 18.15308 76.1875 12.625 C76.95884 12.15538 77.73019 11.68576 78.5249 11.2019 C83.85311 8 83.85311 8 85 8 C85.84412 16.55881 86.17252 25.03882 86.20312 33.63672 C86.20883 34.91441 86.21453 36.19209 86.2204 37.5085 C86.22979 40.20366 86.23636 42.89882 86.24023 45.59399 C86.24987 49.63124 86.28091 53.66796 86.3125 57.70508 C86.40144 79.17011 84.79998 99.97511 80 120.9375 C79.62875 122.64583 79.62875 122.64583 79.25 124.38867 C77.77216 131.06588 75.97663 137.41123 74 144 C66.41 144 58.82 144 51 144 C50.97709 138.32165 50.95717 132.64345 50.94507 126.96509 C50.94003 125.03181 50.93319 123.09854 50.92456 121.16528 C50.91248 118.39273 50.90677 115.62023 50.90234 112.84766 C50.89718 111.97787 50.89202 111.10808 50.8867 110.21193 C50.88651 108.14094 50.93792 106.07006 51 104 C52 103 52 103 56.91016 102.90234 C58.96096 102.90902 61.01175 102.92099 63.0625 102.9375 C64.62968 102.94427 64.62968 102.94427 66.22852 102.95117 C68.81903 102.963 71.40952 102.98094 74 103 C72.87414 99.46158 71.66905 96.3381 70 93 C44.92 92.67 19.84 92.34 -6 92 C-6 109.16 -6 126.32 -6 144 C-7.65 144 -9.3 144 -11 144 C-11 148.29 -11 152.58 -11 157 C-1.76 157 7.48 157 17 157 C17.33 152.71 17.66 148.42 18 144 C14.04 144 10.08 144 6 144 C6 130.47 6 116.94 6 103 C9.73312 102.97938 13.46625 102.95875 17.3125 102.9375 C18.46532 102.9284 19.61815 102.91929 20.80591 102.90991 C22.2265 102.90617 22.2265 102.90617 23.67578 102.90234 C24.62365 102.89711 25.57151 102.89187 26.5481 102.88647 C31.37706 103.04529 36.18826 103.56257 41 104 C41 117.2 41 130.4 41 144 C36.71 144 32.42 144 28 144 C28 148.29 28 152.58 28 157 C42.19 157 56.38 157 71 157 C65 175 65 175 63 177 C60.41666 177.08817 57.83092 177.10692 55.24609 177.09766 C53.67021 177.09443 52.09434 177.09121 50.4707 177.08789 C48.79297 177.07953 47.11523 177.07107 45.4375 177.0625 C43.75586 177.05749 42.07422 177.05292 40.39258 177.04883 C36.2617 177.03699 32.13085 177.01906 28 177 C28 184.59 28 192.18 28 200 C36.25 200 44.5 200 53 200 C52 205 52 205 47 215 C-19.66 215 -86.32 215 -155 215 C-145.82965 196.6593 -145.82965 196.6593 -141.25 188.8125 C-140.22903 187.04435 -139.2082 185.27612 -138.1875 183.50781 C-137.6693 182.61353 -137.15109 181.71924 -136.61719 180.79785 C-133.80865 175.93888 -131.03148 171.062 -128.25 166.1875 C-126.5175 163.15562 -124.785 160.12375 -123 157 C-114.09 157 -105.18 157 -96 157 C-96 152.71 -96 148.42 -96 144 C-102.6 144 -109.2 144 -116 144 C-114.56792 139.70377 -113.38586 136.61306 -111.20703 132.80469 C-110.39202 131.36718 -110.39202 131.36718 -109.56055 129.90063 C-108.3792 127.85589 -107.19153 125.81479 -105.99805 123.7771 C-103.50309 119.50038 -101.17163 115.42767 -99.32422 110.82422 C-97.08651 105.31247 -97.08651 105.31247 -94 103 C-87.08218 101.55818 -79.96098 102.18646 -73 103 C-72 104 -72 104 -71.88647 107.7854 C-71.88663 109.47283 -71.89233 111.16026 -71.90234 112.84766 C-71.90376 113.73408 -71.90517 114.62051 -71.90663 115.5338 C-71.91225 118.37673 -71.9248 121.21959 -71.9375 124.0625 C-71.94251 125.98502 -71.94708 127.90755 -71.95117 129.83008 C-71.96222 134.55342 -71.9795 139.27669 -72 144 C-76.62 144 -81.24 144 -86 144 C-85.505 146.475 -85.505 146.475 -85 149 C-85 151.64 -85 154.28 -85 157 C-64.21 157 -43.42 157 -22 157 C-22 152.71 -22 148.42 -22 144 C-24.64 144 -27.28 144 -30 144 C-30 120.24 -30 96.48 -30 72 C-33.96 72 -37.92 72 -42 72 C-42 78.6 -42 85.2 -42 92 C-57.18 92 -72.36 92 -88 92 C-87.13045 87.65223 -86.2632 85.25214 -84.19922 81.47266 C-83.63396 80.43303 -83.06871 79.3934 -82.48633 78.32227 C-81.89271 77.24654 -81.2991 76.17082 -80.6875 75.0625 C-80.10549 73.99064 -79.52348 72.91879 -78.92383 71.81445 C-71.00769 57.3359 -71.00769 57.3359 -67 56 C-63.17861 55.87796 -59.37425 55.81431 -55.552 55.79468 C-53.78107 55.77983 -53.78107 55.77983 -51.97437 55.76468 C-48.06236 55.73303 -44.15034 55.70829 -40.23828 55.68359 C-37.52972 55.66303 -34.82115 55.64203 -32.11259 55.62062 C-24.97609 55.56537 -17.83956 55.51597 -10.703 55.46777 C-3.42372 55.41758 3.85552 55.36188 11.13477 55.30664 C25.42314 55.19902 39.71155 55.09758 54 55 C53.175 53.72125 52.35 52.4425 51.5 51.125 C49 47 49 47 49 45 C47.55117 45.00524 46.10235 45.01047 44.60962 45.01587 C39.25546 45.03391 33.9013 45.04543 28.54712 45.05493 C26.22583 45.05997 23.90454 45.06681 21.58325 45.07544 C18.25471 45.08751 14.92621 45.09323 11.59766 45.09766 C10.03049 45.1054 10.03049 45.1054 8.43166 45.1133 C5.95415 45.11349 3.47673 45.06221 1 45 C0 44 0 44 -0.11353 39.84741 C-0.11337 37.99072 -0.10767 36.13401 -0.09766 34.27734 C-0.09553 32.81453 -0.09553 32.81453 -0.09337 31.32216 C-0.08775 28.19391 -0.0752 25.06573 -0.0625 21.9375 C-0.05749 19.82227 -0.05292 17.70703 -0.04883 15.5918 C-0.03778 10.3945 -0.0205 5.19726 0 0 Z M-124 177 C-124 184.59 -124 192.18 -124 200 C-114.76 200 -105.52 200 -96 200 C-96 192.41 -96 184.82 -96 177 C-105.24 177 -114.48 177 -124 177 Z M-85 177 C-85 184.59 -85 192.18 -85 200 C-76.09 200 -67.18 200 -58 200 C-58 192.41 -58 184.82 -58 177 C-66.91 177 -75.82 177 -85 177 Z M-47 177 C-47 184.59 -47 192.18 -47 200 C-38.75 200 -30.5 200 -22 200 C-22 192.41 -22 184.82 -22 177 C-30.25 177 -38.5 177 -47 177 Z M-11 177 C-11 184.59 -11 192.18 -11 200 C-1.76 200 7.48 200 17 200 C17 192.41 17 184.82 17 177 C7.76 177 -1.48 177 -11 177 Z " fill="#000000" transform="translate(788,466)"/>
<path d="M0 0 C3.95008 0.6838 6.63457 1.78843 10 4 C8.45853 8.19754 6.38963 11.92614 4.1875 15.8125 C-1.79877 26.94848 -5.0972 38.54533 -7 51 C-10.3 50.34 -13.6 49.68 -17 49 C-16.03663 31.17773 -9.52298 14.96468 0 0 Z " fill="#000000" transform="translate(687,501)"/>
<path d="M0 0 C9.22889 13.67553 16.24246 31.51287 16 48 C15.07187 48.14437 14.14375 48.28875 13.1875 48.4375 C9.99275 48.921 9.99275 48.921 7 50 C6.72027 48.74188 6.44055 47.48375 6.15234 46.1875 C2.63107 30.93112 -2.50701 17.25736 -11 4 C-7.20983 -0.05156 -5.67911 -1.41978 0 0 Z " fill="#000000" transform="translate(313,503)"/>
<path d="M0 0 C14.19 0 28.38 0 43 0 C43.15469 5.38312 43.15469 5.38312 43.3125 10.875 C45.78084 77.58185 65.96507 144.1717 101 201 C101.5261 201.85884 102.0522 202.71768 102.59424 203.60254 C110.40992 216.30895 118.75501 228.30079 128 240 C129.75208 242.31093 131.50223 244.62332 133.25 246.9375 C136.87413 251.64828 140.66475 256.12479 144.69922 260.48828 C146.53683 262.49437 148.32588 264.54491 150.09766 266.60938 C154.75369 271.94292 159.74728 276.93135 164.75 281.9375 C165.67555 282.87529 166.60109 283.81309 167.55469 284.7793 C173.72475 290.96224 180.17127 296.56107 187 302 C188.85689 303.58013 190.71168 305.16276 192.5625 306.75 C260.31365 363.15109 345.47203 387.8532 432 394 C432 407.53 432 421.06 432 435 C421.06344 435 410.77796 434.71878 400 433.4375 C398.5067 433.26114 397.0134 433.08478 395.47485 432.90308 C325.02665 424.2068 258.66113 402.84641 199 364 C198.11812 363.42669 197.23624 362.85338 196.32764 362.2627 C180.31583 351.81661 165.36788 340.64436 151 328 C150.2666 327.35635 149.53321 326.71271 148.77759 326.04956 C141.87379 319.92305 135.3257 313.47517 128.8125 306.9375 C127.77158 305.90045 126.73066 304.8634 125.6582 303.79492 C120.22377 298.35359 114.99001 292.85058 110 287 C108.9752 285.845 107.95039 284.69 106.89453 283.5 C95.90916 271.02485 86.04191 257.95916 77 244 C75.99166 242.46954 74.98247 240.93964 73.97266 239.41016 C63.66551 223.74988 54.16774 207.90155 46 191 C45.33871 189.70449 44.67742 188.40898 43.99609 187.07422 C19.23957 137.3332 5.61153 81.32425 0.75 26.1875 C0.66959 25.27573 0.58919 24.36396 0.50635 23.42456 C-0.10534 15.55747 0 7.96309 0 0 Z " fill="#000000" transform="translate(60,520)"/>
<path d="M0 0 C1.77206 0.00016 3.54413 0.00586 5.31616 0.01587 C6.24698 0.01728 7.1778 0.0187 8.13683 0.02016 C11.12242 0.02577 14.10794 0.03833 17.09351 0.05103 C19.11238 0.05604 21.13127 0.0606 23.15015 0.0647 C28.11046 0.07575 33.07072 0.09302 38.03101 0.11353 C36.93024 37.672 31.67769 74.76237 22.03101 111.11353 C21.81654 111.93385 21.60207 112.75418 21.3811 113.59937 C10.91869 153.2747 -6.07342 191.44677 -27.96899 226.11353 C-28.43016 226.84861 -28.89132 227.5837 -29.36646 228.34106 C-48.76962 259.17405 -71.65066 286.80902 -97.34399 312.61353 C-98.08085 313.35506 -98.81771 314.09659 -99.5769 314.8606 C-104.21226 319.48237 -108.99793 323.85677 -113.96899 328.11353 C-114.93321 328.95915 -115.89743 329.80478 -116.89087 330.67603 C-138.87864 349.62681 -162.98463 365.6306 -188.35962 379.66187 C-190.98165 381.12057 -193.58517 382.60872 -196.18774 384.10181 C-226.73145 401.44168 -259.532 412.45487 -293.46899 420.98853 C-294.37682 421.21791 -295.28464 421.44729 -296.21997 421.68362 C-314.826 426.35347 -333.56364 429.86308 -352.59399 432.30103 C-354.44058 432.54756 -354.44058 432.54756 -356.32446 432.79907 C-369.00876 434.46027 -381.09003 435.11353 -393.96899 435.11353 C-393.96899 421.58353 -393.96899 408.05353 -393.96899 394.11353 C-384.03806 393.30915 -384.03806 393.30915 -373.90649 392.48853 C-356.46234 390.96514 -339.4346 388.71829 -322.32837 384.86938 C-319.15172 384.15464 -315.96871 383.48236 -312.78149 382.81665 C-247.17882 368.60913 -185.27683 336.02094 -136.28149 290.20337 C-134.13173 288.19811 -131.96584 286.20995 -129.78149 284.24243 C-117.5725 273.21544 -106.46058 261.43005 -96.46118 248.35962 C-94.11222 245.30008 -91.68767 242.32676 -89.21899 239.36353 C-85.18676 234.44391 -81.49835 229.4042 -77.96899 224.11353 C-77.51541 223.43709 -77.06182 222.76065 -76.59448 222.06372 C-64.79994 204.41526 -54.15996 186.2597 -44.96899 167.11353 C-44.41083 165.98946 -43.85267 164.8654 -43.27759 163.70728 C-20.13734 116.03086 -6.76216 62.44022 -5.30981 9.52881 C-5.26292 7.91365 -5.26292 7.91365 -5.21509 6.26587 C-5.1792 4.81169 -5.1792 4.81169 -5.14258 3.32812 C-4.83839 -0.55273 -4.13781 0.11835 0 0 Z " fill="#000000" transform="translate(900.968994140625,519.886474609375)"/>
<path d="M0 0 C1.25168 0.00258 2.50336 0.00516 3.79297 0.00781 C5.03691 0.00523 6.28086 0.00266 7.5625 0 C10.98047 0.13281 10.98047 0.13281 14.98047 1.13281 C14.98047 14.33281 14.98047 27.53281 14.98047 41.13281 C9.04047 41.13281 3.10047 41.13281 -3.01953 41.13281 C-3.18497 35.45457 -3.34735 29.77643 -3.50171 24.0979 C-3.55521 22.16458 -3.61054 20.23131 -3.66772 18.2981 C-3.74941 15.52566 -3.82458 12.75312 -3.89844 9.98047 C-3.92547 9.11068 -3.95251 8.24089 -3.98036 7.34474 C-4.03231 5.27471 -4.03142 3.20346 -4.01953 1.13281 C-3.01953 0.13281 -3.01953 0.13281 0 0 Z " fill="#000000" transform="translate(257.01953125,568.8671875)"/>
<path d="M0 0 C5.94 0 11.88 0 18 0 C18.495 20.295 18.495 20.295 19 41 C12.4 41 5.8 41 -1 41 C-1.02291 35.32165 -1.04283 29.64345 -1.05493 23.96509 C-1.05997 22.03181 -1.06681 20.09854 -1.07544 18.16528 C-1.08752 15.39273 -1.09323 12.62023 -1.09766 9.84766 C-1.10282 8.97787 -1.10798 8.10808 -1.1133 7.21193 C-1.11349 5.14094 -1.06208 3.07006 -1 1 C-0.67 0.67 -0.34 0.34 0 0 Z " fill="#000000" transform="translate(728,569)"/>
<path d="M0 0 C2.82422 1.96094 2.82422 1.96094 5.6875 4.375 C6.64012 5.16648 7.59273 5.95797 8.57422 6.77344 C11 9 11 9 13 12 C12.4573 12.47051 11.91461 12.94102 11.35547 13.42578 C10.28232 14.35971 10.28232 14.35971 9.1875 15.3125 C8.12596 16.23482 8.12596 16.23482 7.04297 17.17578 C2.88647 20.68553 2.88647 20.68553 1.56763 25.82886 C1.54144 27.40514 1.51526 28.98142 1.48828 30.60547 C1.47033 31.44467 1.45238 32.28388 1.43388 33.14851 C1.37971 35.82812 1.34586 38.50756 1.3125 41.1875 C1.27933 43.00458 1.24484 44.82164 1.20898 46.63867 C1.12399 51.09228 1.0572 55.54594 1 60 C2.19238 59.9652 3.38477 59.93039 4.61328 59.89453 C6.16402 59.86746 7.71477 59.84039 9.3125 59.8125 C11.62701 59.76029 11.62701 59.76029 13.98828 59.70703 C18 60 18 60 21 63 C20 67 20 67 16 70 C14.01986 70.72351 12.02179 71.40265 10 72 C11.2085 73.10408 11.2085 73.10408 12.44141 74.23047 C13.47137 75.20629 14.50133 76.18211 15.5625 77.1875 C16.59504 78.15043 17.62758 79.11336 18.69141 80.10547 C21 83 21 83 20.96484 85.73828 C20 88 20 88 18 90 C12.24472 90 11.70788 89.3604 7.75 85.5625 C6.87859 84.73879 6.00719 83.91508 5.10938 83.06641 C3 81 3 81 2 80 C1.99065 80.89308 1.98131 81.78616 1.97168 82.7063 C1.91809 86.74227 1.83442 90.77706 1.75 94.8125 C1.72873 96.92108 1.72873 96.92108 1.70703 99.07227 C1.6748 100.41611 1.64258 101.75996 1.60938 103.14453 C1.57795 105.00622 1.57795 105.00622 1.5459 106.90552 C1 110 1 110 -3 113 C-7 112 -7 112 -9 110 C-9.22705 106.92725 -9.22705 106.92725 -9.19531 103.02344 C-9.18887 101.63125 -9.18242 100.23906 -9.17578 98.80469 C-9.15902 97.34289 -9.14227 95.88109 -9.125 94.375 C-9.11598 92.90547 -9.10695 91.43594 -9.09766 89.92188 C-9.07401 86.28109 -9.04106 82.64062 -9 79 C-13.35814 82.50068 -13.35814 82.50068 -16.9375 86.75 C-19 89 -19 89 -22.5625 90 C-23.69687 90 -24.83125 90 -26 90 C-26.99 89.01 -27.98 88.02 -29 87 C-29 83.43535 -28.08802 82.10193 -25.75 79.39453 C-24.8425 78.54246 -23.935 77.69039 -23 76.8125 C-19.55497 73.74012 -19.55497 73.74012 -17 70 C-18.42313 69.89688 -19.84625 69.79375 -21.3125 69.6875 C-26 69 -26 69 -29 66 C-27.25 61.125 -27.25 61.125 -25 60 C-22.29253 59.92845 -19.58333 59.91601 -16.875 59.9375 C-15.40805 59.94652 -13.94109 59.95555 -12.42969 59.96484 C-11.29789 59.97645 -10.16609 59.98805 -9 60 C-9.01946 54.83982 -9.07131 49.68107 -9.15259 44.52148 C-9.17572 42.768 -9.19015 41.01437 -9.19556 39.26074 C-9.20488 36.73285 -9.24595 34.20712 -9.29297 31.67969 C-9.30868 30.16101 -9.32439 28.64233 -9.34058 27.07764 C-10.50211 19.89513 -15.51058 16.34047 -21 12 C-16.72233 5.58349 -8.02849 -2.45793 0 0 Z " fill="#000000" transform="translate(451,704)"/>
<path d="M0 0 C13.86 0 27.72 0 42 0 C41.34 4.29 40.68 8.58 40 13 C39.33322 31.72121 46.12769 46.58961 58.5 60.25 C60.32231 62.17715 62.15471 64.09484 64 66 C64.68836 66.71672 65.37672 67.43344 66.08594 68.17188 C68.4691 70.60707 70.74829 72.83219 73.58984 74.72656 C76.80425 77.75863 77.01033 80.05316 77.6875 84.375 C78.46079 89.10962 79.35794 93.48607 81 98 C64.32703 87.33223 49.05105 70.63928 37 55 C36.16727 53.97262 35.33453 52.94523 34.47656 51.88672 C24.14807 39.05749 15.0737 25.39169 6.25 11.5 C5.73639 10.69281 5.22278 9.88561 4.6936 9.05396 C2.82098 6.07357 1.11747 3.35242 0 0 Z " fill="#000000" transform="translate(177,704)"/>
<path d="M0 0 C1.514 0.0174 1.514 0.0174 3.05859 0.03516 C4.07051 0.04418 5.08242 0.0532 6.125 0.0625 C7.29869 0.0799 7.29869 0.0799 8.49609 0.09766 C8.16609 1.54141 7.83609 2.98516 7.49609 4.47266 C5.6081 14.11639 5.50946 23.78004 10.92578 32.36328 C12.38537 34.32393 13.9377 36.21459 15.49609 38.09766 C16.48609 39.41766 17.47609 40.73766 18.49609 42.09766 C16.18609 44.73766 13.87609 47.37766 11.49609 50.09766 C3.34493 44.10905 -2.73475 35.18183 -4.50391 25.09766 C-5.65596 16.63796 -5.47373 9.41469 -3.50391 1.09766 C-2.50391 0.09766 -2.50391 0.09766 0 0 Z " fill="#000000" transform="translate(233.50390625,703.90234375)"/>
<path d="M0 0 C13.2 0 26.4 0 40 0 C40.70299 6.32693 41.19513 11.75591 41 18 C40 19 40 19 36.62109 19.09766 C35.24051 19.08605 33.85992 19.07445 32.4375 19.0625 C30.36275 19.04896 30.36275 19.04896 28.24609 19.03516 C27.17488 19.02355 26.10367 19.01195 25 19 C25.06852 19.70546 25.13703 20.41092 25.20763 21.13776 C25.92763 29.05111 26.2064 36.9163 26.31641 44.85938 C26.33719 46.12977 26.35797 47.40016 26.37938 48.70905 C26.44418 52.72265 26.50343 56.73631 26.5625 60.75 C26.60575 63.48959 26.64937 66.22917 26.69336 68.96875 C26.79979 75.64577 26.90125 82.32286 27 89 C29.31 86.36 31.62 83.72 34 81 C38 82 38 82 40.25 85.0625 C40.8275 86.03188 41.405 87.00125 42 88 C37.57518 95.25671 32.35039 101.63617 23.8125 103.8125 C18.18969 104.08903 13.47909 102.94307 8.97656 99.41406 C5.77565 96.3212 2.7756 93.10608 1 89 C2.04794 84.80825 2.91764 83.78407 6 81 C9.72617 82.24206 11.39291 84.11107 14 87 C14 87.66 14 88.32 14 89 C14.66 89 15.32 89 16 89 C15.67 88.01 15.34 87.02 15 86 C14.91048 83.83787 14.88241 81.67302 14.88647 79.50903 C14.88655 78.16787 14.88663 76.82671 14.8867 75.4449 C14.89445 73.26981 14.89445 73.26981 14.90234 71.05078 C14.90376 69.56789 14.90517 68.085 14.90663 66.55717 C14.91224 61.80893 14.92479 57.06073 14.9375 52.3125 C14.94251 49.09831 14.94708 45.88412 14.95117 42.66992 C14.96221 34.77993 14.97948 26.88997 15 19 C10.05 19 5.1 19 0 19 C0 12.73 0 6.46 0 0 Z " fill="#000000" transform="translate(266,704)"/>
<path d="M0 0 C13.53 0 27.06 0 41 0 C41 6.27 41 12.54 41 19 C35.72 19 30.44 19 25 19 C25.33 51.01 25.66 83.02 26 116 C28.97 113.03 31.94 110.06 35 107 C39 108 39 108 40.75 110.5625 C41.1625 111.36687 41.575 112.17125 42 113 C29.23055 131.47495 29.23055 131.47495 19 136 C8.22969 133.30742 0.89328 122.83993 -5 114 C-4 110 -4 110 -1 107 C3.65978 108.16495 4.96887 109.65185 8.25 113.0625 C9.58805 114.44115 9.58805 114.44115 10.95312 115.84766 C11.62859 116.55793 12.30406 117.2682 13 118 C13.77138 113.90957 14.11868 110.06407 14.09766 105.90405 C14.09435 104.71678 14.09105 103.52951 14.08765 102.30626 C14.07935 101.02828 14.07105 99.7503 14.0625 98.43359 C14.05871 97.09032 14.05493 95.74704 14.05103 94.36305 C14.03483 88.64263 14.00719 82.92228 13.97949 77.2019 C13.89359 57.77549 14.16408 38.40977 15 19 C14.00098 19.0116 13.00195 19.0232 11.97266 19.03516 C10.6823 19.04418 9.39195 19.0532 8.0625 19.0625 C6.77473 19.0741 5.48695 19.0857 4.16016 19.09766 C1 19 1 19 0 18 C0 12.06 0 6.12 0 0 Z " fill="#000000" transform="translate(319,704)"/>
<path d="M0 0 C13.2 0 26.4 0 40 0 C40 6.27 40 12.54 40 19 C34.72 19 29.44 19 24 19 C24 39.79 24 60.58 24 82 C28.29 82 32.58 82 37 82 C38 83 38 83 38.09766 86.37891 C38.08605 87.75949 38.07445 89.14008 38.0625 90.5625 C38.05348 91.94566 38.04445 93.32883 38.03516 94.75391 C38.02355 95.82512 38.01195 96.89633 38 98 C33.38 98.33 28.76 98.66 24 99 C24.06187 101.08312 24.12375 103.16625 24.1875 105.3125 C24.2223 106.48426 24.25711 107.65602 24.29297 108.86328 C24.66371 112.16427 24.66371 112.16427 27.37109 113.62891 C28.23863 114.08137 29.10617 114.53383 30 115 C33.43377 119.59495 34.94134 123.9148 35.25 129.625 C33.28602 136.49893 29.67085 140.36781 23.625 144.0625 C17.76495 145.57803 13.07989 145.05957 7.6875 142.3125 C3.43745 138.65548 1.38716 135.60027 0.0625 130.125 C-0.03051 123.98622 1.52275 119.82713 5.375 115.0625 C8 113 8 113 13 112 C13 107.38 13 102.76 13 98 C8.05 98 3.1 98 -2 98 C-2 92.72 -2 87.44 -2 82 C2.95 82 7.9 82 13 82 C13 61.21 13 40.42 13 19 C8.71 19 4.42 19 0 19 C0 12.73 0 6.46 0 0 Z " fill="#000000" transform="translate(373,704)"/>
<path d="M0 0 C13.53 0 27.06 0 41 0 C41 6.27 41 12.54 41 19 C36.05 19 31.1 19 26 19 C26 32.53 26 46.06 26 60 C30.29 60 34.58 60 39 60 C40 61 40 61 40.11353 64.23462 C40.10829 65.6538 40.10305 67.07297 40.09766 68.53516 C40.09443 70.06592 40.09121 71.59668 40.08789 73.17383 C40.07532 75.59372 40.07532 75.59372 40.0625 78.0625 C40.05799 79.67963 40.05348 81.29676 40.04883 82.96289 C40.03699 86.9753 40.02051 90.98763 40 95 C35.38 95 30.76 95 26 95 C26.00601 97.41702 26.0561 99.83396 26.125 102.25 C26.1482 103.59578 26.17141 104.94156 26.19531 106.32812 C26.64293 110.21537 26.64293 110.21537 29.91016 112.32031 C30.9298 112.87461 31.94945 113.42891 33 114 C37.28237 118.86106 38.42033 121.70415 38.34375 128.32812 C37.61214 134.01472 34.39322 137.79254 30.1875 141.4375 C25.01122 143.97489 20.95232 144.53857 15.375 143 C9.57874 139.56518 6.62991 135.88972 4.5 129.5 C3.85094 123.65845 4.58714 120.14365 7.8125 115.25 C10 113 10 113 12.58594 111.83984 C15.3848 110.12817 15.3848 110.12817 15.70703 106.42578 C15.74184 105.0684 15.77664 103.71102 15.8125 102.3125 C15.87437 99.89937 15.93625 97.48625 16 95 C11.05 95 6.1 95 1 95 C1 83.45 1 71.9 1 60 C5.95 60 10.9 60 16 60 C16 46.47 16 32.94 16 19 C10.72 19 5.44 19 0 19 C0 12.73 0 6.46 0 0 Z " fill="#000000" transform="translate(589,704)"/>
<path d="M0 0 C13.53 0 27.06 0 41 0 C41 6.27 41 12.54 41 19 C35.72 19 30.44 19 25 19 C25.24557 21.06895 25.24557 21.06895 25.49609 23.17969 C26.12813 29.50007 26.11046 35.77888 26.0625 42.125 C26.05799 43.27227 26.05348 44.41953 26.04883 45.60156 C26.03716 48.4011 26.0208 51.20052 26 54 C26.91395 54.27457 27.82789 54.54914 28.76953 54.83203 C34.29537 56.82989 37.95313 60.18542 40.875 65.25 C43.28528 73.28427 43.81275 79.24303 40 87 C36.74298 91.94168 32.63076 95.12308 27 97 C12.33716 98.12366 12.33716 98.12366 6 93 C-0.31786 86.40135 -1.47401 81.16399 -1.3125 72.23047 C-0.72457 66.15274 1.63012 62.36988 5.875 58.125 C9 56 9 56 15 54 C15 42.45 15 30.9 15 19 C10.05 19 5.1 19 0 19 C0 12.73 0 6.46 0 0 Z " fill="#000000" transform="translate(643,704)"/>
<path d="M0 0 C13.53 0 27.06 0 41 0 C41 6.27 41 12.54 41 19 C36.05 19 31.1 19 26 19 C26.33 30.22 26.66 41.44 27 53 C29.64 54.32 32.28 55.64 35 57 C41.16851 63.28275 43.61206 68.20673 44 77 C42.0362 85.4328 38.56838 90.77708 31.1875 95.375 C22.96159 98.56714 17.12609 98.46554 9 95 C3.30461 91.4562 0.60528 86.4211 -1 80 C-1.44922 72.36319 -0.38024 66.74038 3.75 60.25 C6.56072 57.43928 9.44072 55.74728 13 54 C13.99 54 14.98 54 16 54 C16 42.45 16 30.9 16 19 C10.72 19 5.44 19 0 19 C0 12.73 0 6.46 0 0 Z " fill="#000000" transform="translate(698,704)"/>
<path d="M0 0 C3.63 0 7.26 0 11 0 C14.10482 13.19547 14.25239 25.3874 7.57422 37.60938 C4.71785 42.00833 1.44636 46.04682 -2 50 C-5.5 47.25 -5.5 47.25 -9 44 C-9 39.22253 -7.43077 37.89434 -4.60156 34.25391 C2.83797 23.78413 1.64745 12.14995 0 0 Z " fill="#000000" transform="translate(758,704)"/>
<path d="M0 0 C13.53 0 27.06 0 41 0 C37.8098 7.97551 32.74048 14.8705 28 22 C27.22656 23.16717 27.22656 23.16717 26.4375 24.35791 C16.10195 39.89677 5.18043 54.90733 -7.65234 68.49609 C-9.70934 70.69 -11.64943 72.93127 -13.5625 75.25 C-14.76906 76.61125 -14.76906 76.61125 -16 78 C-16.66 78 -17.32 78 -18 78 C-18 78.66 -18 79.32 -18 80 C-19.60938 81.65625 -19.60938 81.65625 -21.75 83.5 C-22.44609 84.10844 -23.14219 84.71687 -23.85938 85.34375 C-26 87 -26 87 -30 89 C-29.53594 87.14375 -29.53594 87.14375 -29.0625 85.25 C-28.38457 82.42306 -27.99925 80.03272 -28.06641 77.11719 C-28.16675 71.99322 -27.93664 69.09127 -24.51562 65.10547 C-22.40217 63.22597 -20.2551 61.38367 -18.07812 59.57812 C-6.75336 50.09292 -0.85231 36.44172 1 22 C1.42716 14.46928 0.9379 7.50322 0 0 Z " fill="#000000" transform="translate(781,704)"/>
<path d="M0 0 C4.06187 2.76553 4.91667 4.75348 6.5 9.4375 C7.0361 14.32939 6.74606 16.02294 4 20 C3.01 20.99 2.02 21.98 1 23 C0.34 23 -0.32 23 -1 23 C-1 34.22 -1 45.44 -1 57 C3.62 57 8.24 57 13 57 C13.02885 62.64582 13.04675 68.29163 13.0625 73.9375 C13.07088 75.55076 13.07926 77.16402 13.08789 78.82617 C13.09111 80.35693 13.09434 81.8877 13.09766 83.46484 C13.10289 84.88402 13.10813 86.3032 13.11353 87.76538 C13 91 13 91 12 92 C9.81361 92.07259 7.625 92.08374 5.4375 92.0625 C4.23996 92.05348 3.04242 92.04445 1.80859 92.03516 C0.41834 92.01775 0.41834 92.01775 -1 92 C-0.94779 94.00514 -0.94779 94.00514 -0.89453 96.05078 C-0.86639 97.80467 -0.83909 99.55858 -0.8125 101.3125 C-0.78736 102.19357 -0.76223 103.07465 -0.73633 103.98242 C-0.70963 106.32311 -0.8462 108.66422 -1 111 C-1.99 111.99 -2.98 112.98 -4 114 C-7.625 113.8125 -7.625 113.8125 -11 113 C-12.77469 109.45061 -12.0993 105.28156 -12.0625 101.375 C-12.05799 100.47781 -12.05348 99.58063 -12.04883 98.65625 C-12.03703 96.43747 -12.01909 94.21873 -12 92 C-12.99902 92.0116 -13.99805 92.0232 -15.02734 92.03516 C-16.3177 92.04418 -17.60805 92.0532 -18.9375 92.0625 C-20.22527 92.0741 -21.51305 92.0857 -22.83984 92.09766 C-26 92 -26 92 -27 91 C-27.10036 88.57459 -27.13082 86.14624 -27.13281 83.71875 C-27.1341 82.23762 -27.13539 80.75648 -27.13672 79.23047 C-27.13285 77.66941 -27.12898 76.10836 -27.125 74.5 C-27.12887 72.93895 -27.13273 71.37789 -27.13672 69.76953 C-27.13543 68.2884 -27.13414 66.80727 -27.13281 65.28125 C-27.13168 63.91033 -27.13056 62.53941 -27.12939 61.12695 C-27 58 -27 58 -26 57 C-21.38 57 -16.76 57 -12 57 C-12 45.78 -12 34.56 -12 23 C-13.32 22.34 -14.64 21.68 -16 21 C-18.11258 17.28477 -19 14.72359 -19 10.4375 C-17.78512 6.26137 -16.06139 4.06139 -13 1 C-7.9712 -1.5144 -5.45454 -1.1208 0 0 Z " fill="#000000" transform="translate(561,707)"/>
<path d="M0 0 C7.57942 1.89485 12.25115 8.11143 17 14 C17 17 17 17 14.48047 19.62891 C13.39379 20.59699 12.30711 21.56508 11.1875 22.5625 C9.56908 24.0185 9.56908 24.0185 7.91797 25.50391 C5 28 5 28 2 30 C-0.13155 28.09062 -2.25503 26.17223 -4.375 24.25 C-5.55836 23.18266 -6.74172 22.11531 -7.96094 21.01562 C-11 18 -11 18 -13 14 C-12.48051 13.49211 -11.96102 12.98422 -11.42578 12.46094 C-7.38213 8.46961 -3.55511 4.44389 0 0 Z " fill="#000000" transform="translate(661,809)"/>
<path d="M0 0 C6.93 0 13.86 0 21 0 C21.5775 1.85625 22.155 3.7125 22.75 5.625 C24.28986 10.27757 25.96247 14.09461 29 18 C28.67 18.66 28.34 19.32 28 20 C26.68 19.05125 25.36 18.1025 24 17.125 C17.95849 12.87164 11.66129 9.05815 5.34375 5.23438 C2 3 2 3 0 0 Z " fill="#000000" transform="translate(283,821)"/>
<path d="M0 0 C8.25 0 16.5 0 25 0 C22.10244 2.89756 20.06612 4.77542 16.73438 6.875 C15.92613 7.38547 15.11789 7.89594 14.28516 8.42188 C13.44855 8.94266 12.61195 9.46344 11.75 10 C10.92887 10.52078 10.10773 11.04156 9.26172 11.57812 C4.29555 14.69477 -0.71267 17.46598 -6 20 C-5.56687 18.74188 -5.13375 17.48375 -4.6875 16.1875 C-2.94975 10.84553 -1.47806 5.41957 0 0 Z " fill="#000000" transform="translate(691,821)"/>
<path d="M0 0 C0.66 0 1.32 0 2 0 C3.04752 1.33915 4.03778 2.7233 5 4.125 C10.67425 11.61596 17.79462 15.2953 27 17 C10.54708 37.19222 -35.08142 44.26597 -59.36719 49.43262 C-61.79389 49.95558 -64.21014 50.5264 -66.625 51.10156 C-102.68166 59.41745 -140.29161 61.0035 -177 57 C-178.59586 56.82855 -180.19172 56.65711 -181.83594 56.48047 C-223.64141 51.19511 -267.48776 40.65604 -304 19 C-304 18.67 -304 18.34 -304 18 C-303.01 17.78086 -302.02 17.56172 -301 17.33594 C-292.89773 15.38949 -287.24327 13.53649 -281 8 C-279.68 7.01 -278.36 6.02 -277 5 C-276.64938 6.32 -276.29875 7.64 -275.9375 9 C-273.34829 16.58866 -268.91178 21.36684 -261.75 24.9375 C-252.86597 28.50568 -245.42272 29.01754 -236.51172 25.29297 C-229.45347 21.65956 -226.11841 17.16078 -223 10 C-222.34 8.68 -221.68 7.36 -221 6 C-202.52 6 -184.04 6 -165 6 C-164.67 12.6 -164.34 19.2 -164 26 C-161.89839 33.81798 -158.82797 38.75749 -152 43 C-145.5515 46.00099 -140.01849 46.50396 -133 45 C-124.74741 41.60188 -120.41836 37.78438 -116.86035 29.56958 C-115.4101 25.23817 -115.3232 20.97266 -115.25 16.4375 C-115.22035 15.5242 -115.1907 14.6109 -115.16016 13.66992 C-115.09033 11.44707 -115.0428 9.22354 -115 7 C-111.51721 6.1293 -109.03022 5.87837 -105.49707 5.88647 C-103.84581 5.88659 -103.84581 5.88659 -102.16119 5.8867 C-100.97878 5.89186 -99.79637 5.89703 -98.57812 5.90234 C-97.363 5.90376 -96.14788 5.90517 -94.89594 5.90663 C-91.01393 5.91223 -87.13199 5.92478 -83.25 5.9375 C-80.61849 5.94252 -77.98698 5.94708 -75.35547 5.95117 C-68.90362 5.9622 -62.45182 5.97946 -56 6 C-55.61111 6.82492 -55.22221 7.64984 -54.82153 8.49976 C-54.29906 9.58136 -53.77659 10.66296 -53.23828 11.77734 C-52.72564 12.84976 -52.21299 13.92218 -51.68481 15.0271 C-48.38269 20.85379 -43.83989 23.14871 -37.8125 25.9375 C-29.8518 27.69506 -22.15104 27.83373 -15.0625 23.375 C-6.71522 16.92344 -3.23589 9.70767 0 0 Z M-204 21 C-206.4434 23.93208 -206.9666 25.68822 -207.375 29.5 C-206.96942 33.28541 -206.37361 35.05345 -204 38 C-201.098 40.33773 -199.27699 40.96475 -195.5625 41.4375 C-191.36554 40.92208 -189.26069 39.63961 -186 37 C-184.14232 33.28463 -184.54208 29.0386 -185 25 C-186.84606 21.71812 -188.19255 20.42391 -191.5 18.6875 C-196.58954 17.28788 -199.64034 18.31 -204 21 Z M-92 22 C-94.78065 25.82339 -95.08265 27.39392 -94.4375 32.125 C-92.72576 36.89817 -92.72576 36.89817 -89 40 C-84.02035 41.13821 -81.19914 41.58867 -76.5625 39.3125 C-73.32551 36.39131 -72.14942 33.98989 -71.5 29.6875 C-72.20281 24.5043 -74.1361 22.44992 -78 19 C-84.07222 17.19731 -87.30319 17.7401 -92 22 Z " fill="#000000" transform="translate(639,833)"/>
</svg>
