<?xml version="1.0" encoding="UTF-8"?>
<!-- Created with CreateLogo.app :) -->
<svg version="1.1" xmlns="http://www.w3.org/2000/svg" width="1024" height="1024">
<path d="M0 0 C0.8958 0.00054 1.7916 0.00109 2.71454 0.00165 C72.14449 0.19442 135.54713 31.00429 184.3125 79.375 C235.2361 131.24822 257.11093 198.65584 256.52344 270.21094 C256.38433 281.48112 255.47429 292.31932 253.3125 303.375 C253.11914 304.40593 252.92578 305.43686 252.72656 306.49902 C239.30325 376.61925 199.82298 436.00975 141.125 476.4375 C85.0537 512.93116 15.76782 526.97122 -50.01172 513.88403 C-89.73097 505.1973 -127.60886 487.71881 -158.6875 461.375 C-160.17443 460.16264 -160.17443 460.16264 -161.69141 458.92578 C-177.16572 446.06937 -192.01274 431.8074 -203.6875 415.375 C-204.55085 414.16505 -204.55085 414.16505 -205.43164 412.93066 C-246.95307 354.41154 -264.18755 284.41429 -252.16748 213.29834 C-250.9349 206.58909 -249.40669 199.97525 -247.6875 193.375 C-247.44548 192.44414 -247.20346 191.51327 -246.9541 190.5542 C-237.16997 153.94239 -218.29839 118.39018 -192.6875 90.375 C-191.82923 89.42851 -191.82923 89.42851 -190.95361 88.46289 C-178.83492 75.13583 -166.0134 63.33202 -151.6875 52.375 C-150.72328 51.61445 -149.75906 50.85391 -148.76562 50.07031 C-115.61619 24.33829 -75.91609 8.81236 -34.6875 2.375 C-33.59123 2.1955 -32.49497 2.016 -31.36548 1.83105 C-20.91719 0.25688 -10.54454 -0.02419 0 0 Z M-144.6875 70.375 C-145.56535 71.0582 -146.4432 71.74141 -147.34766 72.44531 C-193.74447 109.48077 -227.79966 165.30968 -235.22656 224.68457 C-236.23294 233.90771 -236.96003 243.12002 -237.6875 252.375 C-223.4975 252.375 -209.3075 252.375 -194.6875 252.375 C-194.65012 248.07855 -194.61273 243.78211 -194.57422 239.35547 C-194.52804 235.20527 -194.47679 231.05516 -194.42505 226.90503 C-194.39175 224.01544 -194.36373 221.12578 -194.34106 218.23608 C-194.30762 214.08809 -194.25531 209.94071 -194.19922 205.79297 C-194.19283 204.49603 -194.18644 203.19908 -194.17986 201.86284 C-194.16006 200.66182 -194.14027 199.4608 -194.11987 198.22339 C-194.10877 197.16416 -194.09767 196.10493 -194.08623 195.0136 C-193.6875 192.375 -193.6875 192.375 -190.6875 189.375 C-185.78187 188.14859 -184.07229 189.05851 -179.6875 191.375 C-178.66467 194.44348 -178.55934 196.53099 -178.55379 199.74458 C-178.54952 200.85912 -178.54526 201.97365 -178.54086 203.12196 C-178.54132 204.3454 -178.54177 205.56884 -178.54224 206.82935 C-178.53888 208.11737 -178.53552 209.4054 -178.53206 210.73245 C-178.52253 215.00524 -178.5206 219.27799 -178.51953 223.55078 C-178.51632 226.51401 -178.51296 229.47724 -178.50945 232.44048 C-178.50345 238.65881 -178.50161 244.87712 -178.5022 251.09546 C-178.5023 259.06851 -178.48865 267.04148 -178.47143 275.01451 C-178.46031 281.13712 -178.45828 287.25972 -178.45881 293.38235 C-178.45763 296.32199 -178.45319 299.26163 -178.44547 302.20126 C-178.43569 306.31173 -178.43855 310.422 -178.44458 314.53247 C-178.43896 315.74983 -178.43334 316.9672 -178.42755 318.22145 C-178.43175 319.34445 -178.43594 320.46744 -178.44026 321.62447 C-178.43972 322.59583 -178.43917 323.56719 -178.43861 324.56798 C-178.81784 328.84495 -179.61369 332.30119 -182.6875 335.375 C-188.78463 336.05246 -188.78463 336.05246 -191.87994 333.72992 C-194.17652 330.73789 -194.20243 329.06874 -194.2334 325.32129 C-194.25312 324.10033 -194.27284 322.87936 -194.29315 321.6214 C-194.29438 320.30774 -194.29561 318.99409 -194.29688 317.64062 C-194.31341 316.29233 -194.32995 314.94403 -194.34698 313.55487 C-194.3956 309.24487 -194.41687 304.93522 -194.4375 300.625 C-194.46565 297.70441 -194.49557 294.78383 -194.52734 291.86328 C-194.60471 284.70036 -194.64511 277.53856 -194.6875 270.375 C-208.5475 270.045 -222.4075 269.715 -236.6875 269.375 C-236.6875 278.25203 -236.44546 286.22604 -235.0625 294.875 C-234.79627 296.56049 -234.79627 296.56049 -234.52466 298.28003 C-232.89695 308.04009 -230.50769 317.42189 -227.49512 326.83936 C-226.68049 329.39702 -225.9055 331.96455 -225.13281 334.53516 C-216.83506 361.45046 -203.01052 385.32101 -185.6875 407.375 C-184.92824 408.34824 -184.16898 409.32148 -183.38672 410.32422 C-175.02594 420.7943 -165.9741 430.77473 -155.6875 439.375 C-154.66076 440.34373 -154.66076 440.34373 -153.61328 441.33203 C-112.96895 479.63017 -54.43059 499.86084 0.75 499.75 C1.72228 499.74979 2.69455 499.74958 3.69629 499.74936 C18.59113 499.71704 32.77996 498.85283 47.3125 495.375 C49.02459 494.99671 50.73683 494.6191 52.44922 494.24219 C57.44793 493.10146 62.38406 491.78704 67.3125 490.375 C68.1375 490.13975 68.9625 489.90449 69.8125 489.66211 C105.85271 479.12257 137.29746 459.12617 164.3125 433.375 C165.11172 432.61703 165.91094 431.85906 166.73438 431.07812 C171.53251 426.41235 175.82396 421.4734 180 416.24609 C182.35817 413.3183 184.8004 410.47649 187.25 407.625 C196.77964 396.17763 204.28638 383.46914 211.3125 370.375 C211.98023 369.14652 212.64797 367.91805 213.33594 366.65234 C227.38158 339.81019 236.36238 309.12694 237.88672 278.83594 C238.00986 276.44674 238.00986 276.44674 238.1355 274.00928 C238.19391 272.80997 238.25232 271.61065 238.3125 270.375 C232.34952 270.20779 226.38642 270.04719 220.4231 269.89282 C218.39277 269.83932 216.3625 269.78398 214.33228 269.72681 C211.42084 269.64512 208.5093 269.56995 205.59766 269.49609 C204.68412 269.46906 203.77058 269.44202 202.82936 269.41417 C200.65765 269.36226 198.48479 269.36311 196.3125 269.375 C194.56655 271.12095 195.17853 273.5438 195.17065 275.91699 C195.16362 277.10202 195.15659 278.28705 195.14934 279.508 C195.14309 281.44537 195.14309 281.44537 195.13672 283.42188 C195.11352 286.13022 195.0894 288.83855 195.06445 291.54688 C195.02932 295.83729 194.99999 300.12743 194.98657 304.41797 C194.97112 308.54462 194.93092 312.67044 194.88672 316.79688 C194.88863 318.08036 194.89054 319.36384 194.8925 320.68622 C194.87601 321.88386 194.85952 323.0815 194.84253 324.31543 C194.83373 325.89309 194.83373 325.89309 194.82475 327.50262 C194.17295 331.15748 192.99779 332.83554 190.3125 335.375 C185.5625 335.6875 185.5625 335.6875 181.3125 335.375 C179.46232 329.10591 179.03162 323.25431 179.06958 316.76587 C179.06768 315.73197 179.06578 314.69806 179.06383 313.63283 C179.06013 310.22519 179.07082 306.81777 179.08203 303.41016 C179.08323 301.01525 179.08368 298.62035 179.08342 296.22545 C179.08498 291.1995 179.09325 286.17363 179.10669 281.14771 C179.12352 274.7786 179.12751 268.40957 179.12674 262.04044 C179.12702 257.08544 179.13256 252.13045 179.13975 247.17544 C179.14288 244.83206 179.14489 242.48867 179.14564 240.14528 C179.15386 227.90179 179.27302 215.66214 179.6355 203.42358 C179.65733 202.35736 179.67916 201.29113 179.70165 200.19259 C179.96515 192.72235 179.96515 192.72235 183.3125 189.375 C187.84672 188.12085 188.94874 188.19312 193.3125 190.375 C194.6458 193.0416 194.47409 195.12389 194.51782 198.10986 C194.53777 199.31096 194.55771 200.51205 194.57826 201.74954 C194.60333 203.7027 194.60333 203.7027 194.62891 205.69531 C194.64969 207.02425 194.67047 208.35318 194.69188 209.72238 C194.75744 213.98153 194.81629 218.24075 194.875 222.5 C194.91818 225.38152 194.96179 228.26303 195.00586 231.14453 C195.11395 238.22129 195.21297 245.29809 195.3125 252.375 C209.5025 252.375 223.6925 252.375 238.3125 252.375 C238.3125 200.40941 218.19712 148.35477 185.3125 108.375 C184.29027 107.12977 183.26805 105.88453 182.21484 104.60156 C172.79209 93.39152 162.79059 83.45619 151.3125 74.375 C150.18328 73.42754 150.18328 73.42754 149.03125 72.46094 C62.93792 0.81477 -57.6678 2.54549 -144.6875 70.375 Z " fill="#000000" transform="translate(510.6875,252.625)"/>
<path d="M0 0 C3.17364 2.54242 4.8068 4.04725 5.6256 8.08502 C5.62586 9.25049 5.62613 10.41596 5.62641 11.61675 C5.63883 12.96535 5.65126 14.31395 5.66405 15.70341 C5.65222 17.18413 5.64038 18.66485 5.62819 20.19044 C5.63528 21.76406 5.64238 23.33768 5.64969 24.95898 C5.66865 29.32976 5.65635 33.69998 5.63896 38.07074 C5.62562 42.78314 5.64102 47.49546 5.65279 52.20786 C5.67119 61.44027 5.66264 70.67247 5.6447 79.90487 C5.63069 87.40617 5.62678 94.9074 5.63014 102.4087 C5.63062 103.47539 5.6311 104.54207 5.63159 105.64107 C5.63261 107.80785 5.63367 109.97462 5.63475 112.1414 C5.64332 131.31005 5.62663 150.47859 5.59692 169.64722 C5.56808 188.25924 5.561 206.87112 5.57642 225.48315 C5.59317 245.73856 5.59723 265.9939 5.57971 286.24931 C5.57786 288.40791 5.57603 290.56651 5.5742 292.72511 C5.57329 293.78726 5.57238 294.8494 5.57144 295.94373 C5.56582 303.43899 5.56915 310.93422 5.57575 318.42948 C5.58347 327.55935 5.57677 336.68908 5.55157 345.81893 C5.53905 350.47967 5.53297 355.14019 5.54411 359.80094 C5.55595 364.84635 5.53695 369.89116 5.51466 374.93654 C5.52702 377.16097 5.52702 377.16097 5.53964 379.43034 C5.52859 380.77632 5.51754 382.12231 5.50616 383.50909 C5.50497 384.6744 5.50377 385.83971 5.50255 387.04033 C4.88883 390.65471 3.88658 391.80424 1 394 C-2.4375 395.0625 -2.4375 395.0625 -6 395 C-9.22708 392.48723 -10.8045 390.96432 -11.62675 386.90857 C-11.62756 385.74006 -11.62837 384.57155 -11.62921 383.36763 C-11.64876 381.33951 -11.64876 381.33951 -11.66872 379.27042 C-11.65756 377.78581 -11.64641 376.30119 -11.63492 374.77159 C-11.64662 372.40504 -11.64662 372.40504 -11.65855 369.99068 C-11.67946 365.60851 -11.66909 361.22688 -11.65362 356.84471 C-11.64233 352.12004 -11.65976 347.39545 -11.67352 342.67079 C-11.69578 333.41432 -11.69094 324.15806 -11.67646 314.90158 C-11.66518 307.38074 -11.66363 299.85996 -11.66908 292.33911 C-11.66984 291.26966 -11.67061 290.2002 -11.6714 289.09833 C-11.673 286.92592 -11.67462 284.75351 -11.67626 282.5811 C-11.69053 262.20041 -11.67412 241.81984 -11.64726 221.43917 C-11.62492 203.94076 -11.6288 186.44251 -11.65186 168.94409 C-11.67859 148.63594 -11.68916 128.32789 -11.67379 108.01972 C-11.6722 105.85551 -11.67063 103.69129 -11.66908 101.52707 C-11.66831 100.46216 -11.66754 99.39725 -11.66674 98.30007 C-11.66242 90.78527 -11.66972 83.27052 -11.68148 75.75572 C-11.69548 66.60203 -11.69175 57.44856 -11.66507 48.2949 C-11.65191 43.62196 -11.64683 38.94938 -11.66332 34.27644 C-11.6809 29.21779 -11.65995 24.16005 -11.63492 19.10143 C-11.64607 17.61458 -11.65723 16.12774 -11.66872 14.59584 C-11.65568 13.24637 -11.64264 11.89689 -11.62921 10.50653 C-11.62839 9.33818 -11.62758 8.16984 -11.62675 6.96608 C-11 4 -11 4 -8.64817 1.6285 C-5.36914 -0.38795 -3.78368 -0.70944 0 0 Z " fill="#000000" transform="translate(515,315)"/>
<path d="M0 0 C3.68234 0.69044 5.36814 1.93064 8 4.5625 C9.00804 7.58662 9.12529 9.59406 9.12584 12.75563 C9.12845 13.83773 9.13106 14.91982 9.13374 16.0347 C9.13151 17.22814 9.12928 18.42158 9.12698 19.65118 C9.12854 20.91567 9.1301 22.18016 9.13171 23.48296 C9.13572 27.74549 9.13253 32.00798 9.12939 36.27051 C9.13075 39.31734 9.13253 42.36417 9.1347 45.411 C9.1388 52.8479 9.13819 60.2848 9.13529 67.7217 C9.13303 73.77597 9.13273 79.83024 9.13382 85.88451 C9.13397 86.74615 9.13412 87.6078 9.13428 88.49555 C9.1346 90.24619 9.13492 91.99684 9.13525 93.74748 C9.13811 110.18717 9.13482 126.62686 9.12945 143.06655 C9.125 157.13242 9.12575 171.19829 9.13037 185.26416 C9.13574 201.61383 9.13782 217.96349 9.13476 234.31316 C9.13444 236.0635 9.13413 237.81383 9.13382 239.56417 C9.13358 240.85574 9.13358 240.85574 9.13335 242.1734 C9.13249 248.20096 9.13393 254.22852 9.1363 260.25608 C9.13942 268.40814 9.13714 276.56019 9.1314 284.71225 C9.13009 287.68905 9.13044 290.66585 9.13266 293.64264 C9.13874 302.61671 9.10861 311.58905 9 320.5625 C8.98686 321.71297 8.97373 322.86344 8.9602 324.04877 C8.91184 327.26899 8.83345 330.48675 8.74191 333.70599 C8.72831 334.64138 8.71471 335.57676 8.7007 336.54049 C8.5542 340.51746 8.22889 343.1873 6.13722 346.61603 C3.37189 349.13455 1.72621 349.5625 -2 349.5625 C-6.56522 347.43207 -6.56522 347.43207 -8 344.5625 C-8.09431 342.44666 -8.1219 340.32775 -8.12025 338.20981 C-8.12163 336.85238 -8.123 335.49495 -8.12442 334.09639 C-8.12082 332.59811 -8.11723 331.09983 -8.11353 329.55615 C-8.11367 327.98554 -8.11382 326.41492 -8.11397 324.79671 C-8.11426 320.48084 -8.10836 316.16499 -8.10139 311.84913 C-8.09516 307.3421 -8.09456 302.83507 -8.09337 298.32803 C-8.09026 289.7893 -8.08204 281.25059 -8.07202 272.71186 C-8.06085 262.99254 -8.05535 253.27321 -8.05032 243.55388 C-8.03986 223.55674 -8.02226 203.55962 -8 183.5625 C-9.2375 183.58312 -10.475 183.60375 -11.75 183.625 C-16 183.5625 -16 183.5625 -20 182.5625 C-19.99778 183.61675 -19.99556 184.67099 -19.99327 185.75719 C-19.97295 195.8569 -19.95787 205.9566 -19.94819 216.05633 C-19.94304 221.24451 -19.9361 226.43268 -19.92456 231.62085 C-19.89725 244.36695 -19.90654 257.1122 -19.98434 269.85812 C-19.99464 271.63719 -20.00342 273.41627 -20.01054 275.19535 C-20.03256 280.69503 -20.0988 286.1925 -20.19141 291.69141 C-20.19688 293.04226 -20.20235 294.39311 -20.20799 295.7849 C-20.41729 304.72849 -20.41729 304.72849 -23.32788 308.89429 C-26.8585 311.09846 -28.91142 311.23154 -33 310.5625 C-35.55172 308.74943 -36.72263 307.52287 -37.59363 304.5071 C-38.16261 300.38422 -38.13739 296.28927 -38.12698 292.13634 C-38.12854 291.18246 -38.1301 290.22858 -38.13171 289.24579 C-38.1357 286.04658 -38.13254 282.84741 -38.12939 279.64819 C-38.13075 277.35481 -38.13253 275.06143 -38.1347 272.76805 C-38.13927 266.53166 -38.13749 260.29529 -38.13433 254.0589 C-38.13179 247.52059 -38.13414 240.98229 -38.13571 234.44398 C-38.13753 223.44727 -38.13513 212.45057 -38.13037 201.45386 C-38.12495 188.78067 -38.12668 176.10749 -38.1322 163.4343 C-38.13675 152.53377 -38.13737 141.63323 -38.13476 130.7327 C-38.13321 124.23197 -38.13297 117.73124 -38.1363 111.23051 C-38.13921 105.10164 -38.13713 98.97279 -38.1314 92.84393 C-38.13009 90.60926 -38.13043 88.37459 -38.13266 86.13992 C-38.13887 79.27965 -38.0935 72.4221 -38 65.5625 C-37.99218 64.61133 -37.98436 63.66016 -37.97631 62.68016 C-37.94562 59.91349 -37.88037 57.14981 -37.80441 54.38405 C-37.77078 52.80106 -37.73714 51.21808 -37.70248 49.58712 C-36.88597 44.90921 -35.7517 43.38465 -32 40.5625 C-28.16695 39.8438 -26.56304 40.23719 -23.1875 42.1875 C-18.52698 47.24749 -19.86424 55.28204 -19.88647 61.80029 C-19.88633 62.92283 -19.88618 64.04537 -19.88603 65.20192 C-19.88673 68.90286 -19.8945 72.60375 -19.90234 76.30469 C-19.90421 78.87444 -19.90563 81.44419 -19.90663 84.01395 C-19.91045 90.77068 -19.92027 97.52739 -19.93134 104.28412 C-19.94157 111.1816 -19.94613 118.07908 -19.95117 124.97656 C-19.96189 138.50522 -19.97895 152.03386 -20 165.5625 C-16.04 165.5625 -12.08 165.5625 -8 165.5625 C-8.00461 164.74251 -8.00922 163.92252 -8.01397 163.07769 C-8.12436 143.13094 -8.20711 123.18431 -8.25906 103.23733 C-8.28485 93.59113 -8.32001 83.94514 -8.3772 74.29907 C-8.42701 65.89212 -8.45929 57.48531 -8.47044 49.07822 C-8.47696 44.62612 -8.4923 40.17445 -8.52865 35.7225 C-8.56888 30.75413 -8.56995 25.78617 -8.56763 20.81763 C-8.5856 19.33949 -8.60358 17.86134 -8.6221 16.33841 C-8.61523 14.98527 -8.60835 13.63213 -8.60127 12.23799 C-8.60588 11.06271 -8.61049 9.88742 -8.61524 8.67652 C-7.64142 3.74755 -4.94542 0.92727 0 0 Z " fill="#000000" transform="translate(483,339.4375)"/>
<path d="M0 0 C3.19219 2.55605 4.81208 4.04884 5.61524 8.11402 C5.61063 9.2893 5.60602 10.46459 5.60127 11.67549 C5.61158 13.7052 5.61158 13.7052 5.6221 15.77591 C5.60412 17.25405 5.58615 18.73219 5.56763 20.25513 C5.56836 21.81643 5.56909 23.37773 5.56984 24.98634 C5.56695 29.26324 5.54188 33.53894 5.50697 37.81562 C5.47571 42.28657 5.47278 46.75753 5.46684 51.22856 C5.4513 59.69297 5.41028 68.15705 5.3601 76.62131 C5.3042 86.25844 5.27672 95.89559 5.25162 105.53284 C5.19936 125.35542 5.11041 145.17765 5 165 C9.29 165 13.58 165 18 165 C17.9889 163.50773 17.97779 162.01547 17.96635 160.47798 C17.86507 146.42569 17.79008 132.37347 17.74094 118.32089 C17.71483 111.09601 17.6794 103.87143 17.6228 96.64673 C17.56854 89.67653 17.53859 82.70662 17.52561 75.73623 C17.51636 73.07483 17.4983 70.41344 17.47135 67.75216 C17.43514 64.02885 17.43005 60.30671 17.43237 56.58325 C17.4144 55.47914 17.39642 54.37503 17.3779 53.23746 C17.42835 45.77637 17.42835 45.77637 20.34798 41.8112 C23.62034 39.57634 25.11409 39.27139 29 40 C31.8125 41.4375 31.8125 41.4375 34 44 C35.01068 50.45335 35.14463 56.84086 35.13371 63.36757 C35.13598 64.37417 35.13824 65.38077 35.14058 66.41787 C35.14688 69.77086 35.14609 73.12381 35.14526 76.47681 C35.14826 78.88877 35.15166 81.30073 35.15544 83.71269 C35.16426 90.24968 35.16662 96.78666 35.16726 103.32365 C35.16797 107.40882 35.1701 111.49399 35.17275 115.57916 C35.182 129.83346 35.18609 144.08774 35.1853 158.34204 C35.1847 171.62677 35.19527 184.91147 35.21105 198.19619 C35.22412 209.60787 35.22949 221.01953 35.22885 232.43122 C35.22859 239.24451 35.23144 246.05777 35.24203 252.87105 C35.2517 259.27573 35.25179 265.68034 35.24451 272.08502 C35.24346 274.43439 35.24583 276.78377 35.25187 279.13313 C35.25959 282.34197 35.25495 285.55057 35.24724 288.75941 C35.25238 289.68715 35.25753 290.61488 35.26282 291.57072 C35.23403 297.00119 34.79026 301.8557 33 307 C28.5829 310.31283 27.31729 310.66466 22 310 C19.45042 308.00844 18.17005 306.80284 17.49219 303.60249 C17.4885 302.70651 17.48482 301.81052 17.48102 300.88739 C17.46711 299.85536 17.45319 298.82334 17.43886 297.76004 C17.44389 296.63363 17.44892 295.50722 17.4541 294.34668 C17.44376 293.15616 17.43343 291.96564 17.42278 290.73904 C17.39325 286.79985 17.39185 282.86117 17.39062 278.92188 C17.37565 276.19231 17.35892 273.46276 17.34052 270.73322 C17.29676 263.54573 17.27682 256.35837 17.26178 249.17078 C17.24224 241.83774 17.20027 234.50483 17.16016 227.17188 C17.08476 212.78129 17.03453 198.39074 17 184 C13.37 183.67 9.74 183.34 6 183 C6.00184 183.78538 6.00369 184.57076 6.00559 185.37994 C6.0498 204.51029 6.08287 223.64062 6.10362 242.77101 C6.11393 252.02241 6.12797 261.27377 6.15088 270.52515 C6.17084 278.59081 6.18372 286.65644 6.18818 294.72213 C6.19078 298.99087 6.19687 303.25954 6.21146 307.52826 C6.22598 312.2994 6.22798 317.07039 6.22705 321.84155 C6.23424 323.24921 6.24143 324.65687 6.24884 326.10718 C6.23432 333.01458 6.17891 339.40567 4 346 C0 349 0 349 -3.5 349 C-7.72481 347.79291 -8.64894 346.63768 -11 343 C-11.50255 340.21749 -11.50255 340.21749 -11.50616 337.12006 C-11.52273 335.34367 -11.52273 335.34367 -11.53964 333.53139 C-11.53139 332.23423 -11.52315 330.93706 -11.51466 329.60059 C-11.52161 328.2196 -11.52855 326.83862 -11.53571 325.41578 C-11.55406 320.77182 -11.54369 316.12836 -11.53345 311.48438 C-11.5405 308.16173 -11.54911 304.83912 -11.55956 301.51648 C-11.58121 293.41876 -11.58106 285.32118 -11.57293 277.22344 C-11.56663 270.64321 -11.56776 264.06302 -11.5742 257.48279 C-11.5751 256.54684 -11.576 255.61089 -11.57693 254.64657 C-11.57879 252.7453 -11.58065 250.84403 -11.58252 248.94276 C-11.59911 231.10772 -11.59037 213.27275 -11.57354 195.43771 C-11.55884 179.11336 -11.57347 162.78919 -11.60231 146.46486 C-11.63168 129.70996 -11.64268 112.95515 -11.63312 96.20023 C-11.6321 94.30589 -11.63111 92.41155 -11.63014 90.51721 C-11.62966 89.58512 -11.62919 88.65303 -11.6287 87.69269 C-11.62653 81.11911 -11.63635 74.54561 -11.65091 67.97205 C-11.66841 59.9628 -11.66836 51.95379 -11.64556 43.94455 C-11.63439 39.85674 -11.634 35.76943 -11.64986 31.68163 C-11.66569 27.25382 -11.65094 22.82716 -11.62819 18.39941 C-11.64002 17.10225 -11.65186 15.80508 -11.66405 14.46861 C-11.57317 5.80388 -11.57317 5.80388 -8.64824 1.7016 C-5.35501 -0.41443 -3.83915 -0.79982 0 0 Z " fill="#000000" transform="translate(544,340)"/>
<path d="M0 0 C4.31589 4.31589 4.12555 7.90386 4.12939 13.73022 C4.13255 15.10364 4.1357 16.47705 4.13895 17.89207 C4.13692 19.38046 4.1349 20.86885 4.13281 22.40234 C4.13425 24.71632 4.13425 24.71632 4.13571 27.07704 C4.13657 31.19373 4.13254 35.31038 4.12695 39.42706 C4.12376 43.53667 4.13138 47.64626 4.13672 51.75586 C4.13977 67.86557 4.04743 83.91988 3 100 C7.455 99.505 7.455 99.505 12 99 C12.32191 96.32386 12.64365 93.64769 12.9646 90.97144 C13.23925 88.69008 13.51612 86.40899 13.79517 84.12817 C14.42074 78.98786 15.03263 73.85231 15.50391 68.69531 C15.71854 66.46395 15.71854 66.46395 15.9375 64.1875 C16.04965 62.88168 16.1618 61.57586 16.27734 60.23047 C17.09735 56.56482 18.0801 55.28827 21 53 C24.10049 51.44976 26.57894 51.71008 30 52 C32.75 53.3125 32.75 53.3125 35 56 C38.0471 65.42417 39.34006 75.02219 40.6875 84.8125 C40.91244 86.38193 41.13738 87.95137 41.36914 89.56836 C43.1428 102.19958 43.1428 102.19958 43 108 C43.66 108 44.32 108 45 108 C45.03811 107.30375 45.07622 106.60749 45.11548 105.89014 C45.7484 96.171 47.12045 86.58554 48.52603 76.95618 C51.14867 58.9107 53.61382 40.93952 54.22656 22.69531 C54.26354 21.63925 54.30052 20.58318 54.33862 19.49512 C54.40255 17.47797 54.45189 15.46029 54.48364 13.44238 C54.72137 4.77902 54.72137 4.77902 58 1 C62.56127 -1.28064 64.15822 -1.23245 69 0 C73.32256 5.76342 73.12033 9.92187 73.17578 17.02344 C73.20769 19.48212 73.20769 19.48212 73.24023 21.99048 C73.25703 23.30473 73.25703 23.30473 73.27417 24.64554 C73.51815 42.0191 74.46364 59.25564 76 76.5625 C76.08972 77.57423 76.17944 78.58597 76.27188 79.62836 C76.96174 87.32926 77.65471 95.02826 78.54712 102.70874 C79.88544 115.38996 78.46441 127.88643 77.0625 140.5 C75.49257 154.89814 74.03538 169.19565 73.78906 183.6875 C73.77462 184.52809 73.76017 185.36868 73.74529 186.23474 C73.68822 189.70772 73.63314 193.18052 73.59863 196.65381 C73.57101 199.22792 73.52523 201.80121 73.47656 204.375 C73.45674 205.88836 73.43692 207.40172 73.4165 208.96094 C72.89574 214.01104 71.5981 217.4019 68 221 C60.92126 221.68504 60.92126 221.68504 57.5625 219.1875 C55.10156 215.74219 54.80878 212.69003 54.49219 208.57031 C52.97898 190.2788 50.80775 172.12618 48.375 153.9375 C48.21707 152.75617 48.05914 151.57485 47.89642 150.35773 C45.9964 136.1722 45.9964 136.1722 44 122 C43.83919 123.12906 43.67838 124.25812 43.5127 125.42139 C42.90382 129.65358 42.28373 133.88382 41.65625 138.11328 C41.38815 139.93588 41.12438 141.75912 40.86523 143.58301 C38.09874 163.01229 38.09874 163.01229 34 171 C29.81069 173.79288 26.94635 173.47431 22 173 C16.5956 168.84277 16.45222 161.35311 15.59204 154.9751 C15.20774 151.73532 14.84899 148.49376 14.5 145.25 C13.4874 136.14113 12.40004 127.05911 11 118 C8.69 118 6.38 118 4 118 C4.00666 119.14957 4.01332 120.29913 4.02019 121.48354 C4.08035 132.32713 4.126 143.17067 4.15544 154.0144 C4.17108 159.58902 4.19229 165.1635 4.22632 170.73804 C4.25896 176.11968 4.27686 181.5012 4.28463 186.88293 C4.29017 188.9342 4.30098 190.98546 4.31719 193.03667 C4.33903 195.91401 4.34196 198.7908 4.34058 201.66821 C4.34724 203.3048 4.3539 204.94139 4.36076 206.62758 C3.99132 211.10521 3.1502 214.07469 1 218 C-2.51825 220.3455 -3.85776 220.57991 -8 220 C-11.70923 217.21981 -12.88288 215.72906 -13.62641 211.10067 C-13.627 209.55449 -13.62759 208.0083 -13.62819 206.41527 C-13.63528 205.55219 -13.64238 204.68911 -13.64969 203.79988 C-13.66729 200.90837 -13.64915 198.0182 -13.6311 195.12671 C-13.63624 193.05366 -13.64352 190.98062 -13.65279 188.90759 C-13.67132 183.27747 -13.65835 177.64782 -13.6387 172.01772 C-13.62233 166.12989 -13.63112 160.2421 -13.63622 154.35426 C-13.64074 144.4673 -13.62485 134.58053 -13.59692 124.6936 C-13.56486 113.25604 -13.56489 101.81882 -13.58214 90.38124 C-13.59799 79.38586 -13.59128 68.3906 -13.5742 57.39522 C-13.56732 52.71226 -13.56837 48.02939 -13.57575 43.34643 C-13.5834 37.83469 -13.57133 32.32334 -13.5439 26.81167 C-13.537 24.78637 -13.53693 22.76104 -13.54411 20.73574 C-13.55277 17.97597 -13.53691 15.21742 -13.51466 12.45775 C-13.51186 10.91194 -13.50905 9.36614 -13.50616 7.77349 C-13 4 -13 4 -11.15533 1.53389 C-7.21276 -1.27193 -4.57396 -1.14349 0 0 Z " fill="#000000" transform="translate(359,405)"/>
<path d="M0 0 C3.63203 1.14342 5.12267 2.03051 7.375 5.0625 C8.27539 8.66406 8.51221 11.39532 8.55078 15.06982 C8.89005 34.67376 10.74422 53.77009 13.375 73.1875 C13.74873 76.03889 14.12113 78.89045 14.49219 81.74219 C15.16796 86.89706 15.84678 92.05145 16.54297 97.20361 C16.67985 98.2182 16.81673 99.23278 16.95776 100.27811 C17.34986 102.89473 17.83145 105.47355 18.375 108.0625 C18.96351 104.9384 19.5468 101.81352 20.125 98.6875 C20.30474 97.71756 20.48449 96.74762 20.66968 95.74829 C21.68463 90.17334 22.61146 84.59625 23.42578 78.98828 C23.59562 77.8241 23.76545 76.65991 23.94043 75.46045 C24.26713 73.1861 24.58447 70.91038 24.8916 68.6333 C25.11735 67.06491 25.11735 67.06491 25.34766 65.46484 C25.47406 64.54179 25.60047 63.61875 25.73071 62.66772 C26.84623 58.15705 28.51532 55.63562 32.375 53.0625 C36.33621 52.62237 38.64713 52.6743 42.1875 54.5625 C47.51814 60.65466 47.13541 70.72948 47.9375 78.5 C48.12603 80.2644 48.12603 80.2644 48.31836 82.06445 C48.56222 84.34857 48.80401 86.6329 49.04346 88.91748 C49.47043 92.96779 49.92049 97.0152 50.375 101.0625 C53.015 101.0625 55.655 101.0625 58.375 101.0625 C58.36612 99.88344 58.35724 98.70437 58.34808 97.48958 C58.26701 86.3805 58.20704 75.27148 58.16775 64.16218 C58.14687 58.45068 58.11855 52.73943 58.07324 47.02808 C58.0298 41.51675 58.00587 36.00566 57.99549 30.49418 C57.9881 28.391 57.97366 26.28784 57.95208 24.18476 C57.92306 21.23984 57.91904 18.29587 57.9209 15.35083 C57.90652 14.48049 57.89214 13.61014 57.87732 12.71342 C57.90382 8.82765 58.17344 6.39224 60.21979 3.04448 C62.9931 0.49408 64.62201 0.0625 68.375 0.0625 C71.43204 1.31311 72.92934 2.23228 74.49975 5.1578 C75.65543 8.99315 75.62695 12.40494 75.62897 16.41272 C75.63209 17.25059 75.63521 18.08846 75.63842 18.95173 C75.6464 21.7576 75.64008 24.56326 75.63379 27.36914 C75.6365 29.38145 75.64006 31.39375 75.64441 33.40605 C75.65353 38.87082 75.64999 44.33551 75.64365 49.80028 C75.63859 55.5168 75.64328 61.23331 75.64642 66.94983 C75.65006 76.55006 75.64526 86.15026 75.63574 95.75049 C75.62486 106.85281 75.62838 117.95505 75.63939 129.05737 C75.64847 138.58613 75.64975 148.11488 75.64452 157.64365 C75.6414 163.33629 75.64099 169.02888 75.64759 174.72151 C75.65336 180.07309 75.64937 185.42457 75.6378 190.77613 C75.63516 192.74135 75.63592 194.70659 75.64033 196.6718 C75.64578 199.35207 75.63895 202.03203 75.62897 204.71228 C75.62821 206.21292 75.62746 207.71356 75.62668 209.25967 C75.25986 214.80228 74.30292 217.13458 70.375 221.0625 C66.4375 221.5625 66.4375 221.5625 62.375 221.0625 C58.95655 218.08376 58.40394 216.32022 57.89398 211.77873 C57.88243 210.04936 57.89293 208.31976 57.9209 206.59058 C57.92031 205.64375 57.91973 204.69692 57.91913 203.72141 C57.92191 200.59905 57.95301 197.47766 57.98438 194.35547 C57.99184 192.18786 57.99753 190.02024 58.00153 187.85262 C58.01678 182.15277 58.05607 176.45334 58.10034 170.75366 C58.14129 164.93544 58.15954 159.11715 58.17969 153.29883 C58.22256 141.88654 58.29082 130.47455 58.375 119.0625 C55.735 118.7325 53.095 118.4025 50.375 118.0625 C50.32457 119.02462 50.27413 119.98675 50.22217 120.97803 C49.6562 130.9335 48.72402 140.79255 47.5 150.6875 C47.33887 152.09129 47.17773 153.49508 47.01172 154.94141 C46.84543 156.29363 46.67914 157.64586 46.50781 159.03906 C46.36231 160.24643 46.21681 161.4538 46.06689 162.69775 C45.10856 167.35823 43.74692 170.91306 40.0625 174 C36.58502 175.37482 34.91813 175.24354 31.375 174.0625 C27.25395 170.59735 25.68455 168.1106 24.73047 162.83594 C24.5015 161.60198 24.27253 160.36803 24.03662 159.09668 C23.81829 157.7654 23.59995 156.43412 23.375 155.0625 C23.0301 152.9689 23.0301 152.9689 22.67822 150.83301 C21.98488 146.4551 21.32982 142.07316 20.6875 137.6875 C20.46256 136.17672 20.23762 134.66594 20.00586 133.10938 C19.45826 129.42765 18.91472 125.74538 18.375 122.0625 C17.28361 130.46615 16.20026 138.8708 15.12183 147.27612 C14.75605 150.1201 14.38861 152.96386 14.01929 155.80737 C13.48083 159.95563 12.94765 164.10452 12.41797 168.25391 C12.24192 169.63116 12.06587 171.00841 11.88449 172.4274 C10.47647 183.69444 9.37399 194.98067 8.49223 206.30116 C8.33619 208.1165 8.33619 208.1165 8.177 209.96851 C8.09368 211.02823 8.01036 212.08796 7.92451 213.17979 C7.30583 216.42533 6.35391 218.4258 4.375 221.0625 C1 222.5625 1 222.5625 -2.625 223.0625 C-6.23444 221.53851 -7.43583 220.34625 -9.625 217.0625 C-9.87945 214.03839 -10.0211 211.09156 -10.08203 208.0625 C-10.14016 206.14768 -10.19904 204.23289 -10.25854 202.31812 C-10.30161 200.79092 -10.30161 200.79092 -10.34555 199.23288 C-10.96919 177.72997 -12.61816 156.45728 -15.03638 135.08398 C-16.23758 124.22072 -16.93144 113.97546 -15.625 103.0625 C-15.51261 102.02537 -15.40022 100.98824 -15.28442 99.91968 C-15.0558 97.86951 -14.81825 95.82032 -14.57178 93.77222 C-13.05716 81.12124 -12.13896 68.47353 -11.5 55.75 C-11.41597 54.10467 -11.33194 52.45935 -11.24536 50.76416 C-10.86385 42.79285 -10.5801 34.83566 -10.49219 26.85547 C-10.47043 25.43081 -10.44868 24.00616 -10.42627 22.53833 C-10.39295 19.873 -10.38471 17.2072 -10.40576 14.54175 C-10.29319 5.85193 -10.29319 5.85193 -6.80469 1.73047 C-3.625 0.0625 -3.625 0.0625 0 0 Z " fill="#000000" transform="translate(601.625,403.9375)"/>
</svg>
