<?xml version="1.0" encoding="UTF-8" standalone="no"?>
<!-- Created with CreateLogo.app :) -->

<svg
   version="1.1"
   width="1024"
   height="1024"
   id="svg20"
   sodipodi:docname="logo-6.svg"
   inkscape:version="1.3.1 (9b9bdc1480, 2023-11-25, custom)"
   xmlns:inkscape="http://www.inkscape.org/namespaces/inkscape"
   xmlns:sodipodi="http://sodipodi.sourceforge.net/DTD/sodipodi-0.dtd"
   xmlns="http://www.w3.org/2000/svg"
   xmlns:svg="http://www.w3.org/2000/svg">
  <defs
     id="defs20" />
  <sodipodi:namedview
     id="namedview20"
     pagecolor="#ffffff"
     bordercolor="#000000"
     borderopacity="0.25"
     inkscape:showpageshadow="2"
     inkscape:pageopacity="0.0"
     inkscape:pagecheckerboard="0"
     inkscape:deskcolor="#d1d1d1"
     showgrid="false"
     inkscape:zoom="0.41471947"
     inkscape:cx="594.37769"
     inkscape:cy="307.43674"
     inkscape:window-width="1920"
     inkscape:window-height="1131"
     inkscape:window-x="0"
     inkscape:window-y="32"
     inkscape:window-maximized="1"
     inkscape:current-layer="svg20" />
  <path
     d="M0 0 C1.28648 -0.02062 2.57297 -0.04125 3.89844 -0.0625 C30.03103 -0.16766 54.65183 11.07622 73.4375 29.0625 C95.26545 51.86058 104.08912 79.19296 103.78125 110.11328 C103.55839 118.60531 102.16598 126.15558 99.5 134.25 C99.14937 135.36762 98.79875 136.48523 98.4375 137.63672 C94.20838 149.81014 87.47513 160.82774 78.54297 170.10156 C76.44705 172.22814 76.44705 172.22814 74.63672 174.69141 C59.36844 192.97426 34.53958 201.93723 11.625 204.875 C-16.71164 207.29505 -44.1269 199.42844 -66.08203 181.09375 C-85.59744 164.0068 -100.16619 139.41172 -102.5 113.25 C-103.98563 80.8267 -94.71108 55.21037 -73.28906 30.72266 C-54.0068 10.32934 -27.61111 0.10807 0 0 Z M-49.5 49.25 C-50.15613 49.82492 -50.81227 50.39984 -51.48828 50.99219 C-64.00042 62.58881 -71.09119 80.66863 -71.83594 97.51172 C-72.18009 118.2552 -67.56594 135.52925 -53.5 151.25 C-52.79875 152.03375 -52.0975 152.8175 -51.375 153.625 C-38.7435 166.9783 -21.47433 174.50922 -3.18359 175.41406 C19.23653 175.92839 37.42597 168.71349 53.75 153.4375 C68.39257 138.00508 74.09841 118.99969 73.80469 98.12891 C72.60376 78.8987 64.07971 61.77517 50.5 48.25 C34.84134 34.47868 16.78063 28.31211 -4.08203 28.87109 C-21.75632 30.38693 -36.47327 37.39207 -49.5 49.25 Z "
     fill="#000000"
     transform="translate(510.5,301.75)"
     id="path1" />
  <path
     d="M0 0 C2.82225 2.87265 5.196 5.392 7 9 C6.72896 15.14365 6.19285 19.37711 2 24 C-2.8217 27.09317 -7.38959 28.39542 -12.9375 29.75 C-34.60399 35.32815 -52.66199 47.77069 -64.40234 66.91797 C-65.89782 69.47845 -67.36589 72.05527 -68.79688 74.65234 C-72.04229 79.58376 -75.38121 82.37337 -80.875 84.5 C-85.90689 85.10993 -88.51797 84.31571 -93 82 C-96.66128 78.24237 -98.83635 74.60923 -99.375 69.3125 C-97.79139 51.10096 -79.90352 33.56684 -66.75 22.5 C-53.29465 11.71016 -37.82725 3.10058 -21 -1 C-19.95844 -1.2591 -18.91688 -1.5182 -17.84375 -1.78516 C-11.07175 -3.21309 -6.38438 -3.19219 0 0 Z "
     fill="#000000"
     transform="translate(403,327)"
     id="path2" />
  <path
     d="M0 0 C14.89505 7.4935 28.68788 17.89056 39.21313 30.84644 C40.28048 32.14001 40.28048 32.14001 41.36938 33.45972 C57.09238 53.35577 57.09238 53.35577 56.58813 63.90894 C54.33361 70.36508 51.32767 73.78917 45.21313 76.84644 C39.92475 78.16853 37.18533 77.88861 32.39673 75.35815 C28.21033 72.05527 26.06594 68.27982 23.40063 63.72144 C11.84263 44.76352 -5.08303 29.38644 -26.78687 22.84644 C-30.37732 22.04066 -33.96626 21.30793 -37.58765 20.65503 C-43.11439 19.25816 -46.81453 16.72955 -49.78687 11.84644 C-51.0274 6.49662 -51.08687 3.62421 -49.09937 -1.52856 C-38.6853 -17.85331 -13.4718 -6.44339 0 0 Z "
     fill="#000000"
     transform="translate(662.786865234375,334.153564453125)"
     id="path3" />
  <path
     d="M0 0 C10.85793 9.37211 16.91429 19.00872 20.41016 32.99219 C21.37914 49.7668 19.27532 63.49109 8.1875 76.625 C-2.53508 88.0103 -15.31649 93.25868 -30.80469 94.05078 C-46.17503 93.81285 -58.21344 88.97923 -69.30078 78.47266 C-78.60465 68.39082 -83.00692 56.46476 -83.83984 42.92969 C-83.05529 27.43474 -78.08644 13.68525 -66.58984 2.99219 C-48.33611 -12.74927 -19.39192 -15.03385 0 0 Z M-48.52734 27.80469 C-52.29754 33.63135 -54.33641 39.0242 -53.58984 45.99219 C-51.78252 53.58294 -47.7332 57.55709 -41.58984 61.99219 C-35.16166 65.20628 -28.67747 64.66926 -21.96484 62.49219 C-15.83539 59.4543 -11.84606 54.81866 -9.08984 48.61719 C-7.9593 40.42073 -8.90387 34.6023 -13.77344 27.97266 C-18.58032 22.7316 -24.15752 20.34726 -31.21484 19.61719 C-38.23699 20.21909 -43.45635 22.94948 -48.52734 27.80469 Z "
     fill="#000000"
     transform="translate(542.58984375,360.0078125)"
     id="path4" />
  <path
     d="M0 0 C4.45006 2.84512 5.93626 4.51238 7.8125 9.4375 C8.68313 14.17996 9.00965 18.41996 6.48438 22.67578 C4.69872 24.74698 2.83467 26.59736 0.8125 28.4375 C-9.03123 37.75389 -15.89207 48.61829 -18.5625 62.0625 C-19.86958 68.16935 -21.59669 71.22145 -26.1875 75.4375 C-30.99617 77.84183 -33.85785 77.86963 -39.1875 77.4375 C-44.0573 75.04854 -46.50663 72.1042 -49.1875 67.4375 C-52.92517 56.22449 -47.51877 43.0743 -42.91406 32.85547 C-36.48794 20.13407 -26.30516 6.11326 -13.625 -1 C-8.46421 -2.19095 -4.98684 -1.86076 0 0 Z "
     fill="#000000"
     transform="translate(393.1875,393.5625)"
     id="path5" />
  <path
     d="M0 0 C18.07503 9.07926 29.296 28.63364 36 47 C38.7301 55.66262 40.63828 63.82115 36.3125 72.3125 C33.04954 76.10458 30.49243 78.52289 25.44922 79.48828 C20.21109 79.85778 17.33479 79.17696 12.625 76.6875 C8.08938 72.17954 7.18053 66.2035 5.77832 60.19189 C2.36745 45.62101 -6.11428 36.69434 -16.625 26.4375 C-20.01381 22.95951 -19.98923 21.16377 -20.3125 16.25 C-20.23093 11.16324 -19.24617 8.05771 -16 4 C-10.58331 0.47915 -6.43011 -0.81652 0 0 Z "
     fill="#000000"
     transform="translate(641,392)"
     id="path6" />
  <path
     d="M0 0 C4.57183 2.28592 6.46673 3.88177 8.66621 8.4939 C10.25864 13.8738 10.40012 18.5262 10.34058 24.09766 C10.34123 25.72338 10.34123 25.72338 10.3419 27.38194 C10.33982 30.94232 10.31653 34.50221 10.29297 38.0625 C10.28737 40.53971 10.2831 43.01693 10.28011 45.49414 C10.26868 51.99775 10.23923 58.50117 10.20599 65.0047 C10.17524 71.64764 10.16159 78.29061 10.14648 84.93359 C10.11436 97.95582 10.06319 110.97789 10 124 C10.76659 124.1372 11.53318 124.27441 12.323 124.41577 C24.40606 127.05278 33.75287 137.39282 40.39453 147.21094 C47.94259 160.32363 49.99839 174.75607 47.35156 189.64844 C43.03857 204.87292 34.30009 216.59227 21 225 C19.27455 225.89128 17.54041 226.76589 15.79956 227.62671 C14.90037 228.07248 14.00119 228.51825 13.07475 228.97752 C12.39008 229.31494 11.70542 229.65236 11 230 C10.9912 231.42701 10.9912 231.42701 10.98222 232.88284 C10.92427 241.858 10.85217 250.83288 10.76429 259.80779 C10.7196 264.42164 10.68034 269.03541 10.65356 273.64941 C10.62751 278.10403 10.5871 282.55831 10.53681 287.01272 C10.52016 288.71028 10.50864 290.4079 10.50239 292.10553 C10.49273 294.48728 10.46296 296.86892 10.43237 299.25049 C10.42127 300.60506 10.41017 301.95963 10.39873 303.35526 C9.69026 309.83131 6.83114 313.77275 2 318 C-2.1737 319.39123 -5.61829 319.29211 -10 319 C-14.37407 316.7717 -17.30229 314.09653 -20 310 C-21.133 305.84503 -21.12074 301.83758 -21.11353 297.54761 C-21.11345 296.04643 -21.11337 294.54525 -21.1133 292.99858 C-21.10814 291.38385 -21.10297 289.76913 -21.09766 288.10547 C-21.09579 286.4311 -21.09437 284.75672 -21.09337 283.08235 C-21.08956 278.68473 -21.07974 274.28714 -21.06866 269.88953 C-21.05842 265.39836 -21.05386 260.90719 -21.04883 256.41602 C-21.03812 247.61066 -21.02106 238.80533 -21 230 C-22.09852 229.85756 -23.19705 229.71512 -24.32886 229.56836 C-36.43653 227.69387 -46.26682 217.89436 -53.375 208.5 C-62.1844 195.72992 -64.72715 181.86069 -62.5 166.56641 C-59.52301 152.20583 -52.27184 140.2563 -40.35938 131.52734 C-34.26696 127.58341 -27.65318 124.84567 -21 122 C-21.00666 120.66695 -21.01332 119.33391 -21.02019 117.96046 C-21.08107 105.38099 -21.12601 92.80154 -21.15544 80.22196 C-21.17107 73.75509 -21.19228 67.28833 -21.22632 60.82153 C-21.25898 54.57753 -21.27687 48.33364 -21.28463 42.08955 C-21.29016 39.71059 -21.30096 37.33164 -21.31719 34.95273 C-21.33905 31.61361 -21.34196 28.27497 -21.34058 24.93579 C-21.35136 23.95827 -21.36215 22.98075 -21.37326 21.9736 C-21.33907 14.33736 -20.56235 7.61573 -15 1.9375 C-9.78683 -0.58763 -5.68979 -1.02081 0 0 Z M-27 159 C-32.71967 166.51728 -34.11423 173.6991 -33 183 C-30.28815 191.89235 -24.53796 197.34572 -16.6875 201.9375 C-9.6939 203.95261 -3.45641 204.02146 3.25 201 C10.37662 196.98915 15.75285 190.9311 18 183 C18.90242 174.94591 18.0805 169.01009 14 162 C8.03499 154.57418 1.34399 151.65772 -8.0625 150.5 C-15.12355 151.39664 -21.8959 153.8959 -27 159 Z "
     fill="#000000"
     transform="translate(320,437)"
     id="path8" />
  <path
     d="M0 0 C4.40921 2.2046 6.00231 4.00309 9 8 C10.39979 12.19937 10.12209 16.31971 10.09766 20.69922 C10.09624 21.6494 10.09483 22.59959 10.09337 23.57857 C10.08777 26.61491 10.07522 29.65118 10.0625 32.6875 C10.05748 34.74544 10.05292 36.80338 10.04883 38.86133 C10.0378 43.90758 10.02053 48.95378 10 54 C10.68884 54.19907 11.37768 54.39814 12.08739 54.60324 C12.98982 54.86807 13.89225 55.1329 14.82202 55.40576 C15.71711 55.66671 16.6122 55.92765 17.53441 56.1965 C29.18433 59.99303 38.83474 71.37028 44.49219 81.77734 C51.24655 96.21347 52.32851 111.89895 47 127 C43.91664 135.0772 39.06738 140.92237 33 147 C32.36063 147.65098 31.72125 148.30195 31.0625 148.97266 C25.64009 154.11265 17.68658 160 10 160 C10.00369 160.7563 10.00737 161.5126 10.01117 162.29182 C10.09955 180.70374 10.16572 199.11564 10.20725 217.52773 C10.22786 226.43173 10.25597 235.33559 10.30176 244.2395 C10.34592 252.83066 10.36913 261.42166 10.37951 270.01292 C10.38691 273.29227 10.40135 276.57161 10.42292 279.85089 C10.45191 284.44057 10.45596 289.02963 10.4541 293.61938 C10.46848 294.97813 10.48286 296.33687 10.49768 297.73679 C10.46786 304.54361 10.36751 309.41776 6 315 C2.15065 318.1799 -0.97717 319.90151 -6 320 C-11.45645 318.80407 -14.25928 317.83331 -18 313.625 C-20.77187 308.60099 -21.12517 304.57271 -21.12025 298.89397 C-21.12163 297.66704 -21.123 296.44012 -21.12442 295.17601 C-21.11903 293.16919 -21.11903 293.16919 -21.11353 291.12183 C-21.11367 289.70683 -21.11382 288.29183 -21.11397 286.83395 C-21.11327 282.15361 -21.10549 277.47331 -21.09766 272.79297 C-21.09579 269.54918 -21.09437 266.30539 -21.09337 263.0616 C-21.08994 255.3942 -21.08206 247.72682 -21.07202 240.05943 C-21.06084 231.32913 -21.05534 222.59883 -21.05032 213.86853 C-21.03987 195.91234 -21.02229 177.95617 -21 160 C-21.94005 159.85756 -22.8801 159.71512 -23.84863 159.56836 C-35.43413 157.47888 -45.29227 146.70723 -51.875 137.625 C-60.15352 125.11946 -62.76365 111.82625 -60.35156 97.01953 C-56.90402 81.62348 -49.49008 68.7893 -35.98828 60.05078 C-33.35934 58.60118 -30.72121 57.26578 -28 56 C-26.68 55.34 -25.36 54.68 -24 54 C-23.01 54 -22.02 54 -21 54 C-21.01571 52.19197 -21.01571 52.19197 -21.03174 50.34741 C-21.06807 45.85412 -21.09095 41.36083 -21.10986 36.86743 C-21.11989 34.92665 -21.13351 32.98589 -21.15088 31.04517 C-21.17527 28.24752 -21.18652 25.45008 -21.19531 22.65234 C-21.20564 21.79165 -21.21596 20.93095 -21.22659 20.04417 C-21.22752 15.02247 -20.79749 10.70507 -19 6 C-12.78521 0.04416 -8.4267 -0.86885 0 0 Z M-23.9375 88.0625 C-29.26091 94.90688 -31.98774 102.25146 -31 111 C-29.26526 118.69793 -25.96149 123.94789 -20 129 C-12.31291 133.59743 -5.04695 133.98439 3.625 131.875 C11.30691 128.58275 15.66087 124.14748 19.05469 116.64062 C21.86581 108.78806 21.35491 101.57815 18 94 C14.11305 87.87511 7.48136 83.11031 0.38281 81.35156 C-8.94739 79.97497 -16.54294 82.31118 -23.9375 88.0625 Z "
     fill="#000000"
     transform="translate(713,437)"
     id="path9" />
  <path
     d="M0 0 C5.6084 3.36504 7.1215 6.86235 9 13 C9.27542 16.47899 9.41017 19.77326 9.38768 23.24731 C9.39307 24.25306 9.39845 25.2588 9.404 26.29503 C9.41826 29.65124 9.41118 33.00705 9.40405 36.36328 C9.40976 38.7751 9.41672 41.18691 9.42485 43.59872 C9.44279 50.13994 9.44161 56.68102 9.43591 63.22226 C9.43282 68.68466 9.43891 74.14705 9.44495 79.60945 C9.45899 92.49519 9.45743 105.38086 9.44604 118.2666 C9.43456 131.55876 9.44865 144.85071 9.47544 158.14284 C9.49759 169.55876 9.50424 180.97461 9.49836 192.39055 C9.49499 199.20724 9.49743 206.02381 9.51462 212.84048 C9.53007 219.24934 9.52614 225.65789 9.50731 232.06673 C9.50362 234.41771 9.50674 236.76871 9.5172 239.11967 C9.53039 242.33102 9.51888 245.54138 9.50121 248.75269 C9.51081 249.6811 9.52042 250.60951 9.53031 251.56606 C9.46135 257.6648 8.15798 261.79989 5 267 C0.20331 271.45407 -2.82499 272.37471 -9.46094 272.26953 C-13.30988 271.86095 -15.21142 270.65579 -18 268 C-21.73713 261.84843 -22.57353 256.725 -22.50121 249.67003 C-22.50951 248.1481 -22.50951 248.1481 -22.51798 246.59543 C-22.53155 243.20912 -22.51663 239.82355 -22.50171 236.43726 C-22.50549 234.00411 -22.51099 231.57097 -22.51808 229.13783 C-22.53204 222.53878 -22.52087 215.93999 -22.50437 209.34095 C-22.49051 202.43356 -22.49698 195.52619 -22.5005 188.61879 C-22.50321 177.02048 -22.48973 165.42226 -22.46655 153.82397 C-22.43994 140.41481 -22.4382 127.00581 -22.44994 113.59663 C-22.46072 100.69565 -22.45453 87.79474 -22.44039 74.89377 C-22.43463 69.40389 -22.43471 63.91406 -22.43945 58.42418 C-22.44422 51.96036 -22.43411 45.49674 -22.4125 39.03296 C-22.40693 36.66061 -22.40646 34.28823 -22.41145 31.91587 C-22.4174 28.67804 -22.40489 25.44077 -22.38768 22.20299 C-22.39369 21.26388 -22.3997 20.32477 -22.40589 19.3572 C-22.35304 13.8912 -21.6303 9.81063 -19 5 C-12.90044 -0.84542 -8.24688 -1.83692 0 0 Z "
     fill="#000000"
     transform="translate(400,484)"
     id="path13" />
  <path
     d="M0 0 C4.04161 3.38367 5.4167 6.16678 6.6875 11.25 C6.78481 14.50219 6.82659 17.73284 6.82121 20.98506 C6.82348 21.98401 6.82574 22.98296 6.82808 24.01218 C6.83442 27.36922 6.83359 30.72621 6.83276 34.08325 C6.83575 36.48625 6.83916 38.88924 6.84294 41.29224 C6.85179 47.82739 6.85412 54.36253 6.85476 60.89768 C6.85571 66.35003 6.85938 71.80238 6.86293 77.25474 C6.87108 90.11734 6.87351 102.97993 6.8728 115.84253 C6.8722 129.11752 6.88275 142.39247 6.89855 155.66745 C6.91162 167.05863 6.91699 178.4498 6.91635 189.84099 C6.91609 196.64706 6.91895 203.45309 6.92953 210.25915 C6.9392 216.66048 6.93929 223.06174 6.93201 229.46307 C6.93096 231.81285 6.93333 234.16264 6.93937 236.51242 C6.94707 239.71969 6.94245 242.92672 6.93474 246.13399 C6.93988 247.06415 6.94503 247.99432 6.95032 248.95267 C6.92322 254.0497 6.55043 258.48363 4.6875 263.25 C-1.01097 268.74495 -3.82056 270.61545 -11.76953 270.53516 C-15.46775 270.12046 -17.54913 268.67637 -20.3125 266.25 C-24.71013 260.38649 -24.46103 255.40713 -24.45967 248.36981 C-24.46335 247.35523 -24.46702 246.34066 -24.47081 245.29533 C-24.48185 241.88536 -24.48569 238.47542 -24.4895 235.06543 C-24.49577 232.62465 -24.50241 230.18387 -24.50941 227.74309 C-24.52683 221.10457 -24.53738 214.46606 -24.54562 207.82753 C-24.55077 203.68125 -24.55685 199.53496 -24.56313 195.38868 C-24.58218 182.41937 -24.59641 169.45007 -24.60474 156.48076 C-24.61452 141.50312 -24.64085 126.52562 -24.68124 111.54803 C-24.71138 99.9751 -24.72621 88.40221 -24.72952 76.82923 C-24.73188 69.91521 -24.74086 63.00134 -24.76599 56.08736 C-24.78924 49.58338 -24.79351 43.07966 -24.78322 36.57565 C-24.78273 34.18919 -24.78907 31.80271 -24.80278 29.41629 C-24.82046 26.15659 -24.81341 22.89783 -24.80025 19.63812 C-24.81122 18.69531 -24.82219 17.75249 -24.83349 16.78111 C-24.77373 10.64716 -23.51059 6.47317 -20.3125 1.25 C-14.00358 -3.63941 -6.97669 -3.6858 0 0 Z "
     fill="#000000"
     transform="translate(637.3125,485.75)"
     id="path14" />
  <path
     d="M0 0 C4.88479 2.35193 7.36062 5.30777 10 10 C11.07153 14.28611 11.1132 17.84991 11.09766 22.26562 C11.09282 24.68262 11.09282 24.68262 11.08789 27.14844 C11.07954 28.84896 11.07107 30.54948 11.0625 32.25 C11.05748 33.96614 11.05292 35.68229 11.04883 37.39844 C11.03703 41.59899 11.02057 45.79948 11 50 C11.93554 50.30543 12.87107 50.61085 13.83496 50.92554 C28.93731 56.05246 39.16737 66.46272 46.24609 80.46484 C52.34621 94.25156 51.99534 108.72735 47.28125 122.83594 C41.63982 136.76751 30.71002 147.87544 17 154 C15.00533 154.36385 13.00547 154.70133 11 155 C11.00999 156.31092 11.00999 156.31092 11.02019 157.64833 C11.08041 165.90187 11.12603 174.15535 11.15544 182.40907 C11.17106 186.65196 11.19225 190.89467 11.22632 195.13745 C11.26528 200.02 11.27973 204.90247 11.29297 209.78516 C11.30845 211.30207 11.32394 212.81897 11.33989 214.38185 C11.34012 215.8028 11.34034 217.22374 11.34058 218.68774 C11.35057 220.55639 11.35057 220.55639 11.36076 222.46278 C10.77618 228.19455 9.13348 231.93592 4.9375 235.875 C0.06954 239.3965 -4.07717 239.66416 -10 239 C-14.35972 236.7805 -16.02406 234.96792 -19 231 C-19.96948 227.1221 -20.15592 224.00904 -20.20532 220.02832 C-20.23524 217.89656 -20.23524 217.89656 -20.26576 215.72174 C-20.28247 214.18935 -20.29919 212.65695 -20.31641 211.07812 C-20.33719 209.50787 -20.35797 207.93761 -20.37938 206.31976 C-20.43371 202.15068 -20.48395 197.98159 -20.53223 193.81244 C-20.58251 189.5559 -20.63816 185.29944 -20.69336 181.04297 C-20.80052 172.69537 -20.90229 164.34772 -21 156 C-21.94827 155.54399 -22.89653 155.08799 -23.87354 154.61816 C-25.12441 154.00683 -26.37528 153.39549 -27.66406 152.76562 C-28.90108 152.16524 -30.1381 151.56486 -31.4126 150.94629 C-44.15139 144.03506 -53.118 131.45168 -58 118 C-61.89431 103.62872 -59.2665 87.43122 -52.13281 74.65625 C-43.90431 61.72118 -34.50606 54.74744 -20 50 C-20.02095 48.8197 -20.04189 47.6394 -20.06348 46.42334 C-20.1318 42.02873 -20.18187 37.63468 -20.21973 33.23975 C-20.2398 31.34057 -20.26706 29.44145 -20.30176 27.54248 C-20.35048 24.80681 -20.37302 22.07196 -20.39062 19.33594 C-20.41157 17.69158 -20.43252 16.04722 -20.4541 14.35303 C-19.83549 8.423 -17.71171 5.54869 -13.375 1.625 C-8.7973 -0.57908 -4.99448 -0.79716 0 0 Z M-23.9375 85.9375 C-28.39809 92.5608 -30.16739 97.98743 -30 106 C-28.00368 114.80727 -24.10289 120.67284 -17 126 C-10.95049 129.01963 -4.58733 128.84672 2 128 C6.52038 126.45081 6.52038 126.45081 10 124 C10.88688 123.44313 11.77375 122.88625 12.6875 122.3125 C18.20085 116.79915 20.5634 110.45328 21.3125 102.8125 C20.68919 95.20811 17.60136 88.23605 12 83 C0.29562 74.7368 -13.82294 75.82294 -23.9375 85.9375 Z "
     fill="#000000"
     transform="translate(478,517)"
     id="path16" />
  <path
     d="M0 0 C4.00172 3.1386 5.23969 5.81188 7.1875 10.5 C7.69086 14.81977 7.69086 14.81977 7.69543 19.57043 C7.70479 20.88917 7.70479 20.88917 7.71434 22.23454 C7.73022 25.1625 7.71769 28.08962 7.70508 31.01758 C7.7105 33.12398 7.71763 35.23038 7.72632 37.33678 C7.74453 43.04543 7.73749 48.75379 7.7248 54.46245 C7.71466 60.44181 7.72407 66.42115 7.73035 72.40051 C7.73762 82.44104 7.72804 92.48146 7.70898 102.52197 C7.68722 114.12367 7.69427 125.72508 7.71629 137.32677 C7.73445 147.29473 7.737 157.2626 7.72654 167.23057 C7.72031 173.18095 7.71945 179.13119 7.73268 185.08156 C7.74425 190.67623 7.73619 196.27054 7.7131 201.86518 C7.70782 203.91621 7.70932 205.96728 7.71815 208.01831 C7.72912 210.82247 7.71534 213.62548 7.69543 216.42957 C7.69393 217.99728 7.69242 219.565 7.69086 221.18023 C6.97987 227.28187 5.06271 231.83788 0.4375 235.9375 C-4.86052 238.48463 -8.90169 239.07324 -14.5625 237.375 C-19.59238 234.47315 -22.08091 230.97659 -23.8125 225.5 C-23.99922 222.59924 -24.0694 219.69036 -24.0732 216.7836 C-24.07702 215.9063 -24.08085 215.02901 -24.08479 214.12512 C-24.09511 211.18573 -24.09113 208.24653 -24.08716 205.30713 C-24.09151 203.19955 -24.09669 201.09197 -24.10265 198.98439 C-24.11605 193.25917 -24.11661 187.53402 -24.11408 181.8088 C-24.11301 177.02991 -24.11789 172.25104 -24.12269 167.47216 C-24.13379 156.1979 -24.13422 144.92368 -24.12817 133.64941 C-24.12213 122.0177 -24.13445 110.38611 -24.15574 98.75442 C-24.17336 88.76873 -24.17936 78.78307 -24.17611 68.79735 C-24.17429 62.833 -24.17694 56.86874 -24.19082 50.90441 C-24.20339 45.29507 -24.20146 39.68593 -24.18841 34.0766 C-24.18604 32.01868 -24.18879 29.96076 -24.19703 27.90286 C-24.20749 25.09181 -24.19941 22.28139 -24.18672 19.47037 C-24.18689 17.89783 -24.18706 16.32529 -24.18723 14.7051 C-23.6866 9.08722 -22.43818 5.0444 -18.3125 1.125 C-12.51922 -2.64063 -6.32951 -2.4903 0 0 Z "
     fill="#000000"
     transform="translate(559.8125,518.5)"
     id="path17" />
</svg>
